<?xml version="1.0" encoding="UTF-8"?>
<!DOCTYPE svg PUBLIC "-//W3C//DTD SVG 1.1//EN"
    "http://www.w3.org/Graphics/SVG/1.1/DTD/svg11.dtd"><svg xmlns="http://www.w3.org/2000/svg" height="32.0000" stroke-opacity="1" viewBox="0 0 512 32" font-size="1" width="512.0000" xmlns:xlink="http://www.w3.org/1999/xlink" stroke="rgb(0,0,0)" version="1.1"><defs></defs><g stroke-linejoin="miter" stroke-opacity="1.0" fill-opacity="1.0" stroke="rgb(0,0,0)" stroke-width="0.5" fill="rgb(222,175,143)" stroke-linecap="butt" stroke-miterlimit="10.0"><path d="M 286.1870,16.0000 c 0.0000,-5.6923 -4.6145,-10.3067 -10.3067 -10.3067c -5.6923,-0.0000 -10.3067,4.6145 -10.3067 10.3067c -0.0000,5.6923 4.6145,10.3067 10.3067 10.3067c 5.6923,0.0000 10.3067,-4.6145 10.3067 -10.3067Z"/></g><g stroke-linejoin="miter" stroke-opacity="1.0" fill-opacity="1.0" stroke="rgb(0,0,0)" stroke-width="0.5" fill="rgb(225,163,238)" stroke-linecap="butt" stroke-miterlimit="10.0"><path d="M 484.8004,16.0000 c 0.0000,-5.6923 -4.6145,-10.3067 -10.3067 -10.3067c -5.6923,-0.0000 -10.3067,4.6145 -10.3067 10.3067c -0.0000,5.6923 4.6145,10.3067 10.3067 10.3067c 5.6923,0.0000 10.3067,-4.6145 10.3067 -10.3067Z"/></g><g stroke-linejoin="miter" stroke-opacity="1.0" fill-opacity="1.0" stroke="rgb(0,0,0)" stroke-width="0.5" fill="rgb(111,194,239)" stroke-linecap="butt" stroke-miterlimit="10.0"><path d="M 352.4031,16.0000 c 0.0000,-5.6923 -4.6145,-10.3067 -10.3067 -10.3067c -5.6923,-0.0000 -10.3067,4.6145 -10.3067 10.3067c -0.0000,5.6923 4.6145,10.3067 10.3067 10.3067c 5.6923,0.0000 10.3067,-4.6145 10.3067 -10.3067Z"/></g><g stroke-linejoin="miter" stroke-opacity="1.0" fill-opacity="1.0" stroke="rgb(0,0,0)" stroke-width="0.5" fill="rgb(18,207,192)" stroke-linecap="butt" stroke-miterlimit="10.0"><path d="M 480.4560,16.0000 c 0.0000,-5.6923 -4.6145,-10.3067 -10.3067 -10.3067c -5.6923,-0.0000 -10.3067,4.6145 -10.3067 10.3067c -0.0000,5.6923 4.6145,10.3067 10.3067 10.3067c 5.6923,0.0000 10.3067,-4.6145 10.3067 -10.3067Z"/></g><g stroke-linejoin="miter" stroke-opacity="1.0" fill-opacity="1.0" stroke="rgb(0,0,0)" stroke-width="0.5" fill="rgb(172,194,103)" stroke-linecap="butt" stroke-miterlimit="10.0"><path d="M 512.0000,16.0000 c 0.0000,-5.6923 -4.6145,-10.3067 -10.3067 -10.3067c -5.6923,-0.0000 -10.3067,4.6145 -10.3067 10.3067c -0.0000,5.6923 4.6145,10.3067 10.3067 10.3067c 5.6923,0.0000 10.3067,-4.6145 10.3067 -10.3067Z"/></g><g stroke-linejoin="miter" stroke-opacity="1.0" fill-opacity="1.0" stroke="rgb(0,0,0)" stroke-width="0.5" fill="rgb(221,178,111)" stroke-linecap="butt" stroke-miterlimit="10.0"><path d="M 434.3488,16.0000 c 0.0000,-5.6923 -4.6145,-10.3067 -10.3067 -10.3067c -5.6923,-0.0000 -10.3067,4.6145 -10.3067 10.3067c -0.0000,5.6923 4.6145,10.3067 10.3067 10.3067c 5.6923,0.0000 10.3067,-4.6145 10.3067 -10.3067Z"/></g><g stroke-linejoin="miter" stroke-opacity="1.0" fill-opacity="1.0" stroke="rgb(0,0,0)" stroke-width="0.5" fill="rgb(237,169,135)" stroke-linecap="butt" stroke-miterlimit="10.0"><path d="M 371.6597,16.0000 c 0.0000,-5.6923 -4.6145,-10.3067 -10.3067 -10.3067c -5.6923,-0.0000 -10.3067,4.6145 -10.3067 10.3067c -0.0000,5.6923 4.6145,10.3067 10.3067 10.3067c 5.6923,0.0000 10.3067,-4.6145 10.3067 -10.3067Z"/></g><g stroke-linejoin="miter" stroke-opacity="1.0" fill-opacity="1.0" stroke="rgb(0,0,0)" stroke-width="0.5" fill="rgb(251,159,177)" stroke-linecap="butt" stroke-miterlimit="10.0"><path d="M 394.3714,16.0000 c 0.0000,-5.6923 -4.6145,-10.3067 -10.3067 -10.3067c -5.6923,-0.0000 -10.3067,4.6145 -10.3067 10.3067c -0.0000,5.6923 4.6145,10.3067 10.3067 10.3067c 5.6923,0.0000 10.3067,-4.6145 10.3067 -10.3067Z"/></g><g stroke-linejoin="miter" stroke-opacity="1.0" fill-opacity="1.0" stroke="rgb(0,0,0)" stroke-width="0.5" fill="rgb(0,0,0)" stroke-linecap="butt" stroke-miterlimit="10.0"><path d="M 415.8614,16.0000 c 0.0000,-2.8461 -2.3072,-5.1534 -5.1534 -5.1534c -2.8461,-0.0000 -5.1534,2.3072 -5.1534 5.1534c -0.0000,2.8461 2.3072,5.1534 5.1534 5.1534c 2.8461,0.0000 5.1534,-2.3072 5.1534 -5.1534Z"/></g><g stroke-linejoin="miter" stroke-opacity="1.0" fill-opacity="1.0" stroke="rgb(0,0,0)" stroke-width="0.5" fill="rgb(0,0,0)" stroke-linecap="butt" stroke-miterlimit="10.0"><path d="M 10.3067,16.0000 c 0.0000,-2.8461 -2.3072,-5.1534 -5.1534 -5.1534c -2.8461,-0.0000 -5.1534,2.3072 -5.1534 5.1534c -0.0000,2.8461 2.3072,5.1534 5.1534 5.1534c 2.8461,0.0000 5.1534,-2.3072 5.1534 -5.1534Z"/></g></svg>