<?xml version="1.0" encoding="UTF-8"?>
<!DOCTYPE svg PUBLIC "-//W3C//DTD SVG 1.1//EN"
    "http://www.w3.org/Graphics/SVG/1.1/DTD/svg11.dtd"><svg xmlns="http://www.w3.org/2000/svg" height="512.0000" stroke-opacity="1" viewBox="0 0 512 512" font-size="1" width="512.0000" xmlns:xlink="http://www.w3.org/1999/xlink" stroke="rgb(0,0,0)" version="1.1"><defs></defs><g stroke-linejoin="miter" stroke-opacity="1.0" fill-opacity="1.0" stroke="rgb(154,231,321)" stroke-width="2.048" fill="rgb(154,231,321)" stroke-linecap="butt" stroke-miterlimit="10.0"><path d="M 512.0000,512.0000 l -0.0000,-44.5217 h -44.5217 l -0.0000,44.5217 Z"/></g><g stroke-linejoin="miter" stroke-opacity="1.0" fill-opacity="1.0" stroke="rgb(154,231,321)" stroke-width="2.048" fill="rgb(154,231,321)" stroke-linecap="butt" stroke-miterlimit="10.0"><path d="M 500.8696,489.7391 c 0.0000,-6.1472 -4.9833,-11.1304 -11.1304 -11.1304c -6.1472,-0.0000 -11.1304,4.9833 -11.1304 11.1304c -0.0000,6.1472 4.9833,11.1304 11.1304 11.1304c 6.1472,0.0000 11.1304,-4.9833 11.1304 -11.1304Z"/></g><g stroke-linejoin="miter" stroke-opacity="1.0" fill-opacity="1.0" stroke="rgb(154,231,321)" stroke-width="2.048" fill="rgb(154,231,321)" stroke-linecap="butt" stroke-miterlimit="10.0"><path d="M 445.2174,512.0000 l -0.0000,-44.5217 h -44.5217 l -0.0000,44.5217 Z"/></g><g stroke-linejoin="miter" stroke-opacity="1.0" fill-opacity="1.0" stroke="rgb(239,212,306)" stroke-width="2.048" fill="rgb(239,212,306)" stroke-linecap="butt" stroke-miterlimit="10.0"><path d="M 434.0870,489.7391 c 0.0000,-6.1472 -4.9833,-11.1304 -11.1304 -11.1304c -6.1472,-0.0000 -11.1304,4.9833 -11.1304 11.1304c -0.0000,6.1472 4.9833,11.1304 11.1304 11.1304c 6.1472,0.0000 11.1304,-4.9833 11.1304 -11.1304Z"/></g><g stroke-linejoin="miter" stroke-opacity="1.0" fill-opacity="1.0" stroke="rgb(154,231,321)" stroke-width="2.048" fill="rgb(154,231,321)" stroke-linecap="butt" stroke-miterlimit="10.0"><path d="M 378.4348,512.0000 l -0.0000,-44.5217 h -44.5217 l -0.0000,44.5217 Z"/></g><g stroke-linejoin="miter" stroke-opacity="1.0" fill-opacity="1.0" stroke="rgb(296,194,264)" stroke-width="2.048" fill="rgb(296,194,264)" stroke-linecap="butt" stroke-miterlimit="10.0"><path d="M 367.3043,489.7391 c 0.0000,-6.1472 -4.9833,-11.1304 -11.1304 -11.1304c -6.1472,-0.0000 -11.1304,4.9833 -11.1304 11.1304c -0.0000,6.1472 4.9833,11.1304 11.1304 11.1304c 6.1472,0.0000 11.1304,-4.9833 11.1304 -11.1304Z"/></g><g stroke-linejoin="miter" stroke-opacity="1.0" fill-opacity="1.0" stroke="rgb(154,231,321)" stroke-width="2.048" fill="rgb(154,231,321)" stroke-linecap="butt" stroke-miterlimit="10.0"><path d="M 311.6522,512.0000 l -0.0000,-44.5217 h -44.5217 l -0.0000,44.5217 Z"/></g><g stroke-linejoin="miter" stroke-opacity="1.0" fill-opacity="1.0" stroke="rgb(319,189,201)" stroke-width="2.048" fill="rgb(319,189,201)" stroke-linecap="butt" stroke-miterlimit="10.0"><path d="M 300.5217,489.7391 c 0.0000,-6.1472 -4.9833,-11.1304 -11.1304 -11.1304c -6.1472,-0.0000 -11.1304,4.9833 -11.1304 11.1304c -0.0000,6.1472 4.9833,11.1304 11.1304 11.1304c 6.1472,0.0000 11.1304,-4.9833 11.1304 -11.1304Z"/></g><g stroke-linejoin="miter" stroke-opacity="1.0" fill-opacity="1.0" stroke="rgb(154,231,321)" stroke-width="2.048" fill="rgb(154,231,321)" stroke-linecap="butt" stroke-miterlimit="10.0"><path d="M 244.8696,512.0000 l -0.0000,-44.5217 h -44.5217 l -0.0000,44.5217 Z"/></g><g stroke-linejoin="miter" stroke-opacity="1.0" fill-opacity="1.0" stroke="rgb(309,199,161)" stroke-width="2.048" fill="rgb(309,199,161)" stroke-linecap="butt" stroke-miterlimit="10.0"><path d="M 233.7391,489.7391 c 0.0000,-6.1472 -4.9833,-11.1304 -11.1304 -11.1304c -6.1472,-0.0000 -11.1304,4.9833 -11.1304 11.1304c -0.0000,6.1472 4.9833,11.1304 11.1304 11.1304c 6.1472,0.0000 11.1304,-4.9833 11.1304 -11.1304Z"/></g><g stroke-linejoin="miter" stroke-opacity="1.0" fill-opacity="1.0" stroke="rgb(154,231,321)" stroke-width="2.048" fill="rgb(154,231,321)" stroke-linecap="butt" stroke-miterlimit="10.0"><path d="M 178.0870,512.0000 l -0.0000,-44.5217 h -44.5217 l -0.0000,44.5217 Z"/></g><g stroke-linejoin="miter" stroke-opacity="1.0" fill-opacity="1.0" stroke="rgb(257,224,129)" stroke-width="2.048" fill="rgb(257,224,129)" stroke-linecap="butt" stroke-miterlimit="10.0"><path d="M 166.9565,489.7391 c 0.0000,-6.1472 -4.9833,-11.1304 -11.1304 -11.1304c -6.1472,-0.0000 -11.1304,4.9833 -11.1304 11.1304c -0.0000,6.1472 4.9833,11.1304 11.1304 11.1304c 6.1472,0.0000 11.1304,-4.9833 11.1304 -11.1304Z"/></g><g stroke-linejoin="miter" stroke-opacity="1.0" fill-opacity="1.0" stroke="rgb(154,231,321)" stroke-width="2.048" fill="rgb(154,231,321)" stroke-linecap="butt" stroke-miterlimit="10.0"><path d="M 111.3043,512.0000 l -0.0000,-44.5217 h -44.5217 l -0.0000,44.5217 Z"/></g><g stroke-linejoin="miter" stroke-opacity="1.0" fill-opacity="1.0" stroke="rgb(180,243,157)" stroke-width="2.048" fill="rgb(180,243,157)" stroke-linecap="butt" stroke-miterlimit="10.0"><path d="M 100.1739,489.7391 c 0.0000,-6.1472 -4.9833,-11.1304 -11.1304 -11.1304c -6.1472,-0.0000 -11.1304,4.9833 -11.1304 11.1304c -0.0000,6.1472 4.9833,11.1304 11.1304 11.1304c 6.1472,0.0000 11.1304,-4.9833 11.1304 -11.1304Z"/></g><g stroke-linejoin="miter" stroke-opacity="1.0" fill-opacity="1.0" stroke="rgb(154,231,321)" stroke-width="2.048" fill="rgb(154,231,321)" stroke-linecap="butt" stroke-miterlimit="10.0"><path d="M 44.5217,512.0000 l -0.0000,-44.5217 h -44.5217 l -0.0000,44.5217 Z"/></g><g stroke-linejoin="miter" stroke-opacity="1.0" fill-opacity="1.0" stroke="rgb(76,252,225)" stroke-width="2.048" fill="rgb(76,252,225)" stroke-linecap="butt" stroke-miterlimit="10.0"><path d="M 33.3913,489.7391 c 0.0000,-6.1472 -4.9833,-11.1304 -11.1304 -11.1304c -6.1472,-0.0000 -11.1304,4.9833 -11.1304 11.1304c -0.0000,6.1472 4.9833,11.1304 11.1304 11.1304c 6.1472,0.0000 11.1304,-4.9833 11.1304 -11.1304Z"/></g><g stroke-linejoin="miter" stroke-opacity="1.0" fill-opacity="1.0" stroke="rgb(239,212,306)" stroke-width="2.048" fill="rgb(239,212,306)" stroke-linecap="butt" stroke-miterlimit="10.0"><path d="M 512.0000,445.2174 l -0.0000,-44.5217 h -44.5217 l -0.0000,44.5217 Z"/></g><g stroke-linejoin="miter" stroke-opacity="1.0" fill-opacity="1.0" stroke="rgb(154,231,321)" stroke-width="2.048" fill="rgb(154,231,321)" stroke-linecap="butt" stroke-miterlimit="10.0"><path d="M 500.8696,422.9565 c 0.0000,-6.1472 -4.9833,-11.1304 -11.1304 -11.1304c -6.1472,-0.0000 -11.1304,4.9833 -11.1304 11.1304c -0.0000,6.1472 4.9833,11.1304 11.1304 11.1304c 6.1472,0.0000 11.1304,-4.9833 11.1304 -11.1304Z"/></g><g stroke-linejoin="miter" stroke-opacity="1.0" fill-opacity="1.0" stroke="rgb(239,212,306)" stroke-width="2.048" fill="rgb(239,212,306)" stroke-linecap="butt" stroke-miterlimit="10.0"><path d="M 445.2174,445.2174 l -0.0000,-44.5217 h -44.5217 l -0.0000,44.5217 Z"/></g><g stroke-linejoin="miter" stroke-opacity="1.0" fill-opacity="1.0" stroke="rgb(239,212,306)" stroke-width="2.048" fill="rgb(239,212,306)" stroke-linecap="butt" stroke-miterlimit="10.0"><path d="M 434.0870,422.9565 c 0.0000,-6.1472 -4.9833,-11.1304 -11.1304 -11.1304c -6.1472,-0.0000 -11.1304,4.9833 -11.1304 11.1304c -0.0000,6.1472 4.9833,11.1304 11.1304 11.1304c 6.1472,0.0000 11.1304,-4.9833 11.1304 -11.1304Z"/></g><g stroke-linejoin="miter" stroke-opacity="1.0" fill-opacity="1.0" stroke="rgb(239,212,306)" stroke-width="2.048" fill="rgb(239,212,306)" stroke-linecap="butt" stroke-miterlimit="10.0"><path d="M 378.4348,445.2174 l -0.0000,-44.5217 h -44.5217 l -0.0000,44.5217 Z"/></g><g stroke-linejoin="miter" stroke-opacity="1.0" fill-opacity="1.0" stroke="rgb(296,194,264)" stroke-width="2.048" fill="rgb(296,194,264)" stroke-linecap="butt" stroke-miterlimit="10.0"><path d="M 367.3043,422.9565 c 0.0000,-6.1472 -4.9833,-11.1304 -11.1304 -11.1304c -6.1472,-0.0000 -11.1304,4.9833 -11.1304 11.1304c -0.0000,6.1472 4.9833,11.1304 11.1304 11.1304c 6.1472,0.0000 11.1304,-4.9833 11.1304 -11.1304Z"/></g><g stroke-linejoin="miter" stroke-opacity="1.0" fill-opacity="1.0" stroke="rgb(239,212,306)" stroke-width="2.048" fill="rgb(239,212,306)" stroke-linecap="butt" stroke-miterlimit="10.0"><path d="M 311.6522,445.2174 l -0.0000,-44.5217 h -44.5217 l -0.0000,44.5217 Z"/></g><g stroke-linejoin="miter" stroke-opacity="1.0" fill-opacity="1.0" stroke="rgb(319,189,201)" stroke-width="2.048" fill="rgb(319,189,201)" stroke-linecap="butt" stroke-miterlimit="10.0"><path d="M 300.5217,422.9565 c 0.0000,-6.1472 -4.9833,-11.1304 -11.1304 -11.1304c -6.1472,-0.0000 -11.1304,4.9833 -11.1304 11.1304c -0.0000,6.1472 4.9833,11.1304 11.1304 11.1304c 6.1472,0.0000 11.1304,-4.9833 11.1304 -11.1304Z"/></g><g stroke-linejoin="miter" stroke-opacity="1.0" fill-opacity="1.0" stroke="rgb(239,212,306)" stroke-width="2.048" fill="rgb(239,212,306)" stroke-linecap="butt" stroke-miterlimit="10.0"><path d="M 244.8696,445.2174 l -0.0000,-44.5217 h -44.5217 l -0.0000,44.5217 Z"/></g><g stroke-linejoin="miter" stroke-opacity="1.0" fill-opacity="1.0" stroke="rgb(309,199,161)" stroke-width="2.048" fill="rgb(309,199,161)" stroke-linecap="butt" stroke-miterlimit="10.0"><path d="M 233.7391,422.9565 c 0.0000,-6.1472 -4.9833,-11.1304 -11.1304 -11.1304c -6.1472,-0.0000 -11.1304,4.9833 -11.1304 11.1304c -0.0000,6.1472 4.9833,11.1304 11.1304 11.1304c 6.1472,0.0000 11.1304,-4.9833 11.1304 -11.1304Z"/></g><g stroke-linejoin="miter" stroke-opacity="1.0" fill-opacity="1.0" stroke="rgb(239,212,306)" stroke-width="2.048" fill="rgb(239,212,306)" stroke-linecap="butt" stroke-miterlimit="10.0"><path d="M 178.0870,445.2174 l -0.0000,-44.5217 h -44.5217 l -0.0000,44.5217 Z"/></g><g stroke-linejoin="miter" stroke-opacity="1.0" fill-opacity="1.0" stroke="rgb(257,224,129)" stroke-width="2.048" fill="rgb(257,224,129)" stroke-linecap="butt" stroke-miterlimit="10.0"><path d="M 166.9565,422.9565 c 0.0000,-6.1472 -4.9833,-11.1304 -11.1304 -11.1304c -6.1472,-0.0000 -11.1304,4.9833 -11.1304 11.1304c -0.0000,6.1472 4.9833,11.1304 11.1304 11.1304c 6.1472,0.0000 11.1304,-4.9833 11.1304 -11.1304Z"/></g><g stroke-linejoin="miter" stroke-opacity="1.0" fill-opacity="1.0" stroke="rgb(239,212,306)" stroke-width="2.048" fill="rgb(239,212,306)" stroke-linecap="butt" stroke-miterlimit="10.0"><path d="M 111.3043,445.2174 l -0.0000,-44.5217 h -44.5217 l -0.0000,44.5217 Z"/></g><g stroke-linejoin="miter" stroke-opacity="1.0" fill-opacity="1.0" stroke="rgb(180,243,157)" stroke-width="2.048" fill="rgb(180,243,157)" stroke-linecap="butt" stroke-miterlimit="10.0"><path d="M 100.1739,422.9565 c 0.0000,-6.1472 -4.9833,-11.1304 -11.1304 -11.1304c -6.1472,-0.0000 -11.1304,4.9833 -11.1304 11.1304c -0.0000,6.1472 4.9833,11.1304 11.1304 11.1304c 6.1472,0.0000 11.1304,-4.9833 11.1304 -11.1304Z"/></g><g stroke-linejoin="miter" stroke-opacity="1.0" fill-opacity="1.0" stroke="rgb(239,212,306)" stroke-width="2.048" fill="rgb(239,212,306)" stroke-linecap="butt" stroke-miterlimit="10.0"><path d="M 44.5217,445.2174 l -0.0000,-44.5217 h -44.5217 l -0.0000,44.5217 Z"/></g><g stroke-linejoin="miter" stroke-opacity="1.0" fill-opacity="1.0" stroke="rgb(76,252,225)" stroke-width="2.048" fill="rgb(76,252,225)" stroke-linecap="butt" stroke-miterlimit="10.0"><path d="M 33.3913,422.9565 c 0.0000,-6.1472 -4.9833,-11.1304 -11.1304 -11.1304c -6.1472,-0.0000 -11.1304,4.9833 -11.1304 11.1304c -0.0000,6.1472 4.9833,11.1304 11.1304 11.1304c 6.1472,0.0000 11.1304,-4.9833 11.1304 -11.1304Z"/></g><g stroke-linejoin="miter" stroke-opacity="1.0" fill-opacity="1.0" stroke="rgb(296,194,264)" stroke-width="2.048" fill="rgb(296,194,264)" stroke-linecap="butt" stroke-miterlimit="10.0"><path d="M 512.0000,378.4348 l -0.0000,-44.5217 h -44.5217 l -0.0000,44.5217 Z"/></g><g stroke-linejoin="miter" stroke-opacity="1.0" fill-opacity="1.0" stroke="rgb(154,231,321)" stroke-width="2.048" fill="rgb(154,231,321)" stroke-linecap="butt" stroke-miterlimit="10.0"><path d="M 500.8696,356.1739 c 0.0000,-6.1472 -4.9833,-11.1304 -11.1304 -11.1304c -6.1472,-0.0000 -11.1304,4.9833 -11.1304 11.1304c -0.0000,6.1472 4.9833,11.1304 11.1304 11.1304c 6.1472,0.0000 11.1304,-4.9833 11.1304 -11.1304Z"/></g><g stroke-linejoin="miter" stroke-opacity="1.0" fill-opacity="1.0" stroke="rgb(296,194,264)" stroke-width="2.048" fill="rgb(296,194,264)" stroke-linecap="butt" stroke-miterlimit="10.0"><path d="M 445.2174,378.4348 l -0.0000,-44.5217 h -44.5217 l -0.0000,44.5217 Z"/></g><g stroke-linejoin="miter" stroke-opacity="1.0" fill-opacity="1.0" stroke="rgb(239,212,306)" stroke-width="2.048" fill="rgb(239,212,306)" stroke-linecap="butt" stroke-miterlimit="10.0"><path d="M 434.0870,356.1739 c 0.0000,-6.1472 -4.9833,-11.1304 -11.1304 -11.1304c -6.1472,-0.0000 -11.1304,4.9833 -11.1304 11.1304c -0.0000,6.1472 4.9833,11.1304 11.1304 11.1304c 6.1472,0.0000 11.1304,-4.9833 11.1304 -11.1304Z"/></g><g stroke-linejoin="miter" stroke-opacity="1.0" fill-opacity="1.0" stroke="rgb(296,194,264)" stroke-width="2.048" fill="rgb(296,194,264)" stroke-linecap="butt" stroke-miterlimit="10.0"><path d="M 378.4348,378.4348 l -0.0000,-44.5217 h -44.5217 l -0.0000,44.5217 Z"/></g><g stroke-linejoin="miter" stroke-opacity="1.0" fill-opacity="1.0" stroke="rgb(296,194,264)" stroke-width="2.048" fill="rgb(296,194,264)" stroke-linecap="butt" stroke-miterlimit="10.0"><path d="M 367.3043,356.1739 c 0.0000,-6.1472 -4.9833,-11.1304 -11.1304 -11.1304c -6.1472,-0.0000 -11.1304,4.9833 -11.1304 11.1304c -0.0000,6.1472 4.9833,11.1304 11.1304 11.1304c 6.1472,0.0000 11.1304,-4.9833 11.1304 -11.1304Z"/></g><g stroke-linejoin="miter" stroke-opacity="1.0" fill-opacity="1.0" stroke="rgb(296,194,264)" stroke-width="2.048" fill="rgb(296,194,264)" stroke-linecap="butt" stroke-miterlimit="10.0"><path d="M 311.6522,378.4348 l -0.0000,-44.5217 h -44.5217 l -0.0000,44.5217 Z"/></g><g stroke-linejoin="miter" stroke-opacity="1.0" fill-opacity="1.0" stroke="rgb(319,189,201)" stroke-width="2.048" fill="rgb(319,189,201)" stroke-linecap="butt" stroke-miterlimit="10.0"><path d="M 300.5217,356.1739 c 0.0000,-6.1472 -4.9833,-11.1304 -11.1304 -11.1304c -6.1472,-0.0000 -11.1304,4.9833 -11.1304 11.1304c -0.0000,6.1472 4.9833,11.1304 11.1304 11.1304c 6.1472,0.0000 11.1304,-4.9833 11.1304 -11.1304Z"/></g><g stroke-linejoin="miter" stroke-opacity="1.0" fill-opacity="1.0" stroke="rgb(296,194,264)" stroke-width="2.048" fill="rgb(296,194,264)" stroke-linecap="butt" stroke-miterlimit="10.0"><path d="M 244.8696,378.4348 l -0.0000,-44.5217 h -44.5217 l -0.0000,44.5217 Z"/></g><g stroke-linejoin="miter" stroke-opacity="1.0" fill-opacity="1.0" stroke="rgb(309,199,161)" stroke-width="2.048" fill="rgb(309,199,161)" stroke-linecap="butt" stroke-miterlimit="10.0"><path d="M 233.7391,356.1739 c 0.0000,-6.1472 -4.9833,-11.1304 -11.1304 -11.1304c -6.1472,-0.0000 -11.1304,4.9833 -11.1304 11.1304c -0.0000,6.1472 4.9833,11.1304 11.1304 11.1304c 6.1472,0.0000 11.1304,-4.9833 11.1304 -11.1304Z"/></g><g stroke-linejoin="miter" stroke-opacity="1.0" fill-opacity="1.0" stroke="rgb(296,194,264)" stroke-width="2.048" fill="rgb(296,194,264)" stroke-linecap="butt" stroke-miterlimit="10.0"><path d="M 178.0870,378.4348 l -0.0000,-44.5217 h -44.5217 l -0.0000,44.5217 Z"/></g><g stroke-linejoin="miter" stroke-opacity="1.0" fill-opacity="1.0" stroke="rgb(257,224,129)" stroke-width="2.048" fill="rgb(257,224,129)" stroke-linecap="butt" stroke-miterlimit="10.0"><path d="M 166.9565,356.1739 c 0.0000,-6.1472 -4.9833,-11.1304 -11.1304 -11.1304c -6.1472,-0.0000 -11.1304,4.9833 -11.1304 11.1304c -0.0000,6.1472 4.9833,11.1304 11.1304 11.1304c 6.1472,0.0000 11.1304,-4.9833 11.1304 -11.1304Z"/></g><g stroke-linejoin="miter" stroke-opacity="1.0" fill-opacity="1.0" stroke="rgb(296,194,264)" stroke-width="2.048" fill="rgb(296,194,264)" stroke-linecap="butt" stroke-miterlimit="10.0"><path d="M 111.3043,378.4348 l -0.0000,-44.5217 h -44.5217 l -0.0000,44.5217 Z"/></g><g stroke-linejoin="miter" stroke-opacity="1.0" fill-opacity="1.0" stroke="rgb(180,243,157)" stroke-width="2.048" fill="rgb(180,243,157)" stroke-linecap="butt" stroke-miterlimit="10.0"><path d="M 100.1739,356.1739 c 0.0000,-6.1472 -4.9833,-11.1304 -11.1304 -11.1304c -6.1472,-0.0000 -11.1304,4.9833 -11.1304 11.1304c -0.0000,6.1472 4.9833,11.1304 11.1304 11.1304c 6.1472,0.0000 11.1304,-4.9833 11.1304 -11.1304Z"/></g><g stroke-linejoin="miter" stroke-opacity="1.0" fill-opacity="1.0" stroke="rgb(296,194,264)" stroke-width="2.048" fill="rgb(296,194,264)" stroke-linecap="butt" stroke-miterlimit="10.0"><path d="M 44.5217,378.4348 l -0.0000,-44.5217 h -44.5217 l -0.0000,44.5217 Z"/></g><g stroke-linejoin="miter" stroke-opacity="1.0" fill-opacity="1.0" stroke="rgb(76,252,225)" stroke-width="2.048" fill="rgb(76,252,225)" stroke-linecap="butt" stroke-miterlimit="10.0"><path d="M 33.3913,356.1739 c 0.0000,-6.1472 -4.9833,-11.1304 -11.1304 -11.1304c -6.1472,-0.0000 -11.1304,4.9833 -11.1304 11.1304c -0.0000,6.1472 4.9833,11.1304 11.1304 11.1304c 6.1472,0.0000 11.1304,-4.9833 11.1304 -11.1304Z"/></g><g stroke-linejoin="miter" stroke-opacity="1.0" fill-opacity="1.0" stroke="rgb(319,189,201)" stroke-width="2.048" fill="rgb(319,189,201)" stroke-linecap="butt" stroke-miterlimit="10.0"><path d="M 512.0000,311.6522 l -0.0000,-44.5217 h -44.5217 l -0.0000,44.5217 Z"/></g><g stroke-linejoin="miter" stroke-opacity="1.0" fill-opacity="1.0" stroke="rgb(154,231,321)" stroke-width="2.048" fill="rgb(154,231,321)" stroke-linecap="butt" stroke-miterlimit="10.0"><path d="M 500.8696,289.3913 c 0.0000,-6.1472 -4.9833,-11.1304 -11.1304 -11.1304c -6.1472,-0.0000 -11.1304,4.9833 -11.1304 11.1304c -0.0000,6.1472 4.9833,11.1304 11.1304 11.1304c 6.1472,0.0000 11.1304,-4.9833 11.1304 -11.1304Z"/></g><g stroke-linejoin="miter" stroke-opacity="1.0" fill-opacity="1.0" stroke="rgb(319,189,201)" stroke-width="2.048" fill="rgb(319,189,201)" stroke-linecap="butt" stroke-miterlimit="10.0"><path d="M 445.2174,311.6522 l -0.0000,-44.5217 h -44.5217 l -0.0000,44.5217 Z"/></g><g stroke-linejoin="miter" stroke-opacity="1.0" fill-opacity="1.0" stroke="rgb(239,212,306)" stroke-width="2.048" fill="rgb(239,212,306)" stroke-linecap="butt" stroke-miterlimit="10.0"><path d="M 434.0870,289.3913 c 0.0000,-6.1472 -4.9833,-11.1304 -11.1304 -11.1304c -6.1472,-0.0000 -11.1304,4.9833 -11.1304 11.1304c -0.0000,6.1472 4.9833,11.1304 11.1304 11.1304c 6.1472,0.0000 11.1304,-4.9833 11.1304 -11.1304Z"/></g><g stroke-linejoin="miter" stroke-opacity="1.0" fill-opacity="1.0" stroke="rgb(319,189,201)" stroke-width="2.048" fill="rgb(319,189,201)" stroke-linecap="butt" stroke-miterlimit="10.0"><path d="M 378.4348,311.6522 l -0.0000,-44.5217 h -44.5217 l -0.0000,44.5217 Z"/></g><g stroke-linejoin="miter" stroke-opacity="1.0" fill-opacity="1.0" stroke="rgb(296,194,264)" stroke-width="2.048" fill="rgb(296,194,264)" stroke-linecap="butt" stroke-miterlimit="10.0"><path d="M 367.3043,289.3913 c 0.0000,-6.1472 -4.9833,-11.1304 -11.1304 -11.1304c -6.1472,-0.0000 -11.1304,4.9833 -11.1304 11.1304c -0.0000,6.1472 4.9833,11.1304 11.1304 11.1304c 6.1472,0.0000 11.1304,-4.9833 11.1304 -11.1304Z"/></g><g stroke-linejoin="miter" stroke-opacity="1.0" fill-opacity="1.0" stroke="rgb(319,189,201)" stroke-width="2.048" fill="rgb(319,189,201)" stroke-linecap="butt" stroke-miterlimit="10.0"><path d="M 311.6522,311.6522 l -0.0000,-44.5217 h -44.5217 l -0.0000,44.5217 Z"/></g><g stroke-linejoin="miter" stroke-opacity="1.0" fill-opacity="1.0" stroke="rgb(319,189,201)" stroke-width="2.048" fill="rgb(319,189,201)" stroke-linecap="butt" stroke-miterlimit="10.0"><path d="M 300.5217,289.3913 c 0.0000,-6.1472 -4.9833,-11.1304 -11.1304 -11.1304c -6.1472,-0.0000 -11.1304,4.9833 -11.1304 11.1304c -0.0000,6.1472 4.9833,11.1304 11.1304 11.1304c 6.1472,0.0000 11.1304,-4.9833 11.1304 -11.1304Z"/></g><g stroke-linejoin="miter" stroke-opacity="1.0" fill-opacity="1.0" stroke="rgb(319,189,201)" stroke-width="2.048" fill="rgb(319,189,201)" stroke-linecap="butt" stroke-miterlimit="10.0"><path d="M 244.8696,311.6522 l -0.0000,-44.5217 h -44.5217 l -0.0000,44.5217 Z"/></g><g stroke-linejoin="miter" stroke-opacity="1.0" fill-opacity="1.0" stroke="rgb(309,199,161)" stroke-width="2.048" fill="rgb(309,199,161)" stroke-linecap="butt" stroke-miterlimit="10.0"><path d="M 233.7391,289.3913 c 0.0000,-6.1472 -4.9833,-11.1304 -11.1304 -11.1304c -6.1472,-0.0000 -11.1304,4.9833 -11.1304 11.1304c -0.0000,6.1472 4.9833,11.1304 11.1304 11.1304c 6.1472,0.0000 11.1304,-4.9833 11.1304 -11.1304Z"/></g><g stroke-linejoin="miter" stroke-opacity="1.0" fill-opacity="1.0" stroke="rgb(319,189,201)" stroke-width="2.048" fill="rgb(319,189,201)" stroke-linecap="butt" stroke-miterlimit="10.0"><path d="M 178.0870,311.6522 l -0.0000,-44.5217 h -44.5217 l -0.0000,44.5217 Z"/></g><g stroke-linejoin="miter" stroke-opacity="1.0" fill-opacity="1.0" stroke="rgb(257,224,129)" stroke-width="2.048" fill="rgb(257,224,129)" stroke-linecap="butt" stroke-miterlimit="10.0"><path d="M 166.9565,289.3913 c 0.0000,-6.1472 -4.9833,-11.1304 -11.1304 -11.1304c -6.1472,-0.0000 -11.1304,4.9833 -11.1304 11.1304c -0.0000,6.1472 4.9833,11.1304 11.1304 11.1304c 6.1472,0.0000 11.1304,-4.9833 11.1304 -11.1304Z"/></g><g stroke-linejoin="miter" stroke-opacity="1.0" fill-opacity="1.0" stroke="rgb(319,189,201)" stroke-width="2.048" fill="rgb(319,189,201)" stroke-linecap="butt" stroke-miterlimit="10.0"><path d="M 111.3043,311.6522 l -0.0000,-44.5217 h -44.5217 l -0.0000,44.5217 Z"/></g><g stroke-linejoin="miter" stroke-opacity="1.0" fill-opacity="1.0" stroke="rgb(180,243,157)" stroke-width="2.048" fill="rgb(180,243,157)" stroke-linecap="butt" stroke-miterlimit="10.0"><path d="M 100.1739,289.3913 c 0.0000,-6.1472 -4.9833,-11.1304 -11.1304 -11.1304c -6.1472,-0.0000 -11.1304,4.9833 -11.1304 11.1304c -0.0000,6.1472 4.9833,11.1304 11.1304 11.1304c 6.1472,0.0000 11.1304,-4.9833 11.1304 -11.1304Z"/></g><g stroke-linejoin="miter" stroke-opacity="1.0" fill-opacity="1.0" stroke="rgb(319,189,201)" stroke-width="2.048" fill="rgb(319,189,201)" stroke-linecap="butt" stroke-miterlimit="10.0"><path d="M 44.5217,311.6522 l -0.0000,-44.5217 h -44.5217 l -0.0000,44.5217 Z"/></g><g stroke-linejoin="miter" stroke-opacity="1.0" fill-opacity="1.0" stroke="rgb(76,252,225)" stroke-width="2.048" fill="rgb(76,252,225)" stroke-linecap="butt" stroke-miterlimit="10.0"><path d="M 33.3913,289.3913 c 0.0000,-6.1472 -4.9833,-11.1304 -11.1304 -11.1304c -6.1472,-0.0000 -11.1304,4.9833 -11.1304 11.1304c -0.0000,6.1472 4.9833,11.1304 11.1304 11.1304c 6.1472,0.0000 11.1304,-4.9833 11.1304 -11.1304Z"/></g><g stroke-linejoin="miter" stroke-opacity="1.0" fill-opacity="1.0" stroke="rgb(309,199,161)" stroke-width="2.048" fill="rgb(309,199,161)" stroke-linecap="butt" stroke-miterlimit="10.0"><path d="M 512.0000,244.8696 l -0.0000,-44.5217 h -44.5217 l -0.0000,44.5217 Z"/></g><g stroke-linejoin="miter" stroke-opacity="1.0" fill-opacity="1.0" stroke="rgb(154,231,321)" stroke-width="2.048" fill="rgb(154,231,321)" stroke-linecap="butt" stroke-miterlimit="10.0"><path d="M 500.8696,222.6087 c 0.0000,-6.1472 -4.9833,-11.1304 -11.1304 -11.1304c -6.1472,-0.0000 -11.1304,4.9833 -11.1304 11.1304c -0.0000,6.1472 4.9833,11.1304 11.1304 11.1304c 6.1472,0.0000 11.1304,-4.9833 11.1304 -11.1304Z"/></g><g stroke-linejoin="miter" stroke-opacity="1.0" fill-opacity="1.0" stroke="rgb(309,199,161)" stroke-width="2.048" fill="rgb(309,199,161)" stroke-linecap="butt" stroke-miterlimit="10.0"><path d="M 445.2174,244.8696 l -0.0000,-44.5217 h -44.5217 l -0.0000,44.5217 Z"/></g><g stroke-linejoin="miter" stroke-opacity="1.0" fill-opacity="1.0" stroke="rgb(239,212,306)" stroke-width="2.048" fill="rgb(239,212,306)" stroke-linecap="butt" stroke-miterlimit="10.0"><path d="M 434.0870,222.6087 c 0.0000,-6.1472 -4.9833,-11.1304 -11.1304 -11.1304c -6.1472,-0.0000 -11.1304,4.9833 -11.1304 11.1304c -0.0000,6.1472 4.9833,11.1304 11.1304 11.1304c 6.1472,0.0000 11.1304,-4.9833 11.1304 -11.1304Z"/></g><g stroke-linejoin="miter" stroke-opacity="1.0" fill-opacity="1.0" stroke="rgb(309,199,161)" stroke-width="2.048" fill="rgb(309,199,161)" stroke-linecap="butt" stroke-miterlimit="10.0"><path d="M 378.4348,244.8696 l -0.0000,-44.5217 h -44.5217 l -0.0000,44.5217 Z"/></g><g stroke-linejoin="miter" stroke-opacity="1.0" fill-opacity="1.0" stroke="rgb(296,194,264)" stroke-width="2.048" fill="rgb(296,194,264)" stroke-linecap="butt" stroke-miterlimit="10.0"><path d="M 367.3043,222.6087 c 0.0000,-6.1472 -4.9833,-11.1304 -11.1304 -11.1304c -6.1472,-0.0000 -11.1304,4.9833 -11.1304 11.1304c -0.0000,6.1472 4.9833,11.1304 11.1304 11.1304c 6.1472,0.0000 11.1304,-4.9833 11.1304 -11.1304Z"/></g><g stroke-linejoin="miter" stroke-opacity="1.0" fill-opacity="1.0" stroke="rgb(309,199,161)" stroke-width="2.048" fill="rgb(309,199,161)" stroke-linecap="butt" stroke-miterlimit="10.0"><path d="M 311.6522,244.8696 l -0.0000,-44.5217 h -44.5217 l -0.0000,44.5217 Z"/></g><g stroke-linejoin="miter" stroke-opacity="1.0" fill-opacity="1.0" stroke="rgb(319,189,201)" stroke-width="2.048" fill="rgb(319,189,201)" stroke-linecap="butt" stroke-miterlimit="10.0"><path d="M 300.5217,222.6087 c 0.0000,-6.1472 -4.9833,-11.1304 -11.1304 -11.1304c -6.1472,-0.0000 -11.1304,4.9833 -11.1304 11.1304c -0.0000,6.1472 4.9833,11.1304 11.1304 11.1304c 6.1472,0.0000 11.1304,-4.9833 11.1304 -11.1304Z"/></g><g stroke-linejoin="miter" stroke-opacity="1.0" fill-opacity="1.0" stroke="rgb(309,199,161)" stroke-width="2.048" fill="rgb(309,199,161)" stroke-linecap="butt" stroke-miterlimit="10.0"><path d="M 244.8696,244.8696 l -0.0000,-44.5217 h -44.5217 l -0.0000,44.5217 Z"/></g><g stroke-linejoin="miter" stroke-opacity="1.0" fill-opacity="1.0" stroke="rgb(309,199,161)" stroke-width="2.048" fill="rgb(309,199,161)" stroke-linecap="butt" stroke-miterlimit="10.0"><path d="M 233.7391,222.6087 c 0.0000,-6.1472 -4.9833,-11.1304 -11.1304 -11.1304c -6.1472,-0.0000 -11.1304,4.9833 -11.1304 11.1304c -0.0000,6.1472 4.9833,11.1304 11.1304 11.1304c 6.1472,0.0000 11.1304,-4.9833 11.1304 -11.1304Z"/></g><g stroke-linejoin="miter" stroke-opacity="1.0" fill-opacity="1.0" stroke="rgb(309,199,161)" stroke-width="2.048" fill="rgb(309,199,161)" stroke-linecap="butt" stroke-miterlimit="10.0"><path d="M 178.0870,244.8696 l -0.0000,-44.5217 h -44.5217 l -0.0000,44.5217 Z"/></g><g stroke-linejoin="miter" stroke-opacity="1.0" fill-opacity="1.0" stroke="rgb(257,224,129)" stroke-width="2.048" fill="rgb(257,224,129)" stroke-linecap="butt" stroke-miterlimit="10.0"><path d="M 166.9565,222.6087 c 0.0000,-6.1472 -4.9833,-11.1304 -11.1304 -11.1304c -6.1472,-0.0000 -11.1304,4.9833 -11.1304 11.1304c -0.0000,6.1472 4.9833,11.1304 11.1304 11.1304c 6.1472,0.0000 11.1304,-4.9833 11.1304 -11.1304Z"/></g><g stroke-linejoin="miter" stroke-opacity="1.0" fill-opacity="1.0" stroke="rgb(309,199,161)" stroke-width="2.048" fill="rgb(309,199,161)" stroke-linecap="butt" stroke-miterlimit="10.0"><path d="M 111.3043,244.8696 l -0.0000,-44.5217 h -44.5217 l -0.0000,44.5217 Z"/></g><g stroke-linejoin="miter" stroke-opacity="1.0" fill-opacity="1.0" stroke="rgb(180,243,157)" stroke-width="2.048" fill="rgb(180,243,157)" stroke-linecap="butt" stroke-miterlimit="10.0"><path d="M 100.1739,222.6087 c 0.0000,-6.1472 -4.9833,-11.1304 -11.1304 -11.1304c -6.1472,-0.0000 -11.1304,4.9833 -11.1304 11.1304c -0.0000,6.1472 4.9833,11.1304 11.1304 11.1304c 6.1472,0.0000 11.1304,-4.9833 11.1304 -11.1304Z"/></g><g stroke-linejoin="miter" stroke-opacity="1.0" fill-opacity="1.0" stroke="rgb(309,199,161)" stroke-width="2.048" fill="rgb(309,199,161)" stroke-linecap="butt" stroke-miterlimit="10.0"><path d="M 44.5217,244.8696 l -0.0000,-44.5217 h -44.5217 l -0.0000,44.5217 Z"/></g><g stroke-linejoin="miter" stroke-opacity="1.0" fill-opacity="1.0" stroke="rgb(76,252,225)" stroke-width="2.048" fill="rgb(76,252,225)" stroke-linecap="butt" stroke-miterlimit="10.0"><path d="M 33.3913,222.6087 c 0.0000,-6.1472 -4.9833,-11.1304 -11.1304 -11.1304c -6.1472,-0.0000 -11.1304,4.9833 -11.1304 11.1304c -0.0000,6.1472 4.9833,11.1304 11.1304 11.1304c 6.1472,0.0000 11.1304,-4.9833 11.1304 -11.1304Z"/></g><g stroke-linejoin="miter" stroke-opacity="1.0" fill-opacity="1.0" stroke="rgb(257,224,129)" stroke-width="2.048" fill="rgb(257,224,129)" stroke-linecap="butt" stroke-miterlimit="10.0"><path d="M 512.0000,178.0870 l -0.0000,-44.5217 h -44.5217 l -0.0000,44.5217 Z"/></g><g stroke-linejoin="miter" stroke-opacity="1.0" fill-opacity="1.0" stroke="rgb(154,231,321)" stroke-width="2.048" fill="rgb(154,231,321)" stroke-linecap="butt" stroke-miterlimit="10.0"><path d="M 500.8696,155.8261 c 0.0000,-6.1472 -4.9833,-11.1304 -11.1304 -11.1304c -6.1472,-0.0000 -11.1304,4.9833 -11.1304 11.1304c -0.0000,6.1472 4.9833,11.1304 11.1304 11.1304c 6.1472,0.0000 11.1304,-4.9833 11.1304 -11.1304Z"/></g><g stroke-linejoin="miter" stroke-opacity="1.0" fill-opacity="1.0" stroke="rgb(257,224,129)" stroke-width="2.048" fill="rgb(257,224,129)" stroke-linecap="butt" stroke-miterlimit="10.0"><path d="M 445.2174,178.0870 l -0.0000,-44.5217 h -44.5217 l -0.0000,44.5217 Z"/></g><g stroke-linejoin="miter" stroke-opacity="1.0" fill-opacity="1.0" stroke="rgb(239,212,306)" stroke-width="2.048" fill="rgb(239,212,306)" stroke-linecap="butt" stroke-miterlimit="10.0"><path d="M 434.0870,155.8261 c 0.0000,-6.1472 -4.9833,-11.1304 -11.1304 -11.1304c -6.1472,-0.0000 -11.1304,4.9833 -11.1304 11.1304c -0.0000,6.1472 4.9833,11.1304 11.1304 11.1304c 6.1472,0.0000 11.1304,-4.9833 11.1304 -11.1304Z"/></g><g stroke-linejoin="miter" stroke-opacity="1.0" fill-opacity="1.0" stroke="rgb(257,224,129)" stroke-width="2.048" fill="rgb(257,224,129)" stroke-linecap="butt" stroke-miterlimit="10.0"><path d="M 378.4348,178.0870 l -0.0000,-44.5217 h -44.5217 l -0.0000,44.5217 Z"/></g><g stroke-linejoin="miter" stroke-opacity="1.0" fill-opacity="1.0" stroke="rgb(296,194,264)" stroke-width="2.048" fill="rgb(296,194,264)" stroke-linecap="butt" stroke-miterlimit="10.0"><path d="M 367.3043,155.8261 c 0.0000,-6.1472 -4.9833,-11.1304 -11.1304 -11.1304c -6.1472,-0.0000 -11.1304,4.9833 -11.1304 11.1304c -0.0000,6.1472 4.9833,11.1304 11.1304 11.1304c 6.1472,0.0000 11.1304,-4.9833 11.1304 -11.1304Z"/></g><g stroke-linejoin="miter" stroke-opacity="1.0" fill-opacity="1.0" stroke="rgb(257,224,129)" stroke-width="2.048" fill="rgb(257,224,129)" stroke-linecap="butt" stroke-miterlimit="10.0"><path d="M 311.6522,178.0870 l -0.0000,-44.5217 h -44.5217 l -0.0000,44.5217 Z"/></g><g stroke-linejoin="miter" stroke-opacity="1.0" fill-opacity="1.0" stroke="rgb(319,189,201)" stroke-width="2.048" fill="rgb(319,189,201)" stroke-linecap="butt" stroke-miterlimit="10.0"><path d="M 300.5217,155.8261 c 0.0000,-6.1472 -4.9833,-11.1304 -11.1304 -11.1304c -6.1472,-0.0000 -11.1304,4.9833 -11.1304 11.1304c -0.0000,6.1472 4.9833,11.1304 11.1304 11.1304c 6.1472,0.0000 11.1304,-4.9833 11.1304 -11.1304Z"/></g><g stroke-linejoin="miter" stroke-opacity="1.0" fill-opacity="1.0" stroke="rgb(257,224,129)" stroke-width="2.048" fill="rgb(257,224,129)" stroke-linecap="butt" stroke-miterlimit="10.0"><path d="M 244.8696,178.0870 l -0.0000,-44.5217 h -44.5217 l -0.0000,44.5217 Z"/></g><g stroke-linejoin="miter" stroke-opacity="1.0" fill-opacity="1.0" stroke="rgb(309,199,161)" stroke-width="2.048" fill="rgb(309,199,161)" stroke-linecap="butt" stroke-miterlimit="10.0"><path d="M 233.7391,155.8261 c 0.0000,-6.1472 -4.9833,-11.1304 -11.1304 -11.1304c -6.1472,-0.0000 -11.1304,4.9833 -11.1304 11.1304c -0.0000,6.1472 4.9833,11.1304 11.1304 11.1304c 6.1472,0.0000 11.1304,-4.9833 11.1304 -11.1304Z"/></g><g stroke-linejoin="miter" stroke-opacity="1.0" fill-opacity="1.0" stroke="rgb(257,224,129)" stroke-width="2.048" fill="rgb(257,224,129)" stroke-linecap="butt" stroke-miterlimit="10.0"><path d="M 178.0870,178.0870 l -0.0000,-44.5217 h -44.5217 l -0.0000,44.5217 Z"/></g><g stroke-linejoin="miter" stroke-opacity="1.0" fill-opacity="1.0" stroke="rgb(257,224,129)" stroke-width="2.048" fill="rgb(257,224,129)" stroke-linecap="butt" stroke-miterlimit="10.0"><path d="M 166.9565,155.8261 c 0.0000,-6.1472 -4.9833,-11.1304 -11.1304 -11.1304c -6.1472,-0.0000 -11.1304,4.9833 -11.1304 11.1304c -0.0000,6.1472 4.9833,11.1304 11.1304 11.1304c 6.1472,0.0000 11.1304,-4.9833 11.1304 -11.1304Z"/></g><g stroke-linejoin="miter" stroke-opacity="1.0" fill-opacity="1.0" stroke="rgb(257,224,129)" stroke-width="2.048" fill="rgb(257,224,129)" stroke-linecap="butt" stroke-miterlimit="10.0"><path d="M 111.3043,178.0870 l -0.0000,-44.5217 h -44.5217 l -0.0000,44.5217 Z"/></g><g stroke-linejoin="miter" stroke-opacity="1.0" fill-opacity="1.0" stroke="rgb(180,243,157)" stroke-width="2.048" fill="rgb(180,243,157)" stroke-linecap="butt" stroke-miterlimit="10.0"><path d="M 100.1739,155.8261 c 0.0000,-6.1472 -4.9833,-11.1304 -11.1304 -11.1304c -6.1472,-0.0000 -11.1304,4.9833 -11.1304 11.1304c -0.0000,6.1472 4.9833,11.1304 11.1304 11.1304c 6.1472,0.0000 11.1304,-4.9833 11.1304 -11.1304Z"/></g><g stroke-linejoin="miter" stroke-opacity="1.0" fill-opacity="1.0" stroke="rgb(257,224,129)" stroke-width="2.048" fill="rgb(257,224,129)" stroke-linecap="butt" stroke-miterlimit="10.0"><path d="M 44.5217,178.0870 l -0.0000,-44.5217 h -44.5217 l -0.0000,44.5217 Z"/></g><g stroke-linejoin="miter" stroke-opacity="1.0" fill-opacity="1.0" stroke="rgb(76,252,225)" stroke-width="2.048" fill="rgb(76,252,225)" stroke-linecap="butt" stroke-miterlimit="10.0"><path d="M 33.3913,155.8261 c 0.0000,-6.1472 -4.9833,-11.1304 -11.1304 -11.1304c -6.1472,-0.0000 -11.1304,4.9833 -11.1304 11.1304c -0.0000,6.1472 4.9833,11.1304 11.1304 11.1304c 6.1472,0.0000 11.1304,-4.9833 11.1304 -11.1304Z"/></g><g stroke-linejoin="miter" stroke-opacity="1.0" fill-opacity="1.0" stroke="rgb(180,243,157)" stroke-width="2.048" fill="rgb(180,243,157)" stroke-linecap="butt" stroke-miterlimit="10.0"><path d="M 512.0000,111.3043 l -0.0000,-44.5217 h -44.5217 l -0.0000,44.5217 Z"/></g><g stroke-linejoin="miter" stroke-opacity="1.0" fill-opacity="1.0" stroke="rgb(154,231,321)" stroke-width="2.048" fill="rgb(154,231,321)" stroke-linecap="butt" stroke-miterlimit="10.0"><path d="M 500.8696,89.0435 c 0.0000,-6.1472 -4.9833,-11.1304 -11.1304 -11.1304c -6.1472,-0.0000 -11.1304,4.9833 -11.1304 11.1304c -0.0000,6.1472 4.9833,11.1304 11.1304 11.1304c 6.1472,0.0000 11.1304,-4.9833 11.1304 -11.1304Z"/></g><g stroke-linejoin="miter" stroke-opacity="1.0" fill-opacity="1.0" stroke="rgb(180,243,157)" stroke-width="2.048" fill="rgb(180,243,157)" stroke-linecap="butt" stroke-miterlimit="10.0"><path d="M 445.2174,111.3043 l -0.0000,-44.5217 h -44.5217 l -0.0000,44.5217 Z"/></g><g stroke-linejoin="miter" stroke-opacity="1.0" fill-opacity="1.0" stroke="rgb(239,212,306)" stroke-width="2.048" fill="rgb(239,212,306)" stroke-linecap="butt" stroke-miterlimit="10.0"><path d="M 434.0870,89.0435 c 0.0000,-6.1472 -4.9833,-11.1304 -11.1304 -11.1304c -6.1472,-0.0000 -11.1304,4.9833 -11.1304 11.1304c -0.0000,6.1472 4.9833,11.1304 11.1304 11.1304c 6.1472,0.0000 11.1304,-4.9833 11.1304 -11.1304Z"/></g><g stroke-linejoin="miter" stroke-opacity="1.0" fill-opacity="1.0" stroke="rgb(180,243,157)" stroke-width="2.048" fill="rgb(180,243,157)" stroke-linecap="butt" stroke-miterlimit="10.0"><path d="M 378.4348,111.3043 l -0.0000,-44.5217 h -44.5217 l -0.0000,44.5217 Z"/></g><g stroke-linejoin="miter" stroke-opacity="1.0" fill-opacity="1.0" stroke="rgb(296,194,264)" stroke-width="2.048" fill="rgb(296,194,264)" stroke-linecap="butt" stroke-miterlimit="10.0"><path d="M 367.3043,89.0435 c 0.0000,-6.1472 -4.9833,-11.1304 -11.1304 -11.1304c -6.1472,-0.0000 -11.1304,4.9833 -11.1304 11.1304c -0.0000,6.1472 4.9833,11.1304 11.1304 11.1304c 6.1472,0.0000 11.1304,-4.9833 11.1304 -11.1304Z"/></g><g stroke-linejoin="miter" stroke-opacity="1.0" fill-opacity="1.0" stroke="rgb(180,243,157)" stroke-width="2.048" fill="rgb(180,243,157)" stroke-linecap="butt" stroke-miterlimit="10.0"><path d="M 311.6522,111.3043 l -0.0000,-44.5217 h -44.5217 l -0.0000,44.5217 Z"/></g><g stroke-linejoin="miter" stroke-opacity="1.0" fill-opacity="1.0" stroke="rgb(319,189,201)" stroke-width="2.048" fill="rgb(319,189,201)" stroke-linecap="butt" stroke-miterlimit="10.0"><path d="M 300.5217,89.0435 c 0.0000,-6.1472 -4.9833,-11.1304 -11.1304 -11.1304c -6.1472,-0.0000 -11.1304,4.9833 -11.1304 11.1304c -0.0000,6.1472 4.9833,11.1304 11.1304 11.1304c 6.1472,0.0000 11.1304,-4.9833 11.1304 -11.1304Z"/></g><g stroke-linejoin="miter" stroke-opacity="1.0" fill-opacity="1.0" stroke="rgb(180,243,157)" stroke-width="2.048" fill="rgb(180,243,157)" stroke-linecap="butt" stroke-miterlimit="10.0"><path d="M 244.8696,111.3043 l -0.0000,-44.5217 h -44.5217 l -0.0000,44.5217 Z"/></g><g stroke-linejoin="miter" stroke-opacity="1.0" fill-opacity="1.0" stroke="rgb(309,199,161)" stroke-width="2.048" fill="rgb(309,199,161)" stroke-linecap="butt" stroke-miterlimit="10.0"><path d="M 233.7391,89.0435 c 0.0000,-6.1472 -4.9833,-11.1304 -11.1304 -11.1304c -6.1472,-0.0000 -11.1304,4.9833 -11.1304 11.1304c -0.0000,6.1472 4.9833,11.1304 11.1304 11.1304c 6.1472,0.0000 11.1304,-4.9833 11.1304 -11.1304Z"/></g><g stroke-linejoin="miter" stroke-opacity="1.0" fill-opacity="1.0" stroke="rgb(180,243,157)" stroke-width="2.048" fill="rgb(180,243,157)" stroke-linecap="butt" stroke-miterlimit="10.0"><path d="M 178.0870,111.3043 l -0.0000,-44.5217 h -44.5217 l -0.0000,44.5217 Z"/></g><g stroke-linejoin="miter" stroke-opacity="1.0" fill-opacity="1.0" stroke="rgb(257,224,129)" stroke-width="2.048" fill="rgb(257,224,129)" stroke-linecap="butt" stroke-miterlimit="10.0"><path d="M 166.9565,89.0435 c 0.0000,-6.1472 -4.9833,-11.1304 -11.1304 -11.1304c -6.1472,-0.0000 -11.1304,4.9833 -11.1304 11.1304c -0.0000,6.1472 4.9833,11.1304 11.1304 11.1304c 6.1472,0.0000 11.1304,-4.9833 11.1304 -11.1304Z"/></g><g stroke-linejoin="miter" stroke-opacity="1.0" fill-opacity="1.0" stroke="rgb(180,243,157)" stroke-width="2.048" fill="rgb(180,243,157)" stroke-linecap="butt" stroke-miterlimit="10.0"><path d="M 111.3043,111.3043 l -0.0000,-44.5217 h -44.5217 l -0.0000,44.5217 Z"/></g><g stroke-linejoin="miter" stroke-opacity="1.0" fill-opacity="1.0" stroke="rgb(180,243,157)" stroke-width="2.048" fill="rgb(180,243,157)" stroke-linecap="butt" stroke-miterlimit="10.0"><path d="M 100.1739,89.0435 c 0.0000,-6.1472 -4.9833,-11.1304 -11.1304 -11.1304c -6.1472,-0.0000 -11.1304,4.9833 -11.1304 11.1304c -0.0000,6.1472 4.9833,11.1304 11.1304 11.1304c 6.1472,0.0000 11.1304,-4.9833 11.1304 -11.1304Z"/></g><g stroke-linejoin="miter" stroke-opacity="1.0" fill-opacity="1.0" stroke="rgb(180,243,157)" stroke-width="2.048" fill="rgb(180,243,157)" stroke-linecap="butt" stroke-miterlimit="10.0"><path d="M 44.5217,111.3043 l -0.0000,-44.5217 h -44.5217 l -0.0000,44.5217 Z"/></g><g stroke-linejoin="miter" stroke-opacity="1.0" fill-opacity="1.0" stroke="rgb(76,252,225)" stroke-width="2.048" fill="rgb(76,252,225)" stroke-linecap="butt" stroke-miterlimit="10.0"><path d="M 33.3913,89.0435 c 0.0000,-6.1472 -4.9833,-11.1304 -11.1304 -11.1304c -6.1472,-0.0000 -11.1304,4.9833 -11.1304 11.1304c -0.0000,6.1472 4.9833,11.1304 11.1304 11.1304c 6.1472,0.0000 11.1304,-4.9833 11.1304 -11.1304Z"/></g><g stroke-linejoin="miter" stroke-opacity="1.0" fill-opacity="1.0" stroke="rgb(76,252,225)" stroke-width="2.048" fill="rgb(76,252,225)" stroke-linecap="butt" stroke-miterlimit="10.0"><path d="M 512.0000,44.5217 l -0.0000,-44.5217 h -44.5217 l -0.0000,44.5217 Z"/></g><g stroke-linejoin="miter" stroke-opacity="1.0" fill-opacity="1.0" stroke="rgb(154,231,321)" stroke-width="2.048" fill="rgb(154,231,321)" stroke-linecap="butt" stroke-miterlimit="10.0"><path d="M 500.8696,22.2609 c 0.0000,-6.1472 -4.9833,-11.1304 -11.1304 -11.1304c -6.1472,-0.0000 -11.1304,4.9833 -11.1304 11.1304c -0.0000,6.1472 4.9833,11.1304 11.1304 11.1304c 6.1472,0.0000 11.1304,-4.9833 11.1304 -11.1304Z"/></g><g stroke-linejoin="miter" stroke-opacity="1.0" fill-opacity="1.0" stroke="rgb(76,252,225)" stroke-width="2.048" fill="rgb(76,252,225)" stroke-linecap="butt" stroke-miterlimit="10.0"><path d="M 445.2174,44.5217 l -0.0000,-44.5217 h -44.5217 l -0.0000,44.5217 Z"/></g><g stroke-linejoin="miter" stroke-opacity="1.0" fill-opacity="1.0" stroke="rgb(239,212,306)" stroke-width="2.048" fill="rgb(239,212,306)" stroke-linecap="butt" stroke-miterlimit="10.0"><path d="M 434.0870,22.2609 c 0.0000,-6.1472 -4.9833,-11.1304 -11.1304 -11.1304c -6.1472,-0.0000 -11.1304,4.9833 -11.1304 11.1304c -0.0000,6.1472 4.9833,11.1304 11.1304 11.1304c 6.1472,0.0000 11.1304,-4.9833 11.1304 -11.1304Z"/></g><g stroke-linejoin="miter" stroke-opacity="1.0" fill-opacity="1.0" stroke="rgb(76,252,225)" stroke-width="2.048" fill="rgb(76,252,225)" stroke-linecap="butt" stroke-miterlimit="10.0"><path d="M 378.4348,44.5217 l -0.0000,-44.5217 h -44.5217 l -0.0000,44.5217 Z"/></g><g stroke-linejoin="miter" stroke-opacity="1.0" fill-opacity="1.0" stroke="rgb(296,194,264)" stroke-width="2.048" fill="rgb(296,194,264)" stroke-linecap="butt" stroke-miterlimit="10.0"><path d="M 367.3043,22.2609 c 0.0000,-6.1472 -4.9833,-11.1304 -11.1304 -11.1304c -6.1472,-0.0000 -11.1304,4.9833 -11.1304 11.1304c -0.0000,6.1472 4.9833,11.1304 11.1304 11.1304c 6.1472,0.0000 11.1304,-4.9833 11.1304 -11.1304Z"/></g><g stroke-linejoin="miter" stroke-opacity="1.0" fill-opacity="1.0" stroke="rgb(76,252,225)" stroke-width="2.048" fill="rgb(76,252,225)" stroke-linecap="butt" stroke-miterlimit="10.0"><path d="M 311.6522,44.5217 l -0.0000,-44.5217 h -44.5217 l -0.0000,44.5217 Z"/></g><g stroke-linejoin="miter" stroke-opacity="1.0" fill-opacity="1.0" stroke="rgb(319,189,201)" stroke-width="2.048" fill="rgb(319,189,201)" stroke-linecap="butt" stroke-miterlimit="10.0"><path d="M 300.5217,22.2609 c 0.0000,-6.1472 -4.9833,-11.1304 -11.1304 -11.1304c -6.1472,-0.0000 -11.1304,4.9833 -11.1304 11.1304c -0.0000,6.1472 4.9833,11.1304 11.1304 11.1304c 6.1472,0.0000 11.1304,-4.9833 11.1304 -11.1304Z"/></g><g stroke-linejoin="miter" stroke-opacity="1.0" fill-opacity="1.0" stroke="rgb(76,252,225)" stroke-width="2.048" fill="rgb(76,252,225)" stroke-linecap="butt" stroke-miterlimit="10.0"><path d="M 244.8696,44.5217 l -0.0000,-44.5217 h -44.5217 l -0.0000,44.5217 Z"/></g><g stroke-linejoin="miter" stroke-opacity="1.0" fill-opacity="1.0" stroke="rgb(309,199,161)" stroke-width="2.048" fill="rgb(309,199,161)" stroke-linecap="butt" stroke-miterlimit="10.0"><path d="M 233.7391,22.2609 c 0.0000,-6.1472 -4.9833,-11.1304 -11.1304 -11.1304c -6.1472,-0.0000 -11.1304,4.9833 -11.1304 11.1304c -0.0000,6.1472 4.9833,11.1304 11.1304 11.1304c 6.1472,0.0000 11.1304,-4.9833 11.1304 -11.1304Z"/></g><g stroke-linejoin="miter" stroke-opacity="1.0" fill-opacity="1.0" stroke="rgb(76,252,225)" stroke-width="2.048" fill="rgb(76,252,225)" stroke-linecap="butt" stroke-miterlimit="10.0"><path d="M 178.0870,44.5217 l -0.0000,-44.5217 h -44.5217 l -0.0000,44.5217 Z"/></g><g stroke-linejoin="miter" stroke-opacity="1.0" fill-opacity="1.0" stroke="rgb(257,224,129)" stroke-width="2.048" fill="rgb(257,224,129)" stroke-linecap="butt" stroke-miterlimit="10.0"><path d="M 166.9565,22.2609 c 0.0000,-6.1472 -4.9833,-11.1304 -11.1304 -11.1304c -6.1472,-0.0000 -11.1304,4.9833 -11.1304 11.1304c -0.0000,6.1472 4.9833,11.1304 11.1304 11.1304c 6.1472,0.0000 11.1304,-4.9833 11.1304 -11.1304Z"/></g><g stroke-linejoin="miter" stroke-opacity="1.0" fill-opacity="1.0" stroke="rgb(76,252,225)" stroke-width="2.048" fill="rgb(76,252,225)" stroke-linecap="butt" stroke-miterlimit="10.0"><path d="M 111.3043,44.5217 l -0.0000,-44.5217 h -44.5217 l -0.0000,44.5217 Z"/></g><g stroke-linejoin="miter" stroke-opacity="1.0" fill-opacity="1.0" stroke="rgb(180,243,157)" stroke-width="2.048" fill="rgb(180,243,157)" stroke-linecap="butt" stroke-miterlimit="10.0"><path d="M 100.1739,22.2609 c 0.0000,-6.1472 -4.9833,-11.1304 -11.1304 -11.1304c -6.1472,-0.0000 -11.1304,4.9833 -11.1304 11.1304c -0.0000,6.1472 4.9833,11.1304 11.1304 11.1304c 6.1472,0.0000 11.1304,-4.9833 11.1304 -11.1304Z"/></g><g stroke-linejoin="miter" stroke-opacity="1.0" fill-opacity="1.0" stroke="rgb(76,252,225)" stroke-width="2.048" fill="rgb(76,252,225)" stroke-linecap="butt" stroke-miterlimit="10.0"><path d="M 44.5217,44.5217 l -0.0000,-44.5217 h -44.5217 l -0.0000,44.5217 Z"/></g><g stroke-linejoin="miter" stroke-opacity="1.0" fill-opacity="1.0" stroke="rgb(76,252,225)" stroke-width="2.048" fill="rgb(76,252,225)" stroke-linecap="butt" stroke-miterlimit="10.0"><path d="M 33.3913,22.2609 c 0.0000,-6.1472 -4.9833,-11.1304 -11.1304 -11.1304c -6.1472,-0.0000 -11.1304,4.9833 -11.1304 11.1304c -0.0000,6.1472 4.9833,11.1304 11.1304 11.1304c 6.1472,0.0000 11.1304,-4.9833 11.1304 -11.1304Z"/></g></svg>