<?xml version="1.0" encoding="UTF-8"?>
<!DOCTYPE svg PUBLIC "-//W3C//DTD SVG 1.1//EN"
    "http://www.w3.org/Graphics/SVG/1.1/DTD/svg11.dtd"><svg xmlns="http://www.w3.org/2000/svg" height="2.0000" stroke-opacity="1" viewBox="0 0 23 2" font-size="1" width="23.2132" xmlns:xlink="http://www.w3.org/1999/xlink" stroke="rgb(0,0,0)" version="1.1"><defs></defs><g stroke-linejoin="miter" stroke-opacity="1.0" fill-opacity="1.0" stroke="rgb(222,175,143)" stroke-width="0.5" fill="rgb(222,175,143)" stroke-linecap="butt" stroke-miterlimit="10.0"><path d="M 23.2132,1.0000 c 0.0000,-0.5523 -0.4477,-1.0000 -1.0000 -1.0000c -0.5523,-0.0000 -1.0000,0.4477 -1.0000 1.0000c -0.0000,0.5523 0.4477,1.0000 1.0000 1.0000c 0.5523,0.0000 1.0000,-0.4477 1.0000 -1.0000Z"/></g><g stroke-linejoin="miter" stroke-opacity="1.0" fill-opacity="1.0" stroke="rgb(225,163,238)" stroke-width="0.5" fill="rgb(225,163,238)" stroke-linecap="butt" stroke-miterlimit="10.0"><path d="M 21.7990,1.0000 c 0.0000,-0.5523 -0.4477,-1.0000 -1.0000 -1.0000c -0.5523,-0.0000 -1.0000,0.4477 -1.0000 1.0000c -0.0000,0.5523 0.4477,1.0000 1.0000 1.0000c 0.5523,0.0000 1.0000,-0.4477 1.0000 -1.0000Z"/></g><g stroke-linejoin="miter" stroke-opacity="1.0" fill-opacity="1.0" stroke="rgb(111,194,239)" stroke-width="0.5" fill="rgb(111,194,239)" stroke-linecap="butt" stroke-miterlimit="10.0"><path d="M 20.3848,1.0000 c 0.0000,-0.5523 -0.4477,-1.0000 -1.0000 -1.0000c -0.5523,-0.0000 -1.0000,0.4477 -1.0000 1.0000c -0.0000,0.5523 0.4477,1.0000 1.0000 1.0000c 0.5523,0.0000 1.0000,-0.4477 1.0000 -1.0000Z"/></g><g stroke-linejoin="miter" stroke-opacity="1.0" fill-opacity="1.0" stroke="rgb(18,207,192)" stroke-width="0.5" fill="rgb(18,207,192)" stroke-linecap="butt" stroke-miterlimit="10.0"><path d="M 18.9706,1.0000 c 0.0000,-0.5523 -0.4477,-1.0000 -1.0000 -1.0000c -0.5523,-0.0000 -1.0000,0.4477 -1.0000 1.0000c -0.0000,0.5523 0.4477,1.0000 1.0000 1.0000c 0.5523,0.0000 1.0000,-0.4477 1.0000 -1.0000Z"/></g><g stroke-linejoin="miter" stroke-opacity="1.0" fill-opacity="1.0" stroke="rgb(172,194,103)" stroke-width="0.5" fill="rgb(172,194,103)" stroke-linecap="butt" stroke-miterlimit="10.0"><path d="M 17.5563,1.0000 c 0.0000,-0.5523 -0.4477,-1.0000 -1.0000 -1.0000c -0.5523,-0.0000 -1.0000,0.4477 -1.0000 1.0000c -0.0000,0.5523 0.4477,1.0000 1.0000 1.0000c 0.5523,0.0000 1.0000,-0.4477 1.0000 -1.0000Z"/></g><g stroke-linejoin="miter" stroke-opacity="1.0" fill-opacity="1.0" stroke="rgb(221,178,111)" stroke-width="0.5" fill="rgb(221,178,111)" stroke-linecap="butt" stroke-miterlimit="10.0"><path d="M 16.1421,1.0000 c 0.0000,-0.5523 -0.4477,-1.0000 -1.0000 -1.0000c -0.5523,-0.0000 -1.0000,0.4477 -1.0000 1.0000c -0.0000,0.5523 0.4477,1.0000 1.0000 1.0000c 0.5523,0.0000 1.0000,-0.4477 1.0000 -1.0000Z"/></g><g stroke-linejoin="miter" stroke-opacity="1.0" fill-opacity="1.0" stroke="rgb(237,169,135)" stroke-width="0.5" fill="rgb(237,169,135)" stroke-linecap="butt" stroke-miterlimit="10.0"><path d="M 14.7279,1.0000 c 0.0000,-0.5523 -0.4477,-1.0000 -1.0000 -1.0000c -0.5523,-0.0000 -1.0000,0.4477 -1.0000 1.0000c -0.0000,0.5523 0.4477,1.0000 1.0000 1.0000c 0.5523,0.0000 1.0000,-0.4477 1.0000 -1.0000Z"/></g><g stroke-linejoin="miter" stroke-opacity="1.0" fill-opacity="1.0" stroke="rgb(251,159,177)" stroke-width="0.5" fill="rgb(251,159,177)" stroke-linecap="butt" stroke-miterlimit="10.0"><path d="M 13.3137,1.0000 c 0.0000,-0.5523 -0.4477,-1.0000 -1.0000 -1.0000c -0.5523,-0.0000 -1.0000,0.4477 -1.0000 1.0000c -0.0000,0.5523 0.4477,1.0000 1.0000 1.0000c 0.5523,0.0000 1.0000,-0.4477 1.0000 -1.0000Z"/></g><g stroke-linejoin="miter" stroke-opacity="1.0" fill-opacity="1.0" stroke="rgb(245,245,245)" stroke-width="0.5" fill="rgb(245,245,245)" stroke-linecap="butt" stroke-miterlimit="10.0"><path d="M 11.8995,1.0000 c 0.0000,-0.5523 -0.4477,-1.0000 -1.0000 -1.0000c -0.5523,-0.0000 -1.0000,0.4477 -1.0000 1.0000c -0.0000,0.5523 0.4477,1.0000 1.0000 1.0000c 0.5523,0.0000 1.0000,-0.4477 1.0000 -1.0000Z"/></g><g stroke-linejoin="miter" stroke-opacity="1.0" fill-opacity="1.0" stroke="rgb(224,224,224)" stroke-width="0.5" fill="rgb(224,224,224)" stroke-linecap="butt" stroke-miterlimit="10.0"><path d="M 10.4853,1.0000 c 0.0000,-0.5523 -0.4477,-1.0000 -1.0000 -1.0000c -0.5523,-0.0000 -1.0000,0.4477 -1.0000 1.0000c -0.0000,0.5523 0.4477,1.0000 1.0000 1.0000c 0.5523,0.0000 1.0000,-0.4477 1.0000 -1.0000Z"/></g><g stroke-linejoin="miter" stroke-opacity="1.0" fill-opacity="1.0" stroke="rgb(208,208,208)" stroke-width="0.5" fill="rgb(208,208,208)" stroke-linecap="butt" stroke-miterlimit="10.0"><path d="M 9.0711,1.0000 c 0.0000,-0.5523 -0.4477,-1.0000 -1.0000 -1.0000c -0.5523,-0.0000 -1.0000,0.4477 -1.0000 1.0000c -0.0000,0.5523 0.4477,1.0000 1.0000 1.0000c 0.5523,0.0000 1.0000,-0.4477 1.0000 -1.0000Z"/></g><g stroke-linejoin="miter" stroke-opacity="1.0" fill-opacity="1.0" stroke="rgb(176,176,176)" stroke-width="0.5" fill="rgb(176,176,176)" stroke-linecap="butt" stroke-miterlimit="10.0"><path d="M 7.6569,1.0000 c 0.0000,-0.5523 -0.4477,-1.0000 -1.0000 -1.0000c -0.5523,-0.0000 -1.0000,0.4477 -1.0000 1.0000c -0.0000,0.5523 0.4477,1.0000 1.0000 1.0000c 0.5523,0.0000 1.0000,-0.4477 1.0000 -1.0000Z"/></g><g stroke-linejoin="miter" stroke-opacity="1.0" fill-opacity="1.0" stroke="rgb(80,80,80)" stroke-width="0.5" fill="rgb(80,80,80)" stroke-linecap="butt" stroke-miterlimit="10.0"><path d="M 6.2426,1.0000 c 0.0000,-0.5523 -0.4477,-1.0000 -1.0000 -1.0000c -0.5523,-0.0000 -1.0000,0.4477 -1.0000 1.0000c -0.0000,0.5523 0.4477,1.0000 1.0000 1.0000c 0.5523,0.0000 1.0000,-0.4477 1.0000 -1.0000Z"/></g><g stroke-linejoin="miter" stroke-opacity="1.0" fill-opacity="1.0" stroke="rgb(48,48,48)" stroke-width="0.5" fill="rgb(48,48,48)" stroke-linecap="butt" stroke-miterlimit="10.0"><path d="M 4.8284,1.0000 c 0.0000,-0.5523 -0.4477,-1.0000 -1.0000 -1.0000c -0.5523,-0.0000 -1.0000,0.4477 -1.0000 1.0000c -0.0000,0.5523 0.4477,1.0000 1.0000 1.0000c 0.5523,0.0000 1.0000,-0.4477 1.0000 -1.0000Z"/></g><g stroke-linejoin="miter" stroke-opacity="1.0" fill-opacity="1.0" stroke="rgb(32,32,32)" stroke-width="0.5" fill="rgb(32,32,32)" stroke-linecap="butt" stroke-miterlimit="10.0"><path d="M 3.4142,1.0000 c 0.0000,-0.5523 -0.4477,-1.0000 -1.0000 -1.0000c -0.5523,-0.0000 -1.0000,0.4477 -1.0000 1.0000c -0.0000,0.5523 0.4477,1.0000 1.0000 1.0000c 0.5523,0.0000 1.0000,-0.4477 1.0000 -1.0000Z"/></g><g stroke-linejoin="miter" stroke-opacity="1.0" fill-opacity="1.0" stroke="rgb(21,21,21)" stroke-width="0.5" fill="rgb(21,21,21)" stroke-linecap="butt" stroke-miterlimit="10.0"><path d="M 2.0000,1.0000 c 0.0000,-0.5523 -0.4477,-1.0000 -1.0000 -1.0000c -0.5523,-0.0000 -1.0000,0.4477 -1.0000 1.0000c -0.0000,0.5523 0.4477,1.0000 1.0000 1.0000c 0.5523,0.0000 1.0000,-0.4477 1.0000 -1.0000Z"/></g></svg>