<?xml version="1.0" encoding="UTF-8"?>
<!DOCTYPE svg PUBLIC "-//W3C//DTD SVG 1.1//EN"
    "http://www.w3.org/Graphics/SVG/1.1/DTD/svg11.dtd"><svg xmlns="http://www.w3.org/2000/svg" height="768.0000" stroke-opacity="1" viewBox="0 0 768 768" font-size="1" width="768.0000" xmlns:xlink="http://www.w3.org/1999/xlink" stroke="rgb(0,0,0)" version="1.1"><defs></defs><g stroke-linejoin="miter" stroke-opacity="1.0" fill-opacity="1.0" stroke="rgb(222,175,143)" stroke-width="3.072" fill="rgb(222,175,143)" stroke-linecap="butt" stroke-miterlimit="10.0"><path d="M 768.0000,768.0000 l -0.0000,-32.6809 h -32.6809 l -0.0000,32.6809 Z"/></g><g stroke-linejoin="miter" stroke-opacity="1.0" fill-opacity="1.0" stroke="rgb(222,175,143)" stroke-width="3.072" fill="rgb(222,175,143)" stroke-linecap="butt" stroke-miterlimit="10.0"><path d="M 759.8298,751.6596 c 0.0000,-4.5123 -3.6579,-8.1702 -8.1702 -8.1702c -4.5123,-0.0000 -8.1702,3.6579 -8.1702 8.1702c -0.0000,4.5123 3.6579,8.1702 8.1702 8.1702c 4.5123,0.0000 8.1702,-3.6579 8.1702 -8.1702Z"/></g><g stroke-linejoin="miter" stroke-opacity="1.0" fill-opacity="1.0" stroke="rgb(225,163,238)" stroke-width="3.072" fill="rgb(225,163,238)" stroke-linecap="butt" stroke-miterlimit="10.0"><path d="M 768.0000,718.9787 l -0.0000,-32.6809 h -32.6809 l -0.0000,32.6809 Z"/></g><g stroke-linejoin="miter" stroke-opacity="1.0" fill-opacity="1.0" stroke="rgb(222,175,143)" stroke-width="3.072" fill="rgb(222,175,143)" stroke-linecap="butt" stroke-miterlimit="10.0"><path d="M 759.8298,702.6383 c 0.0000,-4.5123 -3.6579,-8.1702 -8.1702 -8.1702c -4.5123,-0.0000 -8.1702,3.6579 -8.1702 8.1702c -0.0000,4.5123 3.6579,8.1702 8.1702 8.1702c 4.5123,0.0000 8.1702,-3.6579 8.1702 -8.1702Z"/></g><g stroke-linejoin="miter" stroke-opacity="1.0" fill-opacity="1.0" stroke="rgb(225,163,238)" stroke-width="3.072" fill="rgb(225,163,238)" stroke-linecap="butt" stroke-miterlimit="10.0"><path d="M 718.9787,718.9787 l -0.0000,-32.6809 h -32.6809 l -0.0000,32.6809 Z"/></g><g stroke-linejoin="miter" stroke-opacity="1.0" fill-opacity="1.0" stroke="rgb(225,163,238)" stroke-width="3.072" fill="rgb(225,163,238)" stroke-linecap="butt" stroke-miterlimit="10.0"><path d="M 710.8085,702.6383 c 0.0000,-4.5123 -3.6579,-8.1702 -8.1702 -8.1702c -4.5123,-0.0000 -8.1702,3.6579 -8.1702 8.1702c -0.0000,4.5123 3.6579,8.1702 8.1702 8.1702c 4.5123,0.0000 8.1702,-3.6579 8.1702 -8.1702Z"/></g><g stroke-linejoin="miter" stroke-opacity="1.0" fill-opacity="1.0" stroke="rgb(111,194,239)" stroke-width="3.072" fill="rgb(111,194,239)" stroke-linecap="butt" stroke-miterlimit="10.0"><path d="M 768.0000,669.9574 l -0.0000,-32.6809 h -32.6809 l -0.0000,32.6809 Z"/></g><g stroke-linejoin="miter" stroke-opacity="1.0" fill-opacity="1.0" stroke="rgb(222,175,143)" stroke-width="3.072" fill="rgb(222,175,143)" stroke-linecap="butt" stroke-miterlimit="10.0"><path d="M 759.8298,653.6170 c 0.0000,-4.5123 -3.6579,-8.1702 -8.1702 -8.1702c -4.5123,-0.0000 -8.1702,3.6579 -8.1702 8.1702c -0.0000,4.5123 3.6579,8.1702 8.1702 8.1702c 4.5123,0.0000 8.1702,-3.6579 8.1702 -8.1702Z"/></g><g stroke-linejoin="miter" stroke-opacity="1.0" fill-opacity="1.0" stroke="rgb(111,194,239)" stroke-width="3.072" fill="rgb(111,194,239)" stroke-linecap="butt" stroke-miterlimit="10.0"><path d="M 718.9787,669.9574 l -0.0000,-32.6809 h -32.6809 l -0.0000,32.6809 Z"/></g><g stroke-linejoin="miter" stroke-opacity="1.0" fill-opacity="1.0" stroke="rgb(225,163,238)" stroke-width="3.072" fill="rgb(225,163,238)" stroke-linecap="butt" stroke-miterlimit="10.0"><path d="M 710.8085,653.6170 c 0.0000,-4.5123 -3.6579,-8.1702 -8.1702 -8.1702c -4.5123,-0.0000 -8.1702,3.6579 -8.1702 8.1702c -0.0000,4.5123 3.6579,8.1702 8.1702 8.1702c 4.5123,0.0000 8.1702,-3.6579 8.1702 -8.1702Z"/></g><g stroke-linejoin="miter" stroke-opacity="1.0" fill-opacity="1.0" stroke="rgb(111,194,239)" stroke-width="3.072" fill="rgb(111,194,239)" stroke-linecap="butt" stroke-miterlimit="10.0"><path d="M 669.9574,669.9574 l -0.0000,-32.6809 h -32.6809 l -0.0000,32.6809 Z"/></g><g stroke-linejoin="miter" stroke-opacity="1.0" fill-opacity="1.0" stroke="rgb(111,194,239)" stroke-width="3.072" fill="rgb(111,194,239)" stroke-linecap="butt" stroke-miterlimit="10.0"><path d="M 661.7872,653.6170 c 0.0000,-4.5123 -3.6579,-8.1702 -8.1702 -8.1702c -4.5123,-0.0000 -8.1702,3.6579 -8.1702 8.1702c -0.0000,4.5123 3.6579,8.1702 8.1702 8.1702c 4.5123,0.0000 8.1702,-3.6579 8.1702 -8.1702Z"/></g><g stroke-linejoin="miter" stroke-opacity="1.0" fill-opacity="1.0" stroke="rgb(18,207,192)" stroke-width="3.072" fill="rgb(18,207,192)" stroke-linecap="butt" stroke-miterlimit="10.0"><path d="M 768.0000,620.9362 l -0.0000,-32.6809 h -32.6809 l -0.0000,32.6809 Z"/></g><g stroke-linejoin="miter" stroke-opacity="1.0" fill-opacity="1.0" stroke="rgb(222,175,143)" stroke-width="3.072" fill="rgb(222,175,143)" stroke-linecap="butt" stroke-miterlimit="10.0"><path d="M 759.8298,604.5957 c 0.0000,-4.5123 -3.6579,-8.1702 -8.1702 -8.1702c -4.5123,-0.0000 -8.1702,3.6579 -8.1702 8.1702c -0.0000,4.5123 3.6579,8.1702 8.1702 8.1702c 4.5123,0.0000 8.1702,-3.6579 8.1702 -8.1702Z"/></g><g stroke-linejoin="miter" stroke-opacity="1.0" fill-opacity="1.0" stroke="rgb(18,207,192)" stroke-width="3.072" fill="rgb(18,207,192)" stroke-linecap="butt" stroke-miterlimit="10.0"><path d="M 718.9787,620.9362 l -0.0000,-32.6809 h -32.6809 l -0.0000,32.6809 Z"/></g><g stroke-linejoin="miter" stroke-opacity="1.0" fill-opacity="1.0" stroke="rgb(225,163,238)" stroke-width="3.072" fill="rgb(225,163,238)" stroke-linecap="butt" stroke-miterlimit="10.0"><path d="M 710.8085,604.5957 c 0.0000,-4.5123 -3.6579,-8.1702 -8.1702 -8.1702c -4.5123,-0.0000 -8.1702,3.6579 -8.1702 8.1702c -0.0000,4.5123 3.6579,8.1702 8.1702 8.1702c 4.5123,0.0000 8.1702,-3.6579 8.1702 -8.1702Z"/></g><g stroke-linejoin="miter" stroke-opacity="1.0" fill-opacity="1.0" stroke="rgb(18,207,192)" stroke-width="3.072" fill="rgb(18,207,192)" stroke-linecap="butt" stroke-miterlimit="10.0"><path d="M 669.9574,620.9362 l -0.0000,-32.6809 h -32.6809 l -0.0000,32.6809 Z"/></g><g stroke-linejoin="miter" stroke-opacity="1.0" fill-opacity="1.0" stroke="rgb(111,194,239)" stroke-width="3.072" fill="rgb(111,194,239)" stroke-linecap="butt" stroke-miterlimit="10.0"><path d="M 661.7872,604.5957 c 0.0000,-4.5123 -3.6579,-8.1702 -8.1702 -8.1702c -4.5123,-0.0000 -8.1702,3.6579 -8.1702 8.1702c -0.0000,4.5123 3.6579,8.1702 8.1702 8.1702c 4.5123,0.0000 8.1702,-3.6579 8.1702 -8.1702Z"/></g><g stroke-linejoin="miter" stroke-opacity="1.0" fill-opacity="1.0" stroke="rgb(18,207,192)" stroke-width="3.072" fill="rgb(18,207,192)" stroke-linecap="butt" stroke-miterlimit="10.0"><path d="M 620.9362,620.9362 l -0.0000,-32.6809 h -32.6809 l -0.0000,32.6809 Z"/></g><g stroke-linejoin="miter" stroke-opacity="1.0" fill-opacity="1.0" stroke="rgb(18,207,192)" stroke-width="3.072" fill="rgb(18,207,192)" stroke-linecap="butt" stroke-miterlimit="10.0"><path d="M 612.7660,604.5957 c 0.0000,-4.5123 -3.6579,-8.1702 -8.1702 -8.1702c -4.5123,-0.0000 -8.1702,3.6579 -8.1702 8.1702c -0.0000,4.5123 3.6579,8.1702 8.1702 8.1702c 4.5123,0.0000 8.1702,-3.6579 8.1702 -8.1702Z"/></g><g stroke-linejoin="miter" stroke-opacity="1.0" fill-opacity="1.0" stroke="rgb(172,194,103)" stroke-width="3.072" fill="rgb(172,194,103)" stroke-linecap="butt" stroke-miterlimit="10.0"><path d="M 768.0000,571.9149 l -0.0000,-32.6809 h -32.6809 l -0.0000,32.6809 Z"/></g><g stroke-linejoin="miter" stroke-opacity="1.0" fill-opacity="1.0" stroke="rgb(222,175,143)" stroke-width="3.072" fill="rgb(222,175,143)" stroke-linecap="butt" stroke-miterlimit="10.0"><path d="M 759.8298,555.5745 c 0.0000,-4.5123 -3.6579,-8.1702 -8.1702 -8.1702c -4.5123,-0.0000 -8.1702,3.6579 -8.1702 8.1702c -0.0000,4.5123 3.6579,8.1702 8.1702 8.1702c 4.5123,0.0000 8.1702,-3.6579 8.1702 -8.1702Z"/></g><g stroke-linejoin="miter" stroke-opacity="1.0" fill-opacity="1.0" stroke="rgb(172,194,103)" stroke-width="3.072" fill="rgb(172,194,103)" stroke-linecap="butt" stroke-miterlimit="10.0"><path d="M 718.9787,571.9149 l -0.0000,-32.6809 h -32.6809 l -0.0000,32.6809 Z"/></g><g stroke-linejoin="miter" stroke-opacity="1.0" fill-opacity="1.0" stroke="rgb(225,163,238)" stroke-width="3.072" fill="rgb(225,163,238)" stroke-linecap="butt" stroke-miterlimit="10.0"><path d="M 710.8085,555.5745 c 0.0000,-4.5123 -3.6579,-8.1702 -8.1702 -8.1702c -4.5123,-0.0000 -8.1702,3.6579 -8.1702 8.1702c -0.0000,4.5123 3.6579,8.1702 8.1702 8.1702c 4.5123,0.0000 8.1702,-3.6579 8.1702 -8.1702Z"/></g><g stroke-linejoin="miter" stroke-opacity="1.0" fill-opacity="1.0" stroke="rgb(172,194,103)" stroke-width="3.072" fill="rgb(172,194,103)" stroke-linecap="butt" stroke-miterlimit="10.0"><path d="M 669.9574,571.9149 l -0.0000,-32.6809 h -32.6809 l -0.0000,32.6809 Z"/></g><g stroke-linejoin="miter" stroke-opacity="1.0" fill-opacity="1.0" stroke="rgb(111,194,239)" stroke-width="3.072" fill="rgb(111,194,239)" stroke-linecap="butt" stroke-miterlimit="10.0"><path d="M 661.7872,555.5745 c 0.0000,-4.5123 -3.6579,-8.1702 -8.1702 -8.1702c -4.5123,-0.0000 -8.1702,3.6579 -8.1702 8.1702c -0.0000,4.5123 3.6579,8.1702 8.1702 8.1702c 4.5123,0.0000 8.1702,-3.6579 8.1702 -8.1702Z"/></g><g stroke-linejoin="miter" stroke-opacity="1.0" fill-opacity="1.0" stroke="rgb(172,194,103)" stroke-width="3.072" fill="rgb(172,194,103)" stroke-linecap="butt" stroke-miterlimit="10.0"><path d="M 620.9362,571.9149 l -0.0000,-32.6809 h -32.6809 l -0.0000,32.6809 Z"/></g><g stroke-linejoin="miter" stroke-opacity="1.0" fill-opacity="1.0" stroke="rgb(18,207,192)" stroke-width="3.072" fill="rgb(18,207,192)" stroke-linecap="butt" stroke-miterlimit="10.0"><path d="M 612.7660,555.5745 c 0.0000,-4.5123 -3.6579,-8.1702 -8.1702 -8.1702c -4.5123,-0.0000 -8.1702,3.6579 -8.1702 8.1702c -0.0000,4.5123 3.6579,8.1702 8.1702 8.1702c 4.5123,0.0000 8.1702,-3.6579 8.1702 -8.1702Z"/></g><g stroke-linejoin="miter" stroke-opacity="1.0" fill-opacity="1.0" stroke="rgb(172,194,103)" stroke-width="3.072" fill="rgb(172,194,103)" stroke-linecap="butt" stroke-miterlimit="10.0"><path d="M 571.9149,571.9149 l -0.0000,-32.6809 h -32.6809 l -0.0000,32.6809 Z"/></g><g stroke-linejoin="miter" stroke-opacity="1.0" fill-opacity="1.0" stroke="rgb(172,194,103)" stroke-width="3.072" fill="rgb(172,194,103)" stroke-linecap="butt" stroke-miterlimit="10.0"><path d="M 563.7447,555.5745 c 0.0000,-4.5123 -3.6579,-8.1702 -8.1702 -8.1702c -4.5123,-0.0000 -8.1702,3.6579 -8.1702 8.1702c -0.0000,4.5123 3.6579,8.1702 8.1702 8.1702c 4.5123,0.0000 8.1702,-3.6579 8.1702 -8.1702Z"/></g><g stroke-linejoin="miter" stroke-opacity="1.0" fill-opacity="1.0" stroke="rgb(221,178,111)" stroke-width="3.072" fill="rgb(221,178,111)" stroke-linecap="butt" stroke-miterlimit="10.0"><path d="M 768.0000,522.8936 l -0.0000,-32.6809 h -32.6809 l -0.0000,32.6809 Z"/></g><g stroke-linejoin="miter" stroke-opacity="1.0" fill-opacity="1.0" stroke="rgb(222,175,143)" stroke-width="3.072" fill="rgb(222,175,143)" stroke-linecap="butt" stroke-miterlimit="10.0"><path d="M 759.8298,506.5532 c 0.0000,-4.5123 -3.6579,-8.1702 -8.1702 -8.1702c -4.5123,-0.0000 -8.1702,3.6579 -8.1702 8.1702c -0.0000,4.5123 3.6579,8.1702 8.1702 8.1702c 4.5123,0.0000 8.1702,-3.6579 8.1702 -8.1702Z"/></g><g stroke-linejoin="miter" stroke-opacity="1.0" fill-opacity="1.0" stroke="rgb(221,178,111)" stroke-width="3.072" fill="rgb(221,178,111)" stroke-linecap="butt" stroke-miterlimit="10.0"><path d="M 718.9787,522.8936 l -0.0000,-32.6809 h -32.6809 l -0.0000,32.6809 Z"/></g><g stroke-linejoin="miter" stroke-opacity="1.0" fill-opacity="1.0" stroke="rgb(225,163,238)" stroke-width="3.072" fill="rgb(225,163,238)" stroke-linecap="butt" stroke-miterlimit="10.0"><path d="M 710.8085,506.5532 c 0.0000,-4.5123 -3.6579,-8.1702 -8.1702 -8.1702c -4.5123,-0.0000 -8.1702,3.6579 -8.1702 8.1702c -0.0000,4.5123 3.6579,8.1702 8.1702 8.1702c 4.5123,0.0000 8.1702,-3.6579 8.1702 -8.1702Z"/></g><g stroke-linejoin="miter" stroke-opacity="1.0" fill-opacity="1.0" stroke="rgb(221,178,111)" stroke-width="3.072" fill="rgb(221,178,111)" stroke-linecap="butt" stroke-miterlimit="10.0"><path d="M 669.9574,522.8936 l -0.0000,-32.6809 h -32.6809 l -0.0000,32.6809 Z"/></g><g stroke-linejoin="miter" stroke-opacity="1.0" fill-opacity="1.0" stroke="rgb(111,194,239)" stroke-width="3.072" fill="rgb(111,194,239)" stroke-linecap="butt" stroke-miterlimit="10.0"><path d="M 661.7872,506.5532 c 0.0000,-4.5123 -3.6579,-8.1702 -8.1702 -8.1702c -4.5123,-0.0000 -8.1702,3.6579 -8.1702 8.1702c -0.0000,4.5123 3.6579,8.1702 8.1702 8.1702c 4.5123,0.0000 8.1702,-3.6579 8.1702 -8.1702Z"/></g><g stroke-linejoin="miter" stroke-opacity="1.0" fill-opacity="1.0" stroke="rgb(221,178,111)" stroke-width="3.072" fill="rgb(221,178,111)" stroke-linecap="butt" stroke-miterlimit="10.0"><path d="M 620.9362,522.8936 l -0.0000,-32.6809 h -32.6809 l -0.0000,32.6809 Z"/></g><g stroke-linejoin="miter" stroke-opacity="1.0" fill-opacity="1.0" stroke="rgb(18,207,192)" stroke-width="3.072" fill="rgb(18,207,192)" stroke-linecap="butt" stroke-miterlimit="10.0"><path d="M 612.7660,506.5532 c 0.0000,-4.5123 -3.6579,-8.1702 -8.1702 -8.1702c -4.5123,-0.0000 -8.1702,3.6579 -8.1702 8.1702c -0.0000,4.5123 3.6579,8.1702 8.1702 8.1702c 4.5123,0.0000 8.1702,-3.6579 8.1702 -8.1702Z"/></g><g stroke-linejoin="miter" stroke-opacity="1.0" fill-opacity="1.0" stroke="rgb(221,178,111)" stroke-width="3.072" fill="rgb(221,178,111)" stroke-linecap="butt" stroke-miterlimit="10.0"><path d="M 571.9149,522.8936 l -0.0000,-32.6809 h -32.6809 l -0.0000,32.6809 Z"/></g><g stroke-linejoin="miter" stroke-opacity="1.0" fill-opacity="1.0" stroke="rgb(172,194,103)" stroke-width="3.072" fill="rgb(172,194,103)" stroke-linecap="butt" stroke-miterlimit="10.0"><path d="M 563.7447,506.5532 c 0.0000,-4.5123 -3.6579,-8.1702 -8.1702 -8.1702c -4.5123,-0.0000 -8.1702,3.6579 -8.1702 8.1702c -0.0000,4.5123 3.6579,8.1702 8.1702 8.1702c 4.5123,0.0000 8.1702,-3.6579 8.1702 -8.1702Z"/></g><g stroke-linejoin="miter" stroke-opacity="1.0" fill-opacity="1.0" stroke="rgb(221,178,111)" stroke-width="3.072" fill="rgb(221,178,111)" stroke-linecap="butt" stroke-miterlimit="10.0"><path d="M 522.8936,522.8936 l -0.0000,-32.6809 h -32.6809 l -0.0000,32.6809 Z"/></g><g stroke-linejoin="miter" stroke-opacity="1.0" fill-opacity="1.0" stroke="rgb(221,178,111)" stroke-width="3.072" fill="rgb(221,178,111)" stroke-linecap="butt" stroke-miterlimit="10.0"><path d="M 514.7234,506.5532 c 0.0000,-4.5123 -3.6579,-8.1702 -8.1702 -8.1702c -4.5123,-0.0000 -8.1702,3.6579 -8.1702 8.1702c -0.0000,4.5123 3.6579,8.1702 8.1702 8.1702c 4.5123,0.0000 8.1702,-3.6579 8.1702 -8.1702Z"/></g><g stroke-linejoin="miter" stroke-opacity="1.0" fill-opacity="1.0" stroke="rgb(237,169,135)" stroke-width="3.072" fill="rgb(237,169,135)" stroke-linecap="butt" stroke-miterlimit="10.0"><path d="M 768.0000,473.8723 l -0.0000,-32.6809 h -32.6809 l -0.0000,32.6809 Z"/></g><g stroke-linejoin="miter" stroke-opacity="1.0" fill-opacity="1.0" stroke="rgb(222,175,143)" stroke-width="3.072" fill="rgb(222,175,143)" stroke-linecap="butt" stroke-miterlimit="10.0"><path d="M 759.8298,457.5319 c 0.0000,-4.5123 -3.6579,-8.1702 -8.1702 -8.1702c -4.5123,-0.0000 -8.1702,3.6579 -8.1702 8.1702c -0.0000,4.5123 3.6579,8.1702 8.1702 8.1702c 4.5123,0.0000 8.1702,-3.6579 8.1702 -8.1702Z"/></g><g stroke-linejoin="miter" stroke-opacity="1.0" fill-opacity="1.0" stroke="rgb(237,169,135)" stroke-width="3.072" fill="rgb(237,169,135)" stroke-linecap="butt" stroke-miterlimit="10.0"><path d="M 718.9787,473.8723 l -0.0000,-32.6809 h -32.6809 l -0.0000,32.6809 Z"/></g><g stroke-linejoin="miter" stroke-opacity="1.0" fill-opacity="1.0" stroke="rgb(225,163,238)" stroke-width="3.072" fill="rgb(225,163,238)" stroke-linecap="butt" stroke-miterlimit="10.0"><path d="M 710.8085,457.5319 c 0.0000,-4.5123 -3.6579,-8.1702 -8.1702 -8.1702c -4.5123,-0.0000 -8.1702,3.6579 -8.1702 8.1702c -0.0000,4.5123 3.6579,8.1702 8.1702 8.1702c 4.5123,0.0000 8.1702,-3.6579 8.1702 -8.1702Z"/></g><g stroke-linejoin="miter" stroke-opacity="1.0" fill-opacity="1.0" stroke="rgb(237,169,135)" stroke-width="3.072" fill="rgb(237,169,135)" stroke-linecap="butt" stroke-miterlimit="10.0"><path d="M 669.9574,473.8723 l -0.0000,-32.6809 h -32.6809 l -0.0000,32.6809 Z"/></g><g stroke-linejoin="miter" stroke-opacity="1.0" fill-opacity="1.0" stroke="rgb(111,194,239)" stroke-width="3.072" fill="rgb(111,194,239)" stroke-linecap="butt" stroke-miterlimit="10.0"><path d="M 661.7872,457.5319 c 0.0000,-4.5123 -3.6579,-8.1702 -8.1702 -8.1702c -4.5123,-0.0000 -8.1702,3.6579 -8.1702 8.1702c -0.0000,4.5123 3.6579,8.1702 8.1702 8.1702c 4.5123,0.0000 8.1702,-3.6579 8.1702 -8.1702Z"/></g><g stroke-linejoin="miter" stroke-opacity="1.0" fill-opacity="1.0" stroke="rgb(237,169,135)" stroke-width="3.072" fill="rgb(237,169,135)" stroke-linecap="butt" stroke-miterlimit="10.0"><path d="M 620.9362,473.8723 l -0.0000,-32.6809 h -32.6809 l -0.0000,32.6809 Z"/></g><g stroke-linejoin="miter" stroke-opacity="1.0" fill-opacity="1.0" stroke="rgb(18,207,192)" stroke-width="3.072" fill="rgb(18,207,192)" stroke-linecap="butt" stroke-miterlimit="10.0"><path d="M 612.7660,457.5319 c 0.0000,-4.5123 -3.6579,-8.1702 -8.1702 -8.1702c -4.5123,-0.0000 -8.1702,3.6579 -8.1702 8.1702c -0.0000,4.5123 3.6579,8.1702 8.1702 8.1702c 4.5123,0.0000 8.1702,-3.6579 8.1702 -8.1702Z"/></g><g stroke-linejoin="miter" stroke-opacity="1.0" fill-opacity="1.0" stroke="rgb(237,169,135)" stroke-width="3.072" fill="rgb(237,169,135)" stroke-linecap="butt" stroke-miterlimit="10.0"><path d="M 571.9149,473.8723 l -0.0000,-32.6809 h -32.6809 l -0.0000,32.6809 Z"/></g><g stroke-linejoin="miter" stroke-opacity="1.0" fill-opacity="1.0" stroke="rgb(172,194,103)" stroke-width="3.072" fill="rgb(172,194,103)" stroke-linecap="butt" stroke-miterlimit="10.0"><path d="M 563.7447,457.5319 c 0.0000,-4.5123 -3.6579,-8.1702 -8.1702 -8.1702c -4.5123,-0.0000 -8.1702,3.6579 -8.1702 8.1702c -0.0000,4.5123 3.6579,8.1702 8.1702 8.1702c 4.5123,0.0000 8.1702,-3.6579 8.1702 -8.1702Z"/></g><g stroke-linejoin="miter" stroke-opacity="1.0" fill-opacity="1.0" stroke="rgb(237,169,135)" stroke-width="3.072" fill="rgb(237,169,135)" stroke-linecap="butt" stroke-miterlimit="10.0"><path d="M 522.8936,473.8723 l -0.0000,-32.6809 h -32.6809 l -0.0000,32.6809 Z"/></g><g stroke-linejoin="miter" stroke-opacity="1.0" fill-opacity="1.0" stroke="rgb(221,178,111)" stroke-width="3.072" fill="rgb(221,178,111)" stroke-linecap="butt" stroke-miterlimit="10.0"><path d="M 514.7234,457.5319 c 0.0000,-4.5123 -3.6579,-8.1702 -8.1702 -8.1702c -4.5123,-0.0000 -8.1702,3.6579 -8.1702 8.1702c -0.0000,4.5123 3.6579,8.1702 8.1702 8.1702c 4.5123,0.0000 8.1702,-3.6579 8.1702 -8.1702Z"/></g><g stroke-linejoin="miter" stroke-opacity="1.0" fill-opacity="1.0" stroke="rgb(237,169,135)" stroke-width="3.072" fill="rgb(237,169,135)" stroke-linecap="butt" stroke-miterlimit="10.0"><path d="M 473.8723,473.8723 l -0.0000,-32.6809 h -32.6809 l -0.0000,32.6809 Z"/></g><g stroke-linejoin="miter" stroke-opacity="1.0" fill-opacity="1.0" stroke="rgb(237,169,135)" stroke-width="3.072" fill="rgb(237,169,135)" stroke-linecap="butt" stroke-miterlimit="10.0"><path d="M 465.7021,457.5319 c 0.0000,-4.5123 -3.6579,-8.1702 -8.1702 -8.1702c -4.5123,-0.0000 -8.1702,3.6579 -8.1702 8.1702c -0.0000,4.5123 3.6579,8.1702 8.1702 8.1702c 4.5123,0.0000 8.1702,-3.6579 8.1702 -8.1702Z"/></g><g stroke-linejoin="miter" stroke-opacity="1.0" fill-opacity="1.0" stroke="rgb(251,159,177)" stroke-width="3.072" fill="rgb(251,159,177)" stroke-linecap="butt" stroke-miterlimit="10.0"><path d="M 768.0000,424.8511 l -0.0000,-32.6809 h -32.6809 l -0.0000,32.6809 Z"/></g><g stroke-linejoin="miter" stroke-opacity="1.0" fill-opacity="1.0" stroke="rgb(222,175,143)" stroke-width="3.072" fill="rgb(222,175,143)" stroke-linecap="butt" stroke-miterlimit="10.0"><path d="M 759.8298,408.5106 c 0.0000,-4.5123 -3.6579,-8.1702 -8.1702 -8.1702c -4.5123,-0.0000 -8.1702,3.6579 -8.1702 8.1702c -0.0000,4.5123 3.6579,8.1702 8.1702 8.1702c 4.5123,0.0000 8.1702,-3.6579 8.1702 -8.1702Z"/></g><g stroke-linejoin="miter" stroke-opacity="1.0" fill-opacity="1.0" stroke="rgb(251,159,177)" stroke-width="3.072" fill="rgb(251,159,177)" stroke-linecap="butt" stroke-miterlimit="10.0"><path d="M 718.9787,424.8511 l -0.0000,-32.6809 h -32.6809 l -0.0000,32.6809 Z"/></g><g stroke-linejoin="miter" stroke-opacity="1.0" fill-opacity="1.0" stroke="rgb(225,163,238)" stroke-width="3.072" fill="rgb(225,163,238)" stroke-linecap="butt" stroke-miterlimit="10.0"><path d="M 710.8085,408.5106 c 0.0000,-4.5123 -3.6579,-8.1702 -8.1702 -8.1702c -4.5123,-0.0000 -8.1702,3.6579 -8.1702 8.1702c -0.0000,4.5123 3.6579,8.1702 8.1702 8.1702c 4.5123,0.0000 8.1702,-3.6579 8.1702 -8.1702Z"/></g><g stroke-linejoin="miter" stroke-opacity="1.0" fill-opacity="1.0" stroke="rgb(251,159,177)" stroke-width="3.072" fill="rgb(251,159,177)" stroke-linecap="butt" stroke-miterlimit="10.0"><path d="M 669.9574,424.8511 l -0.0000,-32.6809 h -32.6809 l -0.0000,32.6809 Z"/></g><g stroke-linejoin="miter" stroke-opacity="1.0" fill-opacity="1.0" stroke="rgb(111,194,239)" stroke-width="3.072" fill="rgb(111,194,239)" stroke-linecap="butt" stroke-miterlimit="10.0"><path d="M 661.7872,408.5106 c 0.0000,-4.5123 -3.6579,-8.1702 -8.1702 -8.1702c -4.5123,-0.0000 -8.1702,3.6579 -8.1702 8.1702c -0.0000,4.5123 3.6579,8.1702 8.1702 8.1702c 4.5123,0.0000 8.1702,-3.6579 8.1702 -8.1702Z"/></g><g stroke-linejoin="miter" stroke-opacity="1.0" fill-opacity="1.0" stroke="rgb(251,159,177)" stroke-width="3.072" fill="rgb(251,159,177)" stroke-linecap="butt" stroke-miterlimit="10.0"><path d="M 620.9362,424.8511 l -0.0000,-32.6809 h -32.6809 l -0.0000,32.6809 Z"/></g><g stroke-linejoin="miter" stroke-opacity="1.0" fill-opacity="1.0" stroke="rgb(18,207,192)" stroke-width="3.072" fill="rgb(18,207,192)" stroke-linecap="butt" stroke-miterlimit="10.0"><path d="M 612.7660,408.5106 c 0.0000,-4.5123 -3.6579,-8.1702 -8.1702 -8.1702c -4.5123,-0.0000 -8.1702,3.6579 -8.1702 8.1702c -0.0000,4.5123 3.6579,8.1702 8.1702 8.1702c 4.5123,0.0000 8.1702,-3.6579 8.1702 -8.1702Z"/></g><g stroke-linejoin="miter" stroke-opacity="1.0" fill-opacity="1.0" stroke="rgb(251,159,177)" stroke-width="3.072" fill="rgb(251,159,177)" stroke-linecap="butt" stroke-miterlimit="10.0"><path d="M 571.9149,424.8511 l -0.0000,-32.6809 h -32.6809 l -0.0000,32.6809 Z"/></g><g stroke-linejoin="miter" stroke-opacity="1.0" fill-opacity="1.0" stroke="rgb(172,194,103)" stroke-width="3.072" fill="rgb(172,194,103)" stroke-linecap="butt" stroke-miterlimit="10.0"><path d="M 563.7447,408.5106 c 0.0000,-4.5123 -3.6579,-8.1702 -8.1702 -8.1702c -4.5123,-0.0000 -8.1702,3.6579 -8.1702 8.1702c -0.0000,4.5123 3.6579,8.1702 8.1702 8.1702c 4.5123,0.0000 8.1702,-3.6579 8.1702 -8.1702Z"/></g><g stroke-linejoin="miter" stroke-opacity="1.0" fill-opacity="1.0" stroke="rgb(251,159,177)" stroke-width="3.072" fill="rgb(251,159,177)" stroke-linecap="butt" stroke-miterlimit="10.0"><path d="M 522.8936,424.8511 l -0.0000,-32.6809 h -32.6809 l -0.0000,32.6809 Z"/></g><g stroke-linejoin="miter" stroke-opacity="1.0" fill-opacity="1.0" stroke="rgb(221,178,111)" stroke-width="3.072" fill="rgb(221,178,111)" stroke-linecap="butt" stroke-miterlimit="10.0"><path d="M 514.7234,408.5106 c 0.0000,-4.5123 -3.6579,-8.1702 -8.1702 -8.1702c -4.5123,-0.0000 -8.1702,3.6579 -8.1702 8.1702c -0.0000,4.5123 3.6579,8.1702 8.1702 8.1702c 4.5123,0.0000 8.1702,-3.6579 8.1702 -8.1702Z"/></g><g stroke-linejoin="miter" stroke-opacity="1.0" fill-opacity="1.0" stroke="rgb(251,159,177)" stroke-width="3.072" fill="rgb(251,159,177)" stroke-linecap="butt" stroke-miterlimit="10.0"><path d="M 473.8723,424.8511 l -0.0000,-32.6809 h -32.6809 l -0.0000,32.6809 Z"/></g><g stroke-linejoin="miter" stroke-opacity="1.0" fill-opacity="1.0" stroke="rgb(237,169,135)" stroke-width="3.072" fill="rgb(237,169,135)" stroke-linecap="butt" stroke-miterlimit="10.0"><path d="M 465.7021,408.5106 c 0.0000,-4.5123 -3.6579,-8.1702 -8.1702 -8.1702c -4.5123,-0.0000 -8.1702,3.6579 -8.1702 8.1702c -0.0000,4.5123 3.6579,8.1702 8.1702 8.1702c 4.5123,0.0000 8.1702,-3.6579 8.1702 -8.1702Z"/></g><g stroke-linejoin="miter" stroke-opacity="1.0" fill-opacity="1.0" stroke="rgb(251,159,177)" stroke-width="3.072" fill="rgb(251,159,177)" stroke-linecap="butt" stroke-miterlimit="10.0"><path d="M 424.8511,424.8511 l -0.0000,-32.6809 h -32.6809 l -0.0000,32.6809 Z"/></g><g stroke-linejoin="miter" stroke-opacity="1.0" fill-opacity="1.0" stroke="rgb(251,159,177)" stroke-width="3.072" fill="rgb(251,159,177)" stroke-linecap="butt" stroke-miterlimit="10.0"><path d="M 416.6809,408.5106 c 0.0000,-4.5123 -3.6579,-8.1702 -8.1702 -8.1702c -4.5123,-0.0000 -8.1702,3.6579 -8.1702 8.1702c -0.0000,4.5123 3.6579,8.1702 8.1702 8.1702c 4.5123,0.0000 8.1702,-3.6579 8.1702 -8.1702Z"/></g><g stroke-linejoin="miter" stroke-opacity="1.0" fill-opacity="1.0" stroke="rgb(245,245,245)" stroke-width="3.072" fill="rgb(245,245,245)" stroke-linecap="butt" stroke-miterlimit="10.0"><path d="M 768.0000,375.8298 l -0.0000,-32.6809 h -32.6809 l -0.0000,32.6809 Z"/></g><g stroke-linejoin="miter" stroke-opacity="1.0" fill-opacity="1.0" stroke="rgb(222,175,143)" stroke-width="3.072" fill="rgb(222,175,143)" stroke-linecap="butt" stroke-miterlimit="10.0"><path d="M 759.8298,359.4894 c 0.0000,-4.5123 -3.6579,-8.1702 -8.1702 -8.1702c -4.5123,-0.0000 -8.1702,3.6579 -8.1702 8.1702c -0.0000,4.5123 3.6579,8.1702 8.1702 8.1702c 4.5123,0.0000 8.1702,-3.6579 8.1702 -8.1702Z"/></g><g stroke-linejoin="miter" stroke-opacity="1.0" fill-opacity="1.0" stroke="rgb(245,245,245)" stroke-width="3.072" fill="rgb(245,245,245)" stroke-linecap="butt" stroke-miterlimit="10.0"><path d="M 718.9787,375.8298 l -0.0000,-32.6809 h -32.6809 l -0.0000,32.6809 Z"/></g><g stroke-linejoin="miter" stroke-opacity="1.0" fill-opacity="1.0" stroke="rgb(225,163,238)" stroke-width="3.072" fill="rgb(225,163,238)" stroke-linecap="butt" stroke-miterlimit="10.0"><path d="M 710.8085,359.4894 c 0.0000,-4.5123 -3.6579,-8.1702 -8.1702 -8.1702c -4.5123,-0.0000 -8.1702,3.6579 -8.1702 8.1702c -0.0000,4.5123 3.6579,8.1702 8.1702 8.1702c 4.5123,0.0000 8.1702,-3.6579 8.1702 -8.1702Z"/></g><g stroke-linejoin="miter" stroke-opacity="1.0" fill-opacity="1.0" stroke="rgb(245,245,245)" stroke-width="3.072" fill="rgb(245,245,245)" stroke-linecap="butt" stroke-miterlimit="10.0"><path d="M 669.9574,375.8298 l -0.0000,-32.6809 h -32.6809 l -0.0000,32.6809 Z"/></g><g stroke-linejoin="miter" stroke-opacity="1.0" fill-opacity="1.0" stroke="rgb(111,194,239)" stroke-width="3.072" fill="rgb(111,194,239)" stroke-linecap="butt" stroke-miterlimit="10.0"><path d="M 661.7872,359.4894 c 0.0000,-4.5123 -3.6579,-8.1702 -8.1702 -8.1702c -4.5123,-0.0000 -8.1702,3.6579 -8.1702 8.1702c -0.0000,4.5123 3.6579,8.1702 8.1702 8.1702c 4.5123,0.0000 8.1702,-3.6579 8.1702 -8.1702Z"/></g><g stroke-linejoin="miter" stroke-opacity="1.0" fill-opacity="1.0" stroke="rgb(245,245,245)" stroke-width="3.072" fill="rgb(245,245,245)" stroke-linecap="butt" stroke-miterlimit="10.0"><path d="M 620.9362,375.8298 l -0.0000,-32.6809 h -32.6809 l -0.0000,32.6809 Z"/></g><g stroke-linejoin="miter" stroke-opacity="1.0" fill-opacity="1.0" stroke="rgb(18,207,192)" stroke-width="3.072" fill="rgb(18,207,192)" stroke-linecap="butt" stroke-miterlimit="10.0"><path d="M 612.7660,359.4894 c 0.0000,-4.5123 -3.6579,-8.1702 -8.1702 -8.1702c -4.5123,-0.0000 -8.1702,3.6579 -8.1702 8.1702c -0.0000,4.5123 3.6579,8.1702 8.1702 8.1702c 4.5123,0.0000 8.1702,-3.6579 8.1702 -8.1702Z"/></g><g stroke-linejoin="miter" stroke-opacity="1.0" fill-opacity="1.0" stroke="rgb(245,245,245)" stroke-width="3.072" fill="rgb(245,245,245)" stroke-linecap="butt" stroke-miterlimit="10.0"><path d="M 571.9149,375.8298 l -0.0000,-32.6809 h -32.6809 l -0.0000,32.6809 Z"/></g><g stroke-linejoin="miter" stroke-opacity="1.0" fill-opacity="1.0" stroke="rgb(172,194,103)" stroke-width="3.072" fill="rgb(172,194,103)" stroke-linecap="butt" stroke-miterlimit="10.0"><path d="M 563.7447,359.4894 c 0.0000,-4.5123 -3.6579,-8.1702 -8.1702 -8.1702c -4.5123,-0.0000 -8.1702,3.6579 -8.1702 8.1702c -0.0000,4.5123 3.6579,8.1702 8.1702 8.1702c 4.5123,0.0000 8.1702,-3.6579 8.1702 -8.1702Z"/></g><g stroke-linejoin="miter" stroke-opacity="1.0" fill-opacity="1.0" stroke="rgb(245,245,245)" stroke-width="3.072" fill="rgb(245,245,245)" stroke-linecap="butt" stroke-miterlimit="10.0"><path d="M 522.8936,375.8298 l -0.0000,-32.6809 h -32.6809 l -0.0000,32.6809 Z"/></g><g stroke-linejoin="miter" stroke-opacity="1.0" fill-opacity="1.0" stroke="rgb(221,178,111)" stroke-width="3.072" fill="rgb(221,178,111)" stroke-linecap="butt" stroke-miterlimit="10.0"><path d="M 514.7234,359.4894 c 0.0000,-4.5123 -3.6579,-8.1702 -8.1702 -8.1702c -4.5123,-0.0000 -8.1702,3.6579 -8.1702 8.1702c -0.0000,4.5123 3.6579,8.1702 8.1702 8.1702c 4.5123,0.0000 8.1702,-3.6579 8.1702 -8.1702Z"/></g><g stroke-linejoin="miter" stroke-opacity="1.0" fill-opacity="1.0" stroke="rgb(245,245,245)" stroke-width="3.072" fill="rgb(245,245,245)" stroke-linecap="butt" stroke-miterlimit="10.0"><path d="M 473.8723,375.8298 l -0.0000,-32.6809 h -32.6809 l -0.0000,32.6809 Z"/></g><g stroke-linejoin="miter" stroke-opacity="1.0" fill-opacity="1.0" stroke="rgb(237,169,135)" stroke-width="3.072" fill="rgb(237,169,135)" stroke-linecap="butt" stroke-miterlimit="10.0"><path d="M 465.7021,359.4894 c 0.0000,-4.5123 -3.6579,-8.1702 -8.1702 -8.1702c -4.5123,-0.0000 -8.1702,3.6579 -8.1702 8.1702c -0.0000,4.5123 3.6579,8.1702 8.1702 8.1702c 4.5123,0.0000 8.1702,-3.6579 8.1702 -8.1702Z"/></g><g stroke-linejoin="miter" stroke-opacity="1.0" fill-opacity="1.0" stroke="rgb(245,245,245)" stroke-width="3.072" fill="rgb(245,245,245)" stroke-linecap="butt" stroke-miterlimit="10.0"><path d="M 424.8511,375.8298 l -0.0000,-32.6809 h -32.6809 l -0.0000,32.6809 Z"/></g><g stroke-linejoin="miter" stroke-opacity="1.0" fill-opacity="1.0" stroke="rgb(251,159,177)" stroke-width="3.072" fill="rgb(251,159,177)" stroke-linecap="butt" stroke-miterlimit="10.0"><path d="M 416.6809,359.4894 c 0.0000,-4.5123 -3.6579,-8.1702 -8.1702 -8.1702c -4.5123,-0.0000 -8.1702,3.6579 -8.1702 8.1702c -0.0000,4.5123 3.6579,8.1702 8.1702 8.1702c 4.5123,0.0000 8.1702,-3.6579 8.1702 -8.1702Z"/></g><g stroke-linejoin="miter" stroke-opacity="1.0" fill-opacity="1.0" stroke="rgb(245,245,245)" stroke-width="3.072" fill="rgb(245,245,245)" stroke-linecap="butt" stroke-miterlimit="10.0"><path d="M 375.8298,375.8298 l -0.0000,-32.6809 h -32.6809 l -0.0000,32.6809 Z"/></g><g stroke-linejoin="miter" stroke-opacity="1.0" fill-opacity="1.0" stroke="rgb(245,245,245)" stroke-width="3.072" fill="rgb(245,245,245)" stroke-linecap="butt" stroke-miterlimit="10.0"><path d="M 367.6596,359.4894 c 0.0000,-4.5123 -3.6579,-8.1702 -8.1702 -8.1702c -4.5123,-0.0000 -8.1702,3.6579 -8.1702 8.1702c -0.0000,4.5123 3.6579,8.1702 8.1702 8.1702c 4.5123,0.0000 8.1702,-3.6579 8.1702 -8.1702Z"/></g><g stroke-linejoin="miter" stroke-opacity="1.0" fill-opacity="1.0" stroke="rgb(209,209,209)" stroke-width="3.072" fill="rgb(209,209,209)" stroke-linecap="butt" stroke-miterlimit="10.0"><path d="M 768.0000,326.8085 l -0.0000,-32.6809 h -32.6809 l -0.0000,32.6809 Z"/></g><g stroke-linejoin="miter" stroke-opacity="1.0" fill-opacity="1.0" stroke="rgb(222,175,143)" stroke-width="3.072" fill="rgb(222,175,143)" stroke-linecap="butt" stroke-miterlimit="10.0"><path d="M 759.8298,310.4681 c 0.0000,-4.5123 -3.6579,-8.1702 -8.1702 -8.1702c -4.5123,-0.0000 -8.1702,3.6579 -8.1702 8.1702c -0.0000,4.5123 3.6579,8.1702 8.1702 8.1702c 4.5123,0.0000 8.1702,-3.6579 8.1702 -8.1702Z"/></g><g stroke-linejoin="miter" stroke-opacity="1.0" fill-opacity="1.0" stroke="rgb(209,209,209)" stroke-width="3.072" fill="rgb(209,209,209)" stroke-linecap="butt" stroke-miterlimit="10.0"><path d="M 718.9787,326.8085 l -0.0000,-32.6809 h -32.6809 l -0.0000,32.6809 Z"/></g><g stroke-linejoin="miter" stroke-opacity="1.0" fill-opacity="1.0" stroke="rgb(225,163,238)" stroke-width="3.072" fill="rgb(225,163,238)" stroke-linecap="butt" stroke-miterlimit="10.0"><path d="M 710.8085,310.4681 c 0.0000,-4.5123 -3.6579,-8.1702 -8.1702 -8.1702c -4.5123,-0.0000 -8.1702,3.6579 -8.1702 8.1702c -0.0000,4.5123 3.6579,8.1702 8.1702 8.1702c 4.5123,0.0000 8.1702,-3.6579 8.1702 -8.1702Z"/></g><g stroke-linejoin="miter" stroke-opacity="1.0" fill-opacity="1.0" stroke="rgb(209,209,209)" stroke-width="3.072" fill="rgb(209,209,209)" stroke-linecap="butt" stroke-miterlimit="10.0"><path d="M 669.9574,326.8085 l -0.0000,-32.6809 h -32.6809 l -0.0000,32.6809 Z"/></g><g stroke-linejoin="miter" stroke-opacity="1.0" fill-opacity="1.0" stroke="rgb(111,194,239)" stroke-width="3.072" fill="rgb(111,194,239)" stroke-linecap="butt" stroke-miterlimit="10.0"><path d="M 661.7872,310.4681 c 0.0000,-4.5123 -3.6579,-8.1702 -8.1702 -8.1702c -4.5123,-0.0000 -8.1702,3.6579 -8.1702 8.1702c -0.0000,4.5123 3.6579,8.1702 8.1702 8.1702c 4.5123,0.0000 8.1702,-3.6579 8.1702 -8.1702Z"/></g><g stroke-linejoin="miter" stroke-opacity="1.0" fill-opacity="1.0" stroke="rgb(209,209,209)" stroke-width="3.072" fill="rgb(209,209,209)" stroke-linecap="butt" stroke-miterlimit="10.0"><path d="M 620.9362,326.8085 l -0.0000,-32.6809 h -32.6809 l -0.0000,32.6809 Z"/></g><g stroke-linejoin="miter" stroke-opacity="1.0" fill-opacity="1.0" stroke="rgb(18,207,192)" stroke-width="3.072" fill="rgb(18,207,192)" stroke-linecap="butt" stroke-miterlimit="10.0"><path d="M 612.7660,310.4681 c 0.0000,-4.5123 -3.6579,-8.1702 -8.1702 -8.1702c -4.5123,-0.0000 -8.1702,3.6579 -8.1702 8.1702c -0.0000,4.5123 3.6579,8.1702 8.1702 8.1702c 4.5123,0.0000 8.1702,-3.6579 8.1702 -8.1702Z"/></g><g stroke-linejoin="miter" stroke-opacity="1.0" fill-opacity="1.0" stroke="rgb(209,209,209)" stroke-width="3.072" fill="rgb(209,209,209)" stroke-linecap="butt" stroke-miterlimit="10.0"><path d="M 571.9149,326.8085 l -0.0000,-32.6809 h -32.6809 l -0.0000,32.6809 Z"/></g><g stroke-linejoin="miter" stroke-opacity="1.0" fill-opacity="1.0" stroke="rgb(172,194,103)" stroke-width="3.072" fill="rgb(172,194,103)" stroke-linecap="butt" stroke-miterlimit="10.0"><path d="M 563.7447,310.4681 c 0.0000,-4.5123 -3.6579,-8.1702 -8.1702 -8.1702c -4.5123,-0.0000 -8.1702,3.6579 -8.1702 8.1702c -0.0000,4.5123 3.6579,8.1702 8.1702 8.1702c 4.5123,0.0000 8.1702,-3.6579 8.1702 -8.1702Z"/></g><g stroke-linejoin="miter" stroke-opacity="1.0" fill-opacity="1.0" stroke="rgb(209,209,209)" stroke-width="3.072" fill="rgb(209,209,209)" stroke-linecap="butt" stroke-miterlimit="10.0"><path d="M 522.8936,326.8085 l -0.0000,-32.6809 h -32.6809 l -0.0000,32.6809 Z"/></g><g stroke-linejoin="miter" stroke-opacity="1.0" fill-opacity="1.0" stroke="rgb(221,178,111)" stroke-width="3.072" fill="rgb(221,178,111)" stroke-linecap="butt" stroke-miterlimit="10.0"><path d="M 514.7234,310.4681 c 0.0000,-4.5123 -3.6579,-8.1702 -8.1702 -8.1702c -4.5123,-0.0000 -8.1702,3.6579 -8.1702 8.1702c -0.0000,4.5123 3.6579,8.1702 8.1702 8.1702c 4.5123,0.0000 8.1702,-3.6579 8.1702 -8.1702Z"/></g><g stroke-linejoin="miter" stroke-opacity="1.0" fill-opacity="1.0" stroke="rgb(209,209,209)" stroke-width="3.072" fill="rgb(209,209,209)" stroke-linecap="butt" stroke-miterlimit="10.0"><path d="M 473.8723,326.8085 l -0.0000,-32.6809 h -32.6809 l -0.0000,32.6809 Z"/></g><g stroke-linejoin="miter" stroke-opacity="1.0" fill-opacity="1.0" stroke="rgb(237,169,135)" stroke-width="3.072" fill="rgb(237,169,135)" stroke-linecap="butt" stroke-miterlimit="10.0"><path d="M 465.7021,310.4681 c 0.0000,-4.5123 -3.6579,-8.1702 -8.1702 -8.1702c -4.5123,-0.0000 -8.1702,3.6579 -8.1702 8.1702c -0.0000,4.5123 3.6579,8.1702 8.1702 8.1702c 4.5123,0.0000 8.1702,-3.6579 8.1702 -8.1702Z"/></g><g stroke-linejoin="miter" stroke-opacity="1.0" fill-opacity="1.0" stroke="rgb(209,209,209)" stroke-width="3.072" fill="rgb(209,209,209)" stroke-linecap="butt" stroke-miterlimit="10.0"><path d="M 424.8511,326.8085 l -0.0000,-32.6809 h -32.6809 l -0.0000,32.6809 Z"/></g><g stroke-linejoin="miter" stroke-opacity="1.0" fill-opacity="1.0" stroke="rgb(251,159,177)" stroke-width="3.072" fill="rgb(251,159,177)" stroke-linecap="butt" stroke-miterlimit="10.0"><path d="M 416.6809,310.4681 c 0.0000,-4.5123 -3.6579,-8.1702 -8.1702 -8.1702c -4.5123,-0.0000 -8.1702,3.6579 -8.1702 8.1702c -0.0000,4.5123 3.6579,8.1702 8.1702 8.1702c 4.5123,0.0000 8.1702,-3.6579 8.1702 -8.1702Z"/></g><g stroke-linejoin="miter" stroke-opacity="1.0" fill-opacity="1.0" stroke="rgb(209,209,209)" stroke-width="3.072" fill="rgb(209,209,209)" stroke-linecap="butt" stroke-miterlimit="10.0"><path d="M 375.8298,326.8085 l -0.0000,-32.6809 h -32.6809 l -0.0000,32.6809 Z"/></g><g stroke-linejoin="miter" stroke-opacity="1.0" fill-opacity="1.0" stroke="rgb(245,245,245)" stroke-width="3.072" fill="rgb(245,245,245)" stroke-linecap="butt" stroke-miterlimit="10.0"><path d="M 367.6596,310.4681 c 0.0000,-4.5123 -3.6579,-8.1702 -8.1702 -8.1702c -4.5123,-0.0000 -8.1702,3.6579 -8.1702 8.1702c -0.0000,4.5123 3.6579,8.1702 8.1702 8.1702c 4.5123,0.0000 8.1702,-3.6579 8.1702 -8.1702Z"/></g><g stroke-linejoin="miter" stroke-opacity="1.0" fill-opacity="1.0" stroke="rgb(209,209,209)" stroke-width="3.072" fill="rgb(209,209,209)" stroke-linecap="butt" stroke-miterlimit="10.0"><path d="M 326.8085,326.8085 l -0.0000,-32.6809 h -32.6809 l -0.0000,32.6809 Z"/></g><g stroke-linejoin="miter" stroke-opacity="1.0" fill-opacity="1.0" stroke="rgb(209,209,209)" stroke-width="3.072" fill="rgb(209,209,209)" stroke-linecap="butt" stroke-miterlimit="10.0"><path d="M 318.6383,310.4681 c 0.0000,-4.5123 -3.6579,-8.1702 -8.1702 -8.1702c -4.5123,-0.0000 -8.1702,3.6579 -8.1702 8.1702c -0.0000,4.5123 3.6579,8.1702 8.1702 8.1702c 4.5123,0.0000 8.1702,-3.6579 8.1702 -8.1702Z"/></g><g stroke-linejoin="miter" stroke-opacity="1.0" fill-opacity="1.0" stroke="rgb(173,173,173)" stroke-width="3.072" fill="rgb(173,173,173)" stroke-linecap="butt" stroke-miterlimit="10.0"><path d="M 768.0000,277.7872 l -0.0000,-32.6809 h -32.6809 l -0.0000,32.6809 Z"/></g><g stroke-linejoin="miter" stroke-opacity="1.0" fill-opacity="1.0" stroke="rgb(222,175,143)" stroke-width="3.072" fill="rgb(222,175,143)" stroke-linecap="butt" stroke-miterlimit="10.0"><path d="M 759.8298,261.4468 c 0.0000,-4.5123 -3.6579,-8.1702 -8.1702 -8.1702c -4.5123,-0.0000 -8.1702,3.6579 -8.1702 8.1702c -0.0000,4.5123 3.6579,8.1702 8.1702 8.1702c 4.5123,0.0000 8.1702,-3.6579 8.1702 -8.1702Z"/></g><g stroke-linejoin="miter" stroke-opacity="1.0" fill-opacity="1.0" stroke="rgb(173,173,173)" stroke-width="3.072" fill="rgb(173,173,173)" stroke-linecap="butt" stroke-miterlimit="10.0"><path d="M 718.9787,277.7872 l -0.0000,-32.6809 h -32.6809 l -0.0000,32.6809 Z"/></g><g stroke-linejoin="miter" stroke-opacity="1.0" fill-opacity="1.0" stroke="rgb(225,163,238)" stroke-width="3.072" fill="rgb(225,163,238)" stroke-linecap="butt" stroke-miterlimit="10.0"><path d="M 710.8085,261.4468 c 0.0000,-4.5123 -3.6579,-8.1702 -8.1702 -8.1702c -4.5123,-0.0000 -8.1702,3.6579 -8.1702 8.1702c -0.0000,4.5123 3.6579,8.1702 8.1702 8.1702c 4.5123,0.0000 8.1702,-3.6579 8.1702 -8.1702Z"/></g><g stroke-linejoin="miter" stroke-opacity="1.0" fill-opacity="1.0" stroke="rgb(173,173,173)" stroke-width="3.072" fill="rgb(173,173,173)" stroke-linecap="butt" stroke-miterlimit="10.0"><path d="M 669.9574,277.7872 l -0.0000,-32.6809 h -32.6809 l -0.0000,32.6809 Z"/></g><g stroke-linejoin="miter" stroke-opacity="1.0" fill-opacity="1.0" stroke="rgb(111,194,239)" stroke-width="3.072" fill="rgb(111,194,239)" stroke-linecap="butt" stroke-miterlimit="10.0"><path d="M 661.7872,261.4468 c 0.0000,-4.5123 -3.6579,-8.1702 -8.1702 -8.1702c -4.5123,-0.0000 -8.1702,3.6579 -8.1702 8.1702c -0.0000,4.5123 3.6579,8.1702 8.1702 8.1702c 4.5123,0.0000 8.1702,-3.6579 8.1702 -8.1702Z"/></g><g stroke-linejoin="miter" stroke-opacity="1.0" fill-opacity="1.0" stroke="rgb(173,173,173)" stroke-width="3.072" fill="rgb(173,173,173)" stroke-linecap="butt" stroke-miterlimit="10.0"><path d="M 620.9362,277.7872 l -0.0000,-32.6809 h -32.6809 l -0.0000,32.6809 Z"/></g><g stroke-linejoin="miter" stroke-opacity="1.0" fill-opacity="1.0" stroke="rgb(18,207,192)" stroke-width="3.072" fill="rgb(18,207,192)" stroke-linecap="butt" stroke-miterlimit="10.0"><path d="M 612.7660,261.4468 c 0.0000,-4.5123 -3.6579,-8.1702 -8.1702 -8.1702c -4.5123,-0.0000 -8.1702,3.6579 -8.1702 8.1702c -0.0000,4.5123 3.6579,8.1702 8.1702 8.1702c 4.5123,0.0000 8.1702,-3.6579 8.1702 -8.1702Z"/></g><g stroke-linejoin="miter" stroke-opacity="1.0" fill-opacity="1.0" stroke="rgb(173,173,173)" stroke-width="3.072" fill="rgb(173,173,173)" stroke-linecap="butt" stroke-miterlimit="10.0"><path d="M 571.9149,277.7872 l -0.0000,-32.6809 h -32.6809 l -0.0000,32.6809 Z"/></g><g stroke-linejoin="miter" stroke-opacity="1.0" fill-opacity="1.0" stroke="rgb(172,194,103)" stroke-width="3.072" fill="rgb(172,194,103)" stroke-linecap="butt" stroke-miterlimit="10.0"><path d="M 563.7447,261.4468 c 0.0000,-4.5123 -3.6579,-8.1702 -8.1702 -8.1702c -4.5123,-0.0000 -8.1702,3.6579 -8.1702 8.1702c -0.0000,4.5123 3.6579,8.1702 8.1702 8.1702c 4.5123,0.0000 8.1702,-3.6579 8.1702 -8.1702Z"/></g><g stroke-linejoin="miter" stroke-opacity="1.0" fill-opacity="1.0" stroke="rgb(173,173,173)" stroke-width="3.072" fill="rgb(173,173,173)" stroke-linecap="butt" stroke-miterlimit="10.0"><path d="M 522.8936,277.7872 l -0.0000,-32.6809 h -32.6809 l -0.0000,32.6809 Z"/></g><g stroke-linejoin="miter" stroke-opacity="1.0" fill-opacity="1.0" stroke="rgb(221,178,111)" stroke-width="3.072" fill="rgb(221,178,111)" stroke-linecap="butt" stroke-miterlimit="10.0"><path d="M 514.7234,261.4468 c 0.0000,-4.5123 -3.6579,-8.1702 -8.1702 -8.1702c -4.5123,-0.0000 -8.1702,3.6579 -8.1702 8.1702c -0.0000,4.5123 3.6579,8.1702 8.1702 8.1702c 4.5123,0.0000 8.1702,-3.6579 8.1702 -8.1702Z"/></g><g stroke-linejoin="miter" stroke-opacity="1.0" fill-opacity="1.0" stroke="rgb(173,173,173)" stroke-width="3.072" fill="rgb(173,173,173)" stroke-linecap="butt" stroke-miterlimit="10.0"><path d="M 473.8723,277.7872 l -0.0000,-32.6809 h -32.6809 l -0.0000,32.6809 Z"/></g><g stroke-linejoin="miter" stroke-opacity="1.0" fill-opacity="1.0" stroke="rgb(237,169,135)" stroke-width="3.072" fill="rgb(237,169,135)" stroke-linecap="butt" stroke-miterlimit="10.0"><path d="M 465.7021,261.4468 c 0.0000,-4.5123 -3.6579,-8.1702 -8.1702 -8.1702c -4.5123,-0.0000 -8.1702,3.6579 -8.1702 8.1702c -0.0000,4.5123 3.6579,8.1702 8.1702 8.1702c 4.5123,0.0000 8.1702,-3.6579 8.1702 -8.1702Z"/></g><g stroke-linejoin="miter" stroke-opacity="1.0" fill-opacity="1.0" stroke="rgb(173,173,173)" stroke-width="3.072" fill="rgb(173,173,173)" stroke-linecap="butt" stroke-miterlimit="10.0"><path d="M 424.8511,277.7872 l -0.0000,-32.6809 h -32.6809 l -0.0000,32.6809 Z"/></g><g stroke-linejoin="miter" stroke-opacity="1.0" fill-opacity="1.0" stroke="rgb(251,159,177)" stroke-width="3.072" fill="rgb(251,159,177)" stroke-linecap="butt" stroke-miterlimit="10.0"><path d="M 416.6809,261.4468 c 0.0000,-4.5123 -3.6579,-8.1702 -8.1702 -8.1702c -4.5123,-0.0000 -8.1702,3.6579 -8.1702 8.1702c -0.0000,4.5123 3.6579,8.1702 8.1702 8.1702c 4.5123,0.0000 8.1702,-3.6579 8.1702 -8.1702Z"/></g><g stroke-linejoin="miter" stroke-opacity="1.0" fill-opacity="1.0" stroke="rgb(173,173,173)" stroke-width="3.072" fill="rgb(173,173,173)" stroke-linecap="butt" stroke-miterlimit="10.0"><path d="M 375.8298,277.7872 l -0.0000,-32.6809 h -32.6809 l -0.0000,32.6809 Z"/></g><g stroke-linejoin="miter" stroke-opacity="1.0" fill-opacity="1.0" stroke="rgb(245,245,245)" stroke-width="3.072" fill="rgb(245,245,245)" stroke-linecap="butt" stroke-miterlimit="10.0"><path d="M 367.6596,261.4468 c 0.0000,-4.5123 -3.6579,-8.1702 -8.1702 -8.1702c -4.5123,-0.0000 -8.1702,3.6579 -8.1702 8.1702c -0.0000,4.5123 3.6579,8.1702 8.1702 8.1702c 4.5123,0.0000 8.1702,-3.6579 8.1702 -8.1702Z"/></g><g stroke-linejoin="miter" stroke-opacity="1.0" fill-opacity="1.0" stroke="rgb(173,173,173)" stroke-width="3.072" fill="rgb(173,173,173)" stroke-linecap="butt" stroke-miterlimit="10.0"><path d="M 326.8085,277.7872 l -0.0000,-32.6809 h -32.6809 l -0.0000,32.6809 Z"/></g><g stroke-linejoin="miter" stroke-opacity="1.0" fill-opacity="1.0" stroke="rgb(209,209,209)" stroke-width="3.072" fill="rgb(209,209,209)" stroke-linecap="butt" stroke-miterlimit="10.0"><path d="M 318.6383,261.4468 c 0.0000,-4.5123 -3.6579,-8.1702 -8.1702 -8.1702c -4.5123,-0.0000 -8.1702,3.6579 -8.1702 8.1702c -0.0000,4.5123 3.6579,8.1702 8.1702 8.1702c 4.5123,0.0000 8.1702,-3.6579 8.1702 -8.1702Z"/></g><g stroke-linejoin="miter" stroke-opacity="1.0" fill-opacity="1.0" stroke="rgb(173,173,173)" stroke-width="3.072" fill="rgb(173,173,173)" stroke-linecap="butt" stroke-miterlimit="10.0"><path d="M 277.7872,277.7872 l -0.0000,-32.6809 h -32.6809 l -0.0000,32.6809 Z"/></g><g stroke-linejoin="miter" stroke-opacity="1.0" fill-opacity="1.0" stroke="rgb(173,173,173)" stroke-width="3.072" fill="rgb(173,173,173)" stroke-linecap="butt" stroke-miterlimit="10.0"><path d="M 269.6170,261.4468 c 0.0000,-4.5123 -3.6579,-8.1702 -8.1702 -8.1702c -4.5123,-0.0000 -8.1702,3.6579 -8.1702 8.1702c -0.0000,4.5123 3.6579,8.1702 8.1702 8.1702c 4.5123,0.0000 8.1702,-3.6579 8.1702 -8.1702Z"/></g><g stroke-linejoin="miter" stroke-opacity="1.0" fill-opacity="1.0" stroke="rgb(140,140,140)" stroke-width="3.072" fill="rgb(140,140,140)" stroke-linecap="butt" stroke-miterlimit="10.0"><path d="M 768.0000,228.7660 l -0.0000,-32.6809 h -32.6809 l -0.0000,32.6809 Z"/></g><g stroke-linejoin="miter" stroke-opacity="1.0" fill-opacity="1.0" stroke="rgb(222,175,143)" stroke-width="3.072" fill="rgb(222,175,143)" stroke-linecap="butt" stroke-miterlimit="10.0"><path d="M 759.8298,212.4255 c 0.0000,-4.5123 -3.6579,-8.1702 -8.1702 -8.1702c -4.5123,-0.0000 -8.1702,3.6579 -8.1702 8.1702c -0.0000,4.5123 3.6579,8.1702 8.1702 8.1702c 4.5123,0.0000 8.1702,-3.6579 8.1702 -8.1702Z"/></g><g stroke-linejoin="miter" stroke-opacity="1.0" fill-opacity="1.0" stroke="rgb(140,140,140)" stroke-width="3.072" fill="rgb(140,140,140)" stroke-linecap="butt" stroke-miterlimit="10.0"><path d="M 718.9787,228.7660 l -0.0000,-32.6809 h -32.6809 l -0.0000,32.6809 Z"/></g><g stroke-linejoin="miter" stroke-opacity="1.0" fill-opacity="1.0" stroke="rgb(225,163,238)" stroke-width="3.072" fill="rgb(225,163,238)" stroke-linecap="butt" stroke-miterlimit="10.0"><path d="M 710.8085,212.4255 c 0.0000,-4.5123 -3.6579,-8.1702 -8.1702 -8.1702c -4.5123,-0.0000 -8.1702,3.6579 -8.1702 8.1702c -0.0000,4.5123 3.6579,8.1702 8.1702 8.1702c 4.5123,0.0000 8.1702,-3.6579 8.1702 -8.1702Z"/></g><g stroke-linejoin="miter" stroke-opacity="1.0" fill-opacity="1.0" stroke="rgb(140,140,140)" stroke-width="3.072" fill="rgb(140,140,140)" stroke-linecap="butt" stroke-miterlimit="10.0"><path d="M 669.9574,228.7660 l -0.0000,-32.6809 h -32.6809 l -0.0000,32.6809 Z"/></g><g stroke-linejoin="miter" stroke-opacity="1.0" fill-opacity="1.0" stroke="rgb(111,194,239)" stroke-width="3.072" fill="rgb(111,194,239)" stroke-linecap="butt" stroke-miterlimit="10.0"><path d="M 661.7872,212.4255 c 0.0000,-4.5123 -3.6579,-8.1702 -8.1702 -8.1702c -4.5123,-0.0000 -8.1702,3.6579 -8.1702 8.1702c -0.0000,4.5123 3.6579,8.1702 8.1702 8.1702c 4.5123,0.0000 8.1702,-3.6579 8.1702 -8.1702Z"/></g><g stroke-linejoin="miter" stroke-opacity="1.0" fill-opacity="1.0" stroke="rgb(140,140,140)" stroke-width="3.072" fill="rgb(140,140,140)" stroke-linecap="butt" stroke-miterlimit="10.0"><path d="M 620.9362,228.7660 l -0.0000,-32.6809 h -32.6809 l -0.0000,32.6809 Z"/></g><g stroke-linejoin="miter" stroke-opacity="1.0" fill-opacity="1.0" stroke="rgb(18,207,192)" stroke-width="3.072" fill="rgb(18,207,192)" stroke-linecap="butt" stroke-miterlimit="10.0"><path d="M 612.7660,212.4255 c 0.0000,-4.5123 -3.6579,-8.1702 -8.1702 -8.1702c -4.5123,-0.0000 -8.1702,3.6579 -8.1702 8.1702c -0.0000,4.5123 3.6579,8.1702 8.1702 8.1702c 4.5123,0.0000 8.1702,-3.6579 8.1702 -8.1702Z"/></g><g stroke-linejoin="miter" stroke-opacity="1.0" fill-opacity="1.0" stroke="rgb(140,140,140)" stroke-width="3.072" fill="rgb(140,140,140)" stroke-linecap="butt" stroke-miterlimit="10.0"><path d="M 571.9149,228.7660 l -0.0000,-32.6809 h -32.6809 l -0.0000,32.6809 Z"/></g><g stroke-linejoin="miter" stroke-opacity="1.0" fill-opacity="1.0" stroke="rgb(172,194,103)" stroke-width="3.072" fill="rgb(172,194,103)" stroke-linecap="butt" stroke-miterlimit="10.0"><path d="M 563.7447,212.4255 c 0.0000,-4.5123 -3.6579,-8.1702 -8.1702 -8.1702c -4.5123,-0.0000 -8.1702,3.6579 -8.1702 8.1702c -0.0000,4.5123 3.6579,8.1702 8.1702 8.1702c 4.5123,0.0000 8.1702,-3.6579 8.1702 -8.1702Z"/></g><g stroke-linejoin="miter" stroke-opacity="1.0" fill-opacity="1.0" stroke="rgb(140,140,140)" stroke-width="3.072" fill="rgb(140,140,140)" stroke-linecap="butt" stroke-miterlimit="10.0"><path d="M 522.8936,228.7660 l -0.0000,-32.6809 h -32.6809 l -0.0000,32.6809 Z"/></g><g stroke-linejoin="miter" stroke-opacity="1.0" fill-opacity="1.0" stroke="rgb(221,178,111)" stroke-width="3.072" fill="rgb(221,178,111)" stroke-linecap="butt" stroke-miterlimit="10.0"><path d="M 514.7234,212.4255 c 0.0000,-4.5123 -3.6579,-8.1702 -8.1702 -8.1702c -4.5123,-0.0000 -8.1702,3.6579 -8.1702 8.1702c -0.0000,4.5123 3.6579,8.1702 8.1702 8.1702c 4.5123,0.0000 8.1702,-3.6579 8.1702 -8.1702Z"/></g><g stroke-linejoin="miter" stroke-opacity="1.0" fill-opacity="1.0" stroke="rgb(140,140,140)" stroke-width="3.072" fill="rgb(140,140,140)" stroke-linecap="butt" stroke-miterlimit="10.0"><path d="M 473.8723,228.7660 l -0.0000,-32.6809 h -32.6809 l -0.0000,32.6809 Z"/></g><g stroke-linejoin="miter" stroke-opacity="1.0" fill-opacity="1.0" stroke="rgb(237,169,135)" stroke-width="3.072" fill="rgb(237,169,135)" stroke-linecap="butt" stroke-miterlimit="10.0"><path d="M 465.7021,212.4255 c 0.0000,-4.5123 -3.6579,-8.1702 -8.1702 -8.1702c -4.5123,-0.0000 -8.1702,3.6579 -8.1702 8.1702c -0.0000,4.5123 3.6579,8.1702 8.1702 8.1702c 4.5123,0.0000 8.1702,-3.6579 8.1702 -8.1702Z"/></g><g stroke-linejoin="miter" stroke-opacity="1.0" fill-opacity="1.0" stroke="rgb(140,140,140)" stroke-width="3.072" fill="rgb(140,140,140)" stroke-linecap="butt" stroke-miterlimit="10.0"><path d="M 424.8511,228.7660 l -0.0000,-32.6809 h -32.6809 l -0.0000,32.6809 Z"/></g><g stroke-linejoin="miter" stroke-opacity="1.0" fill-opacity="1.0" stroke="rgb(251,159,177)" stroke-width="3.072" fill="rgb(251,159,177)" stroke-linecap="butt" stroke-miterlimit="10.0"><path d="M 416.6809,212.4255 c 0.0000,-4.5123 -3.6579,-8.1702 -8.1702 -8.1702c -4.5123,-0.0000 -8.1702,3.6579 -8.1702 8.1702c -0.0000,4.5123 3.6579,8.1702 8.1702 8.1702c 4.5123,0.0000 8.1702,-3.6579 8.1702 -8.1702Z"/></g><g stroke-linejoin="miter" stroke-opacity="1.0" fill-opacity="1.0" stroke="rgb(140,140,140)" stroke-width="3.072" fill="rgb(140,140,140)" stroke-linecap="butt" stroke-miterlimit="10.0"><path d="M 375.8298,228.7660 l -0.0000,-32.6809 h -32.6809 l -0.0000,32.6809 Z"/></g><g stroke-linejoin="miter" stroke-opacity="1.0" fill-opacity="1.0" stroke="rgb(245,245,245)" stroke-width="3.072" fill="rgb(245,245,245)" stroke-linecap="butt" stroke-miterlimit="10.0"><path d="M 367.6596,212.4255 c 0.0000,-4.5123 -3.6579,-8.1702 -8.1702 -8.1702c -4.5123,-0.0000 -8.1702,3.6579 -8.1702 8.1702c -0.0000,4.5123 3.6579,8.1702 8.1702 8.1702c 4.5123,0.0000 8.1702,-3.6579 8.1702 -8.1702Z"/></g><g stroke-linejoin="miter" stroke-opacity="1.0" fill-opacity="1.0" stroke="rgb(140,140,140)" stroke-width="3.072" fill="rgb(140,140,140)" stroke-linecap="butt" stroke-miterlimit="10.0"><path d="M 326.8085,228.7660 l -0.0000,-32.6809 h -32.6809 l -0.0000,32.6809 Z"/></g><g stroke-linejoin="miter" stroke-opacity="1.0" fill-opacity="1.0" stroke="rgb(209,209,209)" stroke-width="3.072" fill="rgb(209,209,209)" stroke-linecap="butt" stroke-miterlimit="10.0"><path d="M 318.6383,212.4255 c 0.0000,-4.5123 -3.6579,-8.1702 -8.1702 -8.1702c -4.5123,-0.0000 -8.1702,3.6579 -8.1702 8.1702c -0.0000,4.5123 3.6579,8.1702 8.1702 8.1702c 4.5123,0.0000 8.1702,-3.6579 8.1702 -8.1702Z"/></g><g stroke-linejoin="miter" stroke-opacity="1.0" fill-opacity="1.0" stroke="rgb(140,140,140)" stroke-width="3.072" fill="rgb(140,140,140)" stroke-linecap="butt" stroke-miterlimit="10.0"><path d="M 277.7872,228.7660 l -0.0000,-32.6809 h -32.6809 l -0.0000,32.6809 Z"/></g><g stroke-linejoin="miter" stroke-opacity="1.0" fill-opacity="1.0" stroke="rgb(173,173,173)" stroke-width="3.072" fill="rgb(173,173,173)" stroke-linecap="butt" stroke-miterlimit="10.0"><path d="M 269.6170,212.4255 c 0.0000,-4.5123 -3.6579,-8.1702 -8.1702 -8.1702c -4.5123,-0.0000 -8.1702,3.6579 -8.1702 8.1702c -0.0000,4.5123 3.6579,8.1702 8.1702 8.1702c 4.5123,0.0000 8.1702,-3.6579 8.1702 -8.1702Z"/></g><g stroke-linejoin="miter" stroke-opacity="1.0" fill-opacity="1.0" stroke="rgb(140,140,140)" stroke-width="3.072" fill="rgb(140,140,140)" stroke-linecap="butt" stroke-miterlimit="10.0"><path d="M 228.7660,228.7660 l -0.0000,-32.6809 h -32.6809 l -0.0000,32.6809 Z"/></g><g stroke-linejoin="miter" stroke-opacity="1.0" fill-opacity="1.0" stroke="rgb(140,140,140)" stroke-width="3.072" fill="rgb(140,140,140)" stroke-linecap="butt" stroke-miterlimit="10.0"><path d="M 220.5957,212.4255 c 0.0000,-4.5123 -3.6579,-8.1702 -8.1702 -8.1702c -4.5123,-0.0000 -8.1702,3.6579 -8.1702 8.1702c -0.0000,4.5123 3.6579,8.1702 8.1702 8.1702c 4.5123,0.0000 8.1702,-3.6579 8.1702 -8.1702Z"/></g><g stroke-linejoin="miter" stroke-opacity="1.0" fill-opacity="1.0" stroke="rgb(107,107,107)" stroke-width="3.072" fill="rgb(107,107,107)" stroke-linecap="butt" stroke-miterlimit="10.0"><path d="M 768.0000,179.7447 l -0.0000,-32.6809 h -32.6809 l -0.0000,32.6809 Z"/></g><g stroke-linejoin="miter" stroke-opacity="1.0" fill-opacity="1.0" stroke="rgb(222,175,143)" stroke-width="3.072" fill="rgb(222,175,143)" stroke-linecap="butt" stroke-miterlimit="10.0"><path d="M 759.8298,163.4043 c 0.0000,-4.5123 -3.6579,-8.1702 -8.1702 -8.1702c -4.5123,-0.0000 -8.1702,3.6579 -8.1702 8.1702c -0.0000,4.5123 3.6579,8.1702 8.1702 8.1702c 4.5123,0.0000 8.1702,-3.6579 8.1702 -8.1702Z"/></g><g stroke-linejoin="miter" stroke-opacity="1.0" fill-opacity="1.0" stroke="rgb(107,107,107)" stroke-width="3.072" fill="rgb(107,107,107)" stroke-linecap="butt" stroke-miterlimit="10.0"><path d="M 718.9787,179.7447 l -0.0000,-32.6809 h -32.6809 l -0.0000,32.6809 Z"/></g><g stroke-linejoin="miter" stroke-opacity="1.0" fill-opacity="1.0" stroke="rgb(225,163,238)" stroke-width="3.072" fill="rgb(225,163,238)" stroke-linecap="butt" stroke-miterlimit="10.0"><path d="M 710.8085,163.4043 c 0.0000,-4.5123 -3.6579,-8.1702 -8.1702 -8.1702c -4.5123,-0.0000 -8.1702,3.6579 -8.1702 8.1702c -0.0000,4.5123 3.6579,8.1702 8.1702 8.1702c 4.5123,0.0000 8.1702,-3.6579 8.1702 -8.1702Z"/></g><g stroke-linejoin="miter" stroke-opacity="1.0" fill-opacity="1.0" stroke="rgb(107,107,107)" stroke-width="3.072" fill="rgb(107,107,107)" stroke-linecap="butt" stroke-miterlimit="10.0"><path d="M 669.9574,179.7447 l -0.0000,-32.6809 h -32.6809 l -0.0000,32.6809 Z"/></g><g stroke-linejoin="miter" stroke-opacity="1.0" fill-opacity="1.0" stroke="rgb(111,194,239)" stroke-width="3.072" fill="rgb(111,194,239)" stroke-linecap="butt" stroke-miterlimit="10.0"><path d="M 661.7872,163.4043 c 0.0000,-4.5123 -3.6579,-8.1702 -8.1702 -8.1702c -4.5123,-0.0000 -8.1702,3.6579 -8.1702 8.1702c -0.0000,4.5123 3.6579,8.1702 8.1702 8.1702c 4.5123,0.0000 8.1702,-3.6579 8.1702 -8.1702Z"/></g><g stroke-linejoin="miter" stroke-opacity="1.0" fill-opacity="1.0" stroke="rgb(107,107,107)" stroke-width="3.072" fill="rgb(107,107,107)" stroke-linecap="butt" stroke-miterlimit="10.0"><path d="M 620.9362,179.7447 l -0.0000,-32.6809 h -32.6809 l -0.0000,32.6809 Z"/></g><g stroke-linejoin="miter" stroke-opacity="1.0" fill-opacity="1.0" stroke="rgb(18,207,192)" stroke-width="3.072" fill="rgb(18,207,192)" stroke-linecap="butt" stroke-miterlimit="10.0"><path d="M 612.7660,163.4043 c 0.0000,-4.5123 -3.6579,-8.1702 -8.1702 -8.1702c -4.5123,-0.0000 -8.1702,3.6579 -8.1702 8.1702c -0.0000,4.5123 3.6579,8.1702 8.1702 8.1702c 4.5123,0.0000 8.1702,-3.6579 8.1702 -8.1702Z"/></g><g stroke-linejoin="miter" stroke-opacity="1.0" fill-opacity="1.0" stroke="rgb(107,107,107)" stroke-width="3.072" fill="rgb(107,107,107)" stroke-linecap="butt" stroke-miterlimit="10.0"><path d="M 571.9149,179.7447 l -0.0000,-32.6809 h -32.6809 l -0.0000,32.6809 Z"/></g><g stroke-linejoin="miter" stroke-opacity="1.0" fill-opacity="1.0" stroke="rgb(172,194,103)" stroke-width="3.072" fill="rgb(172,194,103)" stroke-linecap="butt" stroke-miterlimit="10.0"><path d="M 563.7447,163.4043 c 0.0000,-4.5123 -3.6579,-8.1702 -8.1702 -8.1702c -4.5123,-0.0000 -8.1702,3.6579 -8.1702 8.1702c -0.0000,4.5123 3.6579,8.1702 8.1702 8.1702c 4.5123,0.0000 8.1702,-3.6579 8.1702 -8.1702Z"/></g><g stroke-linejoin="miter" stroke-opacity="1.0" fill-opacity="1.0" stroke="rgb(107,107,107)" stroke-width="3.072" fill="rgb(107,107,107)" stroke-linecap="butt" stroke-miterlimit="10.0"><path d="M 522.8936,179.7447 l -0.0000,-32.6809 h -32.6809 l -0.0000,32.6809 Z"/></g><g stroke-linejoin="miter" stroke-opacity="1.0" fill-opacity="1.0" stroke="rgb(221,178,111)" stroke-width="3.072" fill="rgb(221,178,111)" stroke-linecap="butt" stroke-miterlimit="10.0"><path d="M 514.7234,163.4043 c 0.0000,-4.5123 -3.6579,-8.1702 -8.1702 -8.1702c -4.5123,-0.0000 -8.1702,3.6579 -8.1702 8.1702c -0.0000,4.5123 3.6579,8.1702 8.1702 8.1702c 4.5123,0.0000 8.1702,-3.6579 8.1702 -8.1702Z"/></g><g stroke-linejoin="miter" stroke-opacity="1.0" fill-opacity="1.0" stroke="rgb(107,107,107)" stroke-width="3.072" fill="rgb(107,107,107)" stroke-linecap="butt" stroke-miterlimit="10.0"><path d="M 473.8723,179.7447 l -0.0000,-32.6809 h -32.6809 l -0.0000,32.6809 Z"/></g><g stroke-linejoin="miter" stroke-opacity="1.0" fill-opacity="1.0" stroke="rgb(237,169,135)" stroke-width="3.072" fill="rgb(237,169,135)" stroke-linecap="butt" stroke-miterlimit="10.0"><path d="M 465.7021,163.4043 c 0.0000,-4.5123 -3.6579,-8.1702 -8.1702 -8.1702c -4.5123,-0.0000 -8.1702,3.6579 -8.1702 8.1702c -0.0000,4.5123 3.6579,8.1702 8.1702 8.1702c 4.5123,0.0000 8.1702,-3.6579 8.1702 -8.1702Z"/></g><g stroke-linejoin="miter" stroke-opacity="1.0" fill-opacity="1.0" stroke="rgb(107,107,107)" stroke-width="3.072" fill="rgb(107,107,107)" stroke-linecap="butt" stroke-miterlimit="10.0"><path d="M 424.8511,179.7447 l -0.0000,-32.6809 h -32.6809 l -0.0000,32.6809 Z"/></g><g stroke-linejoin="miter" stroke-opacity="1.0" fill-opacity="1.0" stroke="rgb(251,159,177)" stroke-width="3.072" fill="rgb(251,159,177)" stroke-linecap="butt" stroke-miterlimit="10.0"><path d="M 416.6809,163.4043 c 0.0000,-4.5123 -3.6579,-8.1702 -8.1702 -8.1702c -4.5123,-0.0000 -8.1702,3.6579 -8.1702 8.1702c -0.0000,4.5123 3.6579,8.1702 8.1702 8.1702c 4.5123,0.0000 8.1702,-3.6579 8.1702 -8.1702Z"/></g><g stroke-linejoin="miter" stroke-opacity="1.0" fill-opacity="1.0" stroke="rgb(107,107,107)" stroke-width="3.072" fill="rgb(107,107,107)" stroke-linecap="butt" stroke-miterlimit="10.0"><path d="M 375.8298,179.7447 l -0.0000,-32.6809 h -32.6809 l -0.0000,32.6809 Z"/></g><g stroke-linejoin="miter" stroke-opacity="1.0" fill-opacity="1.0" stroke="rgb(245,245,245)" stroke-width="3.072" fill="rgb(245,245,245)" stroke-linecap="butt" stroke-miterlimit="10.0"><path d="M 367.6596,163.4043 c 0.0000,-4.5123 -3.6579,-8.1702 -8.1702 -8.1702c -4.5123,-0.0000 -8.1702,3.6579 -8.1702 8.1702c -0.0000,4.5123 3.6579,8.1702 8.1702 8.1702c 4.5123,0.0000 8.1702,-3.6579 8.1702 -8.1702Z"/></g><g stroke-linejoin="miter" stroke-opacity="1.0" fill-opacity="1.0" stroke="rgb(107,107,107)" stroke-width="3.072" fill="rgb(107,107,107)" stroke-linecap="butt" stroke-miterlimit="10.0"><path d="M 326.8085,179.7447 l -0.0000,-32.6809 h -32.6809 l -0.0000,32.6809 Z"/></g><g stroke-linejoin="miter" stroke-opacity="1.0" fill-opacity="1.0" stroke="rgb(209,209,209)" stroke-width="3.072" fill="rgb(209,209,209)" stroke-linecap="butt" stroke-miterlimit="10.0"><path d="M 318.6383,163.4043 c 0.0000,-4.5123 -3.6579,-8.1702 -8.1702 -8.1702c -4.5123,-0.0000 -8.1702,3.6579 -8.1702 8.1702c -0.0000,4.5123 3.6579,8.1702 8.1702 8.1702c 4.5123,0.0000 8.1702,-3.6579 8.1702 -8.1702Z"/></g><g stroke-linejoin="miter" stroke-opacity="1.0" fill-opacity="1.0" stroke="rgb(107,107,107)" stroke-width="3.072" fill="rgb(107,107,107)" stroke-linecap="butt" stroke-miterlimit="10.0"><path d="M 277.7872,179.7447 l -0.0000,-32.6809 h -32.6809 l -0.0000,32.6809 Z"/></g><g stroke-linejoin="miter" stroke-opacity="1.0" fill-opacity="1.0" stroke="rgb(173,173,173)" stroke-width="3.072" fill="rgb(173,173,173)" stroke-linecap="butt" stroke-miterlimit="10.0"><path d="M 269.6170,163.4043 c 0.0000,-4.5123 -3.6579,-8.1702 -8.1702 -8.1702c -4.5123,-0.0000 -8.1702,3.6579 -8.1702 8.1702c -0.0000,4.5123 3.6579,8.1702 8.1702 8.1702c 4.5123,0.0000 8.1702,-3.6579 8.1702 -8.1702Z"/></g><g stroke-linejoin="miter" stroke-opacity="1.0" fill-opacity="1.0" stroke="rgb(107,107,107)" stroke-width="3.072" fill="rgb(107,107,107)" stroke-linecap="butt" stroke-miterlimit="10.0"><path d="M 228.7660,179.7447 l -0.0000,-32.6809 h -32.6809 l -0.0000,32.6809 Z"/></g><g stroke-linejoin="miter" stroke-opacity="1.0" fill-opacity="1.0" stroke="rgb(140,140,140)" stroke-width="3.072" fill="rgb(140,140,140)" stroke-linecap="butt" stroke-miterlimit="10.0"><path d="M 220.5957,163.4043 c 0.0000,-4.5123 -3.6579,-8.1702 -8.1702 -8.1702c -4.5123,-0.0000 -8.1702,3.6579 -8.1702 8.1702c -0.0000,4.5123 3.6579,8.1702 8.1702 8.1702c 4.5123,0.0000 8.1702,-3.6579 8.1702 -8.1702Z"/></g><g stroke-linejoin="miter" stroke-opacity="1.0" fill-opacity="1.0" stroke="rgb(107,107,107)" stroke-width="3.072" fill="rgb(107,107,107)" stroke-linecap="butt" stroke-miterlimit="10.0"><path d="M 179.7447,179.7447 l -0.0000,-32.6809 h -32.6809 l -0.0000,32.6809 Z"/></g><g stroke-linejoin="miter" stroke-opacity="1.0" fill-opacity="1.0" stroke="rgb(107,107,107)" stroke-width="3.072" fill="rgb(107,107,107)" stroke-linecap="butt" stroke-miterlimit="10.0"><path d="M 171.5745,163.4043 c 0.0000,-4.5123 -3.6579,-8.1702 -8.1702 -8.1702c -4.5123,-0.0000 -8.1702,3.6579 -8.1702 8.1702c -0.0000,4.5123 3.6579,8.1702 8.1702 8.1702c 4.5123,0.0000 8.1702,-3.6579 8.1702 -8.1702Z"/></g><g stroke-linejoin="miter" stroke-opacity="1.0" fill-opacity="1.0" stroke="rgb(76,76,76)" stroke-width="3.072" fill="rgb(76,76,76)" stroke-linecap="butt" stroke-miterlimit="10.0"><path d="M 768.0000,130.7234 l -0.0000,-32.6809 h -32.6809 l -0.0000,32.6809 Z"/></g><g stroke-linejoin="miter" stroke-opacity="1.0" fill-opacity="1.0" stroke="rgb(222,175,143)" stroke-width="3.072" fill="rgb(222,175,143)" stroke-linecap="butt" stroke-miterlimit="10.0"><path d="M 759.8298,114.3830 c 0.0000,-4.5123 -3.6579,-8.1702 -8.1702 -8.1702c -4.5123,-0.0000 -8.1702,3.6579 -8.1702 8.1702c -0.0000,4.5123 3.6579,8.1702 8.1702 8.1702c 4.5123,0.0000 8.1702,-3.6579 8.1702 -8.1702Z"/></g><g stroke-linejoin="miter" stroke-opacity="1.0" fill-opacity="1.0" stroke="rgb(76,76,76)" stroke-width="3.072" fill="rgb(76,76,76)" stroke-linecap="butt" stroke-miterlimit="10.0"><path d="M 718.9787,130.7234 l -0.0000,-32.6809 h -32.6809 l -0.0000,32.6809 Z"/></g><g stroke-linejoin="miter" stroke-opacity="1.0" fill-opacity="1.0" stroke="rgb(225,163,238)" stroke-width="3.072" fill="rgb(225,163,238)" stroke-linecap="butt" stroke-miterlimit="10.0"><path d="M 710.8085,114.3830 c 0.0000,-4.5123 -3.6579,-8.1702 -8.1702 -8.1702c -4.5123,-0.0000 -8.1702,3.6579 -8.1702 8.1702c -0.0000,4.5123 3.6579,8.1702 8.1702 8.1702c 4.5123,0.0000 8.1702,-3.6579 8.1702 -8.1702Z"/></g><g stroke-linejoin="miter" stroke-opacity="1.0" fill-opacity="1.0" stroke="rgb(76,76,76)" stroke-width="3.072" fill="rgb(76,76,76)" stroke-linecap="butt" stroke-miterlimit="10.0"><path d="M 669.9574,130.7234 l -0.0000,-32.6809 h -32.6809 l -0.0000,32.6809 Z"/></g><g stroke-linejoin="miter" stroke-opacity="1.0" fill-opacity="1.0" stroke="rgb(111,194,239)" stroke-width="3.072" fill="rgb(111,194,239)" stroke-linecap="butt" stroke-miterlimit="10.0"><path d="M 661.7872,114.3830 c 0.0000,-4.5123 -3.6579,-8.1702 -8.1702 -8.1702c -4.5123,-0.0000 -8.1702,3.6579 -8.1702 8.1702c -0.0000,4.5123 3.6579,8.1702 8.1702 8.1702c 4.5123,0.0000 8.1702,-3.6579 8.1702 -8.1702Z"/></g><g stroke-linejoin="miter" stroke-opacity="1.0" fill-opacity="1.0" stroke="rgb(76,76,76)" stroke-width="3.072" fill="rgb(76,76,76)" stroke-linecap="butt" stroke-miterlimit="10.0"><path d="M 620.9362,130.7234 l -0.0000,-32.6809 h -32.6809 l -0.0000,32.6809 Z"/></g><g stroke-linejoin="miter" stroke-opacity="1.0" fill-opacity="1.0" stroke="rgb(18,207,192)" stroke-width="3.072" fill="rgb(18,207,192)" stroke-linecap="butt" stroke-miterlimit="10.0"><path d="M 612.7660,114.3830 c 0.0000,-4.5123 -3.6579,-8.1702 -8.1702 -8.1702c -4.5123,-0.0000 -8.1702,3.6579 -8.1702 8.1702c -0.0000,4.5123 3.6579,8.1702 8.1702 8.1702c 4.5123,0.0000 8.1702,-3.6579 8.1702 -8.1702Z"/></g><g stroke-linejoin="miter" stroke-opacity="1.0" fill-opacity="1.0" stroke="rgb(76,76,76)" stroke-width="3.072" fill="rgb(76,76,76)" stroke-linecap="butt" stroke-miterlimit="10.0"><path d="M 571.9149,130.7234 l -0.0000,-32.6809 h -32.6809 l -0.0000,32.6809 Z"/></g><g stroke-linejoin="miter" stroke-opacity="1.0" fill-opacity="1.0" stroke="rgb(172,194,103)" stroke-width="3.072" fill="rgb(172,194,103)" stroke-linecap="butt" stroke-miterlimit="10.0"><path d="M 563.7447,114.3830 c 0.0000,-4.5123 -3.6579,-8.1702 -8.1702 -8.1702c -4.5123,-0.0000 -8.1702,3.6579 -8.1702 8.1702c -0.0000,4.5123 3.6579,8.1702 8.1702 8.1702c 4.5123,0.0000 8.1702,-3.6579 8.1702 -8.1702Z"/></g><g stroke-linejoin="miter" stroke-opacity="1.0" fill-opacity="1.0" stroke="rgb(76,76,76)" stroke-width="3.072" fill="rgb(76,76,76)" stroke-linecap="butt" stroke-miterlimit="10.0"><path d="M 522.8936,130.7234 l -0.0000,-32.6809 h -32.6809 l -0.0000,32.6809 Z"/></g><g stroke-linejoin="miter" stroke-opacity="1.0" fill-opacity="1.0" stroke="rgb(221,178,111)" stroke-width="3.072" fill="rgb(221,178,111)" stroke-linecap="butt" stroke-miterlimit="10.0"><path d="M 514.7234,114.3830 c 0.0000,-4.5123 -3.6579,-8.1702 -8.1702 -8.1702c -4.5123,-0.0000 -8.1702,3.6579 -8.1702 8.1702c -0.0000,4.5123 3.6579,8.1702 8.1702 8.1702c 4.5123,0.0000 8.1702,-3.6579 8.1702 -8.1702Z"/></g><g stroke-linejoin="miter" stroke-opacity="1.0" fill-opacity="1.0" stroke="rgb(76,76,76)" stroke-width="3.072" fill="rgb(76,76,76)" stroke-linecap="butt" stroke-miterlimit="10.0"><path d="M 473.8723,130.7234 l -0.0000,-32.6809 h -32.6809 l -0.0000,32.6809 Z"/></g><g stroke-linejoin="miter" stroke-opacity="1.0" fill-opacity="1.0" stroke="rgb(237,169,135)" stroke-width="3.072" fill="rgb(237,169,135)" stroke-linecap="butt" stroke-miterlimit="10.0"><path d="M 465.7021,114.3830 c 0.0000,-4.5123 -3.6579,-8.1702 -8.1702 -8.1702c -4.5123,-0.0000 -8.1702,3.6579 -8.1702 8.1702c -0.0000,4.5123 3.6579,8.1702 8.1702 8.1702c 4.5123,0.0000 8.1702,-3.6579 8.1702 -8.1702Z"/></g><g stroke-linejoin="miter" stroke-opacity="1.0" fill-opacity="1.0" stroke="rgb(76,76,76)" stroke-width="3.072" fill="rgb(76,76,76)" stroke-linecap="butt" stroke-miterlimit="10.0"><path d="M 424.8511,130.7234 l -0.0000,-32.6809 h -32.6809 l -0.0000,32.6809 Z"/></g><g stroke-linejoin="miter" stroke-opacity="1.0" fill-opacity="1.0" stroke="rgb(251,159,177)" stroke-width="3.072" fill="rgb(251,159,177)" stroke-linecap="butt" stroke-miterlimit="10.0"><path d="M 416.6809,114.3830 c 0.0000,-4.5123 -3.6579,-8.1702 -8.1702 -8.1702c -4.5123,-0.0000 -8.1702,3.6579 -8.1702 8.1702c -0.0000,4.5123 3.6579,8.1702 8.1702 8.1702c 4.5123,0.0000 8.1702,-3.6579 8.1702 -8.1702Z"/></g><g stroke-linejoin="miter" stroke-opacity="1.0" fill-opacity="1.0" stroke="rgb(76,76,76)" stroke-width="3.072" fill="rgb(76,76,76)" stroke-linecap="butt" stroke-miterlimit="10.0"><path d="M 375.8298,130.7234 l -0.0000,-32.6809 h -32.6809 l -0.0000,32.6809 Z"/></g><g stroke-linejoin="miter" stroke-opacity="1.0" fill-opacity="1.0" stroke="rgb(245,245,245)" stroke-width="3.072" fill="rgb(245,245,245)" stroke-linecap="butt" stroke-miterlimit="10.0"><path d="M 367.6596,114.3830 c 0.0000,-4.5123 -3.6579,-8.1702 -8.1702 -8.1702c -4.5123,-0.0000 -8.1702,3.6579 -8.1702 8.1702c -0.0000,4.5123 3.6579,8.1702 8.1702 8.1702c 4.5123,0.0000 8.1702,-3.6579 8.1702 -8.1702Z"/></g><g stroke-linejoin="miter" stroke-opacity="1.0" fill-opacity="1.0" stroke="rgb(76,76,76)" stroke-width="3.072" fill="rgb(76,76,76)" stroke-linecap="butt" stroke-miterlimit="10.0"><path d="M 326.8085,130.7234 l -0.0000,-32.6809 h -32.6809 l -0.0000,32.6809 Z"/></g><g stroke-linejoin="miter" stroke-opacity="1.0" fill-opacity="1.0" stroke="rgb(209,209,209)" stroke-width="3.072" fill="rgb(209,209,209)" stroke-linecap="butt" stroke-miterlimit="10.0"><path d="M 318.6383,114.3830 c 0.0000,-4.5123 -3.6579,-8.1702 -8.1702 -8.1702c -4.5123,-0.0000 -8.1702,3.6579 -8.1702 8.1702c -0.0000,4.5123 3.6579,8.1702 8.1702 8.1702c 4.5123,0.0000 8.1702,-3.6579 8.1702 -8.1702Z"/></g><g stroke-linejoin="miter" stroke-opacity="1.0" fill-opacity="1.0" stroke="rgb(76,76,76)" stroke-width="3.072" fill="rgb(76,76,76)" stroke-linecap="butt" stroke-miterlimit="10.0"><path d="M 277.7872,130.7234 l -0.0000,-32.6809 h -32.6809 l -0.0000,32.6809 Z"/></g><g stroke-linejoin="miter" stroke-opacity="1.0" fill-opacity="1.0" stroke="rgb(173,173,173)" stroke-width="3.072" fill="rgb(173,173,173)" stroke-linecap="butt" stroke-miterlimit="10.0"><path d="M 269.6170,114.3830 c 0.0000,-4.5123 -3.6579,-8.1702 -8.1702 -8.1702c -4.5123,-0.0000 -8.1702,3.6579 -8.1702 8.1702c -0.0000,4.5123 3.6579,8.1702 8.1702 8.1702c 4.5123,0.0000 8.1702,-3.6579 8.1702 -8.1702Z"/></g><g stroke-linejoin="miter" stroke-opacity="1.0" fill-opacity="1.0" stroke="rgb(76,76,76)" stroke-width="3.072" fill="rgb(76,76,76)" stroke-linecap="butt" stroke-miterlimit="10.0"><path d="M 228.7660,130.7234 l -0.0000,-32.6809 h -32.6809 l -0.0000,32.6809 Z"/></g><g stroke-linejoin="miter" stroke-opacity="1.0" fill-opacity="1.0" stroke="rgb(140,140,140)" stroke-width="3.072" fill="rgb(140,140,140)" stroke-linecap="butt" stroke-miterlimit="10.0"><path d="M 220.5957,114.3830 c 0.0000,-4.5123 -3.6579,-8.1702 -8.1702 -8.1702c -4.5123,-0.0000 -8.1702,3.6579 -8.1702 8.1702c -0.0000,4.5123 3.6579,8.1702 8.1702 8.1702c 4.5123,0.0000 8.1702,-3.6579 8.1702 -8.1702Z"/></g><g stroke-linejoin="miter" stroke-opacity="1.0" fill-opacity="1.0" stroke="rgb(76,76,76)" stroke-width="3.072" fill="rgb(76,76,76)" stroke-linecap="butt" stroke-miterlimit="10.0"><path d="M 179.7447,130.7234 l -0.0000,-32.6809 h -32.6809 l -0.0000,32.6809 Z"/></g><g stroke-linejoin="miter" stroke-opacity="1.0" fill-opacity="1.0" stroke="rgb(107,107,107)" stroke-width="3.072" fill="rgb(107,107,107)" stroke-linecap="butt" stroke-miterlimit="10.0"><path d="M 171.5745,114.3830 c 0.0000,-4.5123 -3.6579,-8.1702 -8.1702 -8.1702c -4.5123,-0.0000 -8.1702,3.6579 -8.1702 8.1702c -0.0000,4.5123 3.6579,8.1702 8.1702 8.1702c 4.5123,0.0000 8.1702,-3.6579 8.1702 -8.1702Z"/></g><g stroke-linejoin="miter" stroke-opacity="1.0" fill-opacity="1.0" stroke="rgb(76,76,76)" stroke-width="3.072" fill="rgb(76,76,76)" stroke-linecap="butt" stroke-miterlimit="10.0"><path d="M 130.7234,130.7234 l -0.0000,-32.6809 h -32.6809 l -0.0000,32.6809 Z"/></g><g stroke-linejoin="miter" stroke-opacity="1.0" fill-opacity="1.0" stroke="rgb(76,76,76)" stroke-width="3.072" fill="rgb(76,76,76)" stroke-linecap="butt" stroke-miterlimit="10.0"><path d="M 122.5532,114.3830 c 0.0000,-4.5123 -3.6579,-8.1702 -8.1702 -8.1702c -4.5123,-0.0000 -8.1702,3.6579 -8.1702 8.1702c -0.0000,4.5123 3.6579,8.1702 8.1702 8.1702c 4.5123,0.0000 8.1702,-3.6579 8.1702 -8.1702Z"/></g><g stroke-linejoin="miter" stroke-opacity="1.0" fill-opacity="1.0" stroke="rgb(47,47,47)" stroke-width="3.072" fill="rgb(47,47,47)" stroke-linecap="butt" stroke-miterlimit="10.0"><path d="M 768.0000,81.7021 l -0.0000,-32.6809 h -32.6809 l -0.0000,32.6809 Z"/></g><g stroke-linejoin="miter" stroke-opacity="1.0" fill-opacity="1.0" stroke="rgb(222,175,143)" stroke-width="3.072" fill="rgb(222,175,143)" stroke-linecap="butt" stroke-miterlimit="10.0"><path d="M 759.8298,65.3617 c 0.0000,-4.5123 -3.6579,-8.1702 -8.1702 -8.1702c -4.5123,-0.0000 -8.1702,3.6579 -8.1702 8.1702c -0.0000,4.5123 3.6579,8.1702 8.1702 8.1702c 4.5123,0.0000 8.1702,-3.6579 8.1702 -8.1702Z"/></g><g stroke-linejoin="miter" stroke-opacity="1.0" fill-opacity="1.0" stroke="rgb(47,47,47)" stroke-width="3.072" fill="rgb(47,47,47)" stroke-linecap="butt" stroke-miterlimit="10.0"><path d="M 718.9787,81.7021 l -0.0000,-32.6809 h -32.6809 l -0.0000,32.6809 Z"/></g><g stroke-linejoin="miter" stroke-opacity="1.0" fill-opacity="1.0" stroke="rgb(225,163,238)" stroke-width="3.072" fill="rgb(225,163,238)" stroke-linecap="butt" stroke-miterlimit="10.0"><path d="M 710.8085,65.3617 c 0.0000,-4.5123 -3.6579,-8.1702 -8.1702 -8.1702c -4.5123,-0.0000 -8.1702,3.6579 -8.1702 8.1702c -0.0000,4.5123 3.6579,8.1702 8.1702 8.1702c 4.5123,0.0000 8.1702,-3.6579 8.1702 -8.1702Z"/></g><g stroke-linejoin="miter" stroke-opacity="1.0" fill-opacity="1.0" stroke="rgb(47,47,47)" stroke-width="3.072" fill="rgb(47,47,47)" stroke-linecap="butt" stroke-miterlimit="10.0"><path d="M 669.9574,81.7021 l -0.0000,-32.6809 h -32.6809 l -0.0000,32.6809 Z"/></g><g stroke-linejoin="miter" stroke-opacity="1.0" fill-opacity="1.0" stroke="rgb(111,194,239)" stroke-width="3.072" fill="rgb(111,194,239)" stroke-linecap="butt" stroke-miterlimit="10.0"><path d="M 661.7872,65.3617 c 0.0000,-4.5123 -3.6579,-8.1702 -8.1702 -8.1702c -4.5123,-0.0000 -8.1702,3.6579 -8.1702 8.1702c -0.0000,4.5123 3.6579,8.1702 8.1702 8.1702c 4.5123,0.0000 8.1702,-3.6579 8.1702 -8.1702Z"/></g><g stroke-linejoin="miter" stroke-opacity="1.0" fill-opacity="1.0" stroke="rgb(47,47,47)" stroke-width="3.072" fill="rgb(47,47,47)" stroke-linecap="butt" stroke-miterlimit="10.0"><path d="M 620.9362,81.7021 l -0.0000,-32.6809 h -32.6809 l -0.0000,32.6809 Z"/></g><g stroke-linejoin="miter" stroke-opacity="1.0" fill-opacity="1.0" stroke="rgb(18,207,192)" stroke-width="3.072" fill="rgb(18,207,192)" stroke-linecap="butt" stroke-miterlimit="10.0"><path d="M 612.7660,65.3617 c 0.0000,-4.5123 -3.6579,-8.1702 -8.1702 -8.1702c -4.5123,-0.0000 -8.1702,3.6579 -8.1702 8.1702c -0.0000,4.5123 3.6579,8.1702 8.1702 8.1702c 4.5123,0.0000 8.1702,-3.6579 8.1702 -8.1702Z"/></g><g stroke-linejoin="miter" stroke-opacity="1.0" fill-opacity="1.0" stroke="rgb(47,47,47)" stroke-width="3.072" fill="rgb(47,47,47)" stroke-linecap="butt" stroke-miterlimit="10.0"><path d="M 571.9149,81.7021 l -0.0000,-32.6809 h -32.6809 l -0.0000,32.6809 Z"/></g><g stroke-linejoin="miter" stroke-opacity="1.0" fill-opacity="1.0" stroke="rgb(172,194,103)" stroke-width="3.072" fill="rgb(172,194,103)" stroke-linecap="butt" stroke-miterlimit="10.0"><path d="M 563.7447,65.3617 c 0.0000,-4.5123 -3.6579,-8.1702 -8.1702 -8.1702c -4.5123,-0.0000 -8.1702,3.6579 -8.1702 8.1702c -0.0000,4.5123 3.6579,8.1702 8.1702 8.1702c 4.5123,0.0000 8.1702,-3.6579 8.1702 -8.1702Z"/></g><g stroke-linejoin="miter" stroke-opacity="1.0" fill-opacity="1.0" stroke="rgb(47,47,47)" stroke-width="3.072" fill="rgb(47,47,47)" stroke-linecap="butt" stroke-miterlimit="10.0"><path d="M 522.8936,81.7021 l -0.0000,-32.6809 h -32.6809 l -0.0000,32.6809 Z"/></g><g stroke-linejoin="miter" stroke-opacity="1.0" fill-opacity="1.0" stroke="rgb(221,178,111)" stroke-width="3.072" fill="rgb(221,178,111)" stroke-linecap="butt" stroke-miterlimit="10.0"><path d="M 514.7234,65.3617 c 0.0000,-4.5123 -3.6579,-8.1702 -8.1702 -8.1702c -4.5123,-0.0000 -8.1702,3.6579 -8.1702 8.1702c -0.0000,4.5123 3.6579,8.1702 8.1702 8.1702c 4.5123,0.0000 8.1702,-3.6579 8.1702 -8.1702Z"/></g><g stroke-linejoin="miter" stroke-opacity="1.0" fill-opacity="1.0" stroke="rgb(47,47,47)" stroke-width="3.072" fill="rgb(47,47,47)" stroke-linecap="butt" stroke-miterlimit="10.0"><path d="M 473.8723,81.7021 l -0.0000,-32.6809 h -32.6809 l -0.0000,32.6809 Z"/></g><g stroke-linejoin="miter" stroke-opacity="1.0" fill-opacity="1.0" stroke="rgb(237,169,135)" stroke-width="3.072" fill="rgb(237,169,135)" stroke-linecap="butt" stroke-miterlimit="10.0"><path d="M 465.7021,65.3617 c 0.0000,-4.5123 -3.6579,-8.1702 -8.1702 -8.1702c -4.5123,-0.0000 -8.1702,3.6579 -8.1702 8.1702c -0.0000,4.5123 3.6579,8.1702 8.1702 8.1702c 4.5123,0.0000 8.1702,-3.6579 8.1702 -8.1702Z"/></g><g stroke-linejoin="miter" stroke-opacity="1.0" fill-opacity="1.0" stroke="rgb(47,47,47)" stroke-width="3.072" fill="rgb(47,47,47)" stroke-linecap="butt" stroke-miterlimit="10.0"><path d="M 424.8511,81.7021 l -0.0000,-32.6809 h -32.6809 l -0.0000,32.6809 Z"/></g><g stroke-linejoin="miter" stroke-opacity="1.0" fill-opacity="1.0" stroke="rgb(251,159,177)" stroke-width="3.072" fill="rgb(251,159,177)" stroke-linecap="butt" stroke-miterlimit="10.0"><path d="M 416.6809,65.3617 c 0.0000,-4.5123 -3.6579,-8.1702 -8.1702 -8.1702c -4.5123,-0.0000 -8.1702,3.6579 -8.1702 8.1702c -0.0000,4.5123 3.6579,8.1702 8.1702 8.1702c 4.5123,0.0000 8.1702,-3.6579 8.1702 -8.1702Z"/></g><g stroke-linejoin="miter" stroke-opacity="1.0" fill-opacity="1.0" stroke="rgb(47,47,47)" stroke-width="3.072" fill="rgb(47,47,47)" stroke-linecap="butt" stroke-miterlimit="10.0"><path d="M 375.8298,81.7021 l -0.0000,-32.6809 h -32.6809 l -0.0000,32.6809 Z"/></g><g stroke-linejoin="miter" stroke-opacity="1.0" fill-opacity="1.0" stroke="rgb(245,245,245)" stroke-width="3.072" fill="rgb(245,245,245)" stroke-linecap="butt" stroke-miterlimit="10.0"><path d="M 367.6596,65.3617 c 0.0000,-4.5123 -3.6579,-8.1702 -8.1702 -8.1702c -4.5123,-0.0000 -8.1702,3.6579 -8.1702 8.1702c -0.0000,4.5123 3.6579,8.1702 8.1702 8.1702c 4.5123,0.0000 8.1702,-3.6579 8.1702 -8.1702Z"/></g><g stroke-linejoin="miter" stroke-opacity="1.0" fill-opacity="1.0" stroke="rgb(47,47,47)" stroke-width="3.072" fill="rgb(47,47,47)" stroke-linecap="butt" stroke-miterlimit="10.0"><path d="M 326.8085,81.7021 l -0.0000,-32.6809 h -32.6809 l -0.0000,32.6809 Z"/></g><g stroke-linejoin="miter" stroke-opacity="1.0" fill-opacity="1.0" stroke="rgb(209,209,209)" stroke-width="3.072" fill="rgb(209,209,209)" stroke-linecap="butt" stroke-miterlimit="10.0"><path d="M 318.6383,65.3617 c 0.0000,-4.5123 -3.6579,-8.1702 -8.1702 -8.1702c -4.5123,-0.0000 -8.1702,3.6579 -8.1702 8.1702c -0.0000,4.5123 3.6579,8.1702 8.1702 8.1702c 4.5123,0.0000 8.1702,-3.6579 8.1702 -8.1702Z"/></g><g stroke-linejoin="miter" stroke-opacity="1.0" fill-opacity="1.0" stroke="rgb(47,47,47)" stroke-width="3.072" fill="rgb(47,47,47)" stroke-linecap="butt" stroke-miterlimit="10.0"><path d="M 277.7872,81.7021 l -0.0000,-32.6809 h -32.6809 l -0.0000,32.6809 Z"/></g><g stroke-linejoin="miter" stroke-opacity="1.0" fill-opacity="1.0" stroke="rgb(173,173,173)" stroke-width="3.072" fill="rgb(173,173,173)" stroke-linecap="butt" stroke-miterlimit="10.0"><path d="M 269.6170,65.3617 c 0.0000,-4.5123 -3.6579,-8.1702 -8.1702 -8.1702c -4.5123,-0.0000 -8.1702,3.6579 -8.1702 8.1702c -0.0000,4.5123 3.6579,8.1702 8.1702 8.1702c 4.5123,0.0000 8.1702,-3.6579 8.1702 -8.1702Z"/></g><g stroke-linejoin="miter" stroke-opacity="1.0" fill-opacity="1.0" stroke="rgb(47,47,47)" stroke-width="3.072" fill="rgb(47,47,47)" stroke-linecap="butt" stroke-miterlimit="10.0"><path d="M 228.7660,81.7021 l -0.0000,-32.6809 h -32.6809 l -0.0000,32.6809 Z"/></g><g stroke-linejoin="miter" stroke-opacity="1.0" fill-opacity="1.0" stroke="rgb(140,140,140)" stroke-width="3.072" fill="rgb(140,140,140)" stroke-linecap="butt" stroke-miterlimit="10.0"><path d="M 220.5957,65.3617 c 0.0000,-4.5123 -3.6579,-8.1702 -8.1702 -8.1702c -4.5123,-0.0000 -8.1702,3.6579 -8.1702 8.1702c -0.0000,4.5123 3.6579,8.1702 8.1702 8.1702c 4.5123,0.0000 8.1702,-3.6579 8.1702 -8.1702Z"/></g><g stroke-linejoin="miter" stroke-opacity="1.0" fill-opacity="1.0" stroke="rgb(47,47,47)" stroke-width="3.072" fill="rgb(47,47,47)" stroke-linecap="butt" stroke-miterlimit="10.0"><path d="M 179.7447,81.7021 l -0.0000,-32.6809 h -32.6809 l -0.0000,32.6809 Z"/></g><g stroke-linejoin="miter" stroke-opacity="1.0" fill-opacity="1.0" stroke="rgb(107,107,107)" stroke-width="3.072" fill="rgb(107,107,107)" stroke-linecap="butt" stroke-miterlimit="10.0"><path d="M 171.5745,65.3617 c 0.0000,-4.5123 -3.6579,-8.1702 -8.1702 -8.1702c -4.5123,-0.0000 -8.1702,3.6579 -8.1702 8.1702c -0.0000,4.5123 3.6579,8.1702 8.1702 8.1702c 4.5123,0.0000 8.1702,-3.6579 8.1702 -8.1702Z"/></g><g stroke-linejoin="miter" stroke-opacity="1.0" fill-opacity="1.0" stroke="rgb(47,47,47)" stroke-width="3.072" fill="rgb(47,47,47)" stroke-linecap="butt" stroke-miterlimit="10.0"><path d="M 130.7234,81.7021 l -0.0000,-32.6809 h -32.6809 l -0.0000,32.6809 Z"/></g><g stroke-linejoin="miter" stroke-opacity="1.0" fill-opacity="1.0" stroke="rgb(76,76,76)" stroke-width="3.072" fill="rgb(76,76,76)" stroke-linecap="butt" stroke-miterlimit="10.0"><path d="M 122.5532,65.3617 c 0.0000,-4.5123 -3.6579,-8.1702 -8.1702 -8.1702c -4.5123,-0.0000 -8.1702,3.6579 -8.1702 8.1702c -0.0000,4.5123 3.6579,8.1702 8.1702 8.1702c 4.5123,0.0000 8.1702,-3.6579 8.1702 -8.1702Z"/></g><g stroke-linejoin="miter" stroke-opacity="1.0" fill-opacity="1.0" stroke="rgb(47,47,47)" stroke-width="3.072" fill="rgb(47,47,47)" stroke-linecap="butt" stroke-miterlimit="10.0"><path d="M 81.7021,81.7021 l -0.0000,-32.6809 h -32.6809 l -0.0000,32.6809 Z"/></g><g stroke-linejoin="miter" stroke-opacity="1.0" fill-opacity="1.0" stroke="rgb(47,47,47)" stroke-width="3.072" fill="rgb(47,47,47)" stroke-linecap="butt" stroke-miterlimit="10.0"><path d="M 73.5319,65.3617 c 0.0000,-4.5123 -3.6579,-8.1702 -8.1702 -8.1702c -4.5123,-0.0000 -8.1702,3.6579 -8.1702 8.1702c -0.0000,4.5123 3.6579,8.1702 8.1702 8.1702c 4.5123,0.0000 8.1702,-3.6579 8.1702 -8.1702Z"/></g><g stroke-linejoin="miter" stroke-opacity="1.0" fill-opacity="1.0" stroke="rgb(21,21,21)" stroke-width="3.072" fill="rgb(21,21,21)" stroke-linecap="butt" stroke-miterlimit="10.0"><path d="M 768.0000,32.6809 l -0.0000,-32.6809 h -32.6809 l -0.0000,32.6809 Z"/></g><g stroke-linejoin="miter" stroke-opacity="1.0" fill-opacity="1.0" stroke="rgb(222,175,143)" stroke-width="3.072" fill="rgb(222,175,143)" stroke-linecap="butt" stroke-miterlimit="10.0"><path d="M 759.8298,16.3404 c 0.0000,-4.5123 -3.6579,-8.1702 -8.1702 -8.1702c -4.5123,-0.0000 -8.1702,3.6579 -8.1702 8.1702c -0.0000,4.5123 3.6579,8.1702 8.1702 8.1702c 4.5123,0.0000 8.1702,-3.6579 8.1702 -8.1702Z"/></g><g stroke-linejoin="miter" stroke-opacity="1.0" fill-opacity="1.0" stroke="rgb(21,21,21)" stroke-width="3.072" fill="rgb(21,21,21)" stroke-linecap="butt" stroke-miterlimit="10.0"><path d="M 718.9787,32.6809 l -0.0000,-32.6809 h -32.6809 l -0.0000,32.6809 Z"/></g><g stroke-linejoin="miter" stroke-opacity="1.0" fill-opacity="1.0" stroke="rgb(225,163,238)" stroke-width="3.072" fill="rgb(225,163,238)" stroke-linecap="butt" stroke-miterlimit="10.0"><path d="M 710.8085,16.3404 c 0.0000,-4.5123 -3.6579,-8.1702 -8.1702 -8.1702c -4.5123,-0.0000 -8.1702,3.6579 -8.1702 8.1702c -0.0000,4.5123 3.6579,8.1702 8.1702 8.1702c 4.5123,0.0000 8.1702,-3.6579 8.1702 -8.1702Z"/></g><g stroke-linejoin="miter" stroke-opacity="1.0" fill-opacity="1.0" stroke="rgb(21,21,21)" stroke-width="3.072" fill="rgb(21,21,21)" stroke-linecap="butt" stroke-miterlimit="10.0"><path d="M 669.9574,32.6809 l -0.0000,-32.6809 h -32.6809 l -0.0000,32.6809 Z"/></g><g stroke-linejoin="miter" stroke-opacity="1.0" fill-opacity="1.0" stroke="rgb(111,194,239)" stroke-width="3.072" fill="rgb(111,194,239)" stroke-linecap="butt" stroke-miterlimit="10.0"><path d="M 661.7872,16.3404 c 0.0000,-4.5123 -3.6579,-8.1702 -8.1702 -8.1702c -4.5123,-0.0000 -8.1702,3.6579 -8.1702 8.1702c -0.0000,4.5123 3.6579,8.1702 8.1702 8.1702c 4.5123,0.0000 8.1702,-3.6579 8.1702 -8.1702Z"/></g><g stroke-linejoin="miter" stroke-opacity="1.0" fill-opacity="1.0" stroke="rgb(21,21,21)" stroke-width="3.072" fill="rgb(21,21,21)" stroke-linecap="butt" stroke-miterlimit="10.0"><path d="M 620.9362,32.6809 l -0.0000,-32.6809 h -32.6809 l -0.0000,32.6809 Z"/></g><g stroke-linejoin="miter" stroke-opacity="1.0" fill-opacity="1.0" stroke="rgb(18,207,192)" stroke-width="3.072" fill="rgb(18,207,192)" stroke-linecap="butt" stroke-miterlimit="10.0"><path d="M 612.7660,16.3404 c 0.0000,-4.5123 -3.6579,-8.1702 -8.1702 -8.1702c -4.5123,-0.0000 -8.1702,3.6579 -8.1702 8.1702c -0.0000,4.5123 3.6579,8.1702 8.1702 8.1702c 4.5123,0.0000 8.1702,-3.6579 8.1702 -8.1702Z"/></g><g stroke-linejoin="miter" stroke-opacity="1.0" fill-opacity="1.0" stroke="rgb(21,21,21)" stroke-width="3.072" fill="rgb(21,21,21)" stroke-linecap="butt" stroke-miterlimit="10.0"><path d="M 571.9149,32.6809 l -0.0000,-32.6809 h -32.6809 l -0.0000,32.6809 Z"/></g><g stroke-linejoin="miter" stroke-opacity="1.0" fill-opacity="1.0" stroke="rgb(172,194,103)" stroke-width="3.072" fill="rgb(172,194,103)" stroke-linecap="butt" stroke-miterlimit="10.0"><path d="M 563.7447,16.3404 c 0.0000,-4.5123 -3.6579,-8.1702 -8.1702 -8.1702c -4.5123,-0.0000 -8.1702,3.6579 -8.1702 8.1702c -0.0000,4.5123 3.6579,8.1702 8.1702 8.1702c 4.5123,0.0000 8.1702,-3.6579 8.1702 -8.1702Z"/></g><g stroke-linejoin="miter" stroke-opacity="1.0" fill-opacity="1.0" stroke="rgb(21,21,21)" stroke-width="3.072" fill="rgb(21,21,21)" stroke-linecap="butt" stroke-miterlimit="10.0"><path d="M 522.8936,32.6809 l -0.0000,-32.6809 h -32.6809 l -0.0000,32.6809 Z"/></g><g stroke-linejoin="miter" stroke-opacity="1.0" fill-opacity="1.0" stroke="rgb(221,178,111)" stroke-width="3.072" fill="rgb(221,178,111)" stroke-linecap="butt" stroke-miterlimit="10.0"><path d="M 514.7234,16.3404 c 0.0000,-4.5123 -3.6579,-8.1702 -8.1702 -8.1702c -4.5123,-0.0000 -8.1702,3.6579 -8.1702 8.1702c -0.0000,4.5123 3.6579,8.1702 8.1702 8.1702c 4.5123,0.0000 8.1702,-3.6579 8.1702 -8.1702Z"/></g><g stroke-linejoin="miter" stroke-opacity="1.0" fill-opacity="1.0" stroke="rgb(21,21,21)" stroke-width="3.072" fill="rgb(21,21,21)" stroke-linecap="butt" stroke-miterlimit="10.0"><path d="M 473.8723,32.6809 l -0.0000,-32.6809 h -32.6809 l -0.0000,32.6809 Z"/></g><g stroke-linejoin="miter" stroke-opacity="1.0" fill-opacity="1.0" stroke="rgb(237,169,135)" stroke-width="3.072" fill="rgb(237,169,135)" stroke-linecap="butt" stroke-miterlimit="10.0"><path d="M 465.7021,16.3404 c 0.0000,-4.5123 -3.6579,-8.1702 -8.1702 -8.1702c -4.5123,-0.0000 -8.1702,3.6579 -8.1702 8.1702c -0.0000,4.5123 3.6579,8.1702 8.1702 8.1702c 4.5123,0.0000 8.1702,-3.6579 8.1702 -8.1702Z"/></g><g stroke-linejoin="miter" stroke-opacity="1.0" fill-opacity="1.0" stroke="rgb(21,21,21)" stroke-width="3.072" fill="rgb(21,21,21)" stroke-linecap="butt" stroke-miterlimit="10.0"><path d="M 424.8511,32.6809 l -0.0000,-32.6809 h -32.6809 l -0.0000,32.6809 Z"/></g><g stroke-linejoin="miter" stroke-opacity="1.0" fill-opacity="1.0" stroke="rgb(251,159,177)" stroke-width="3.072" fill="rgb(251,159,177)" stroke-linecap="butt" stroke-miterlimit="10.0"><path d="M 416.6809,16.3404 c 0.0000,-4.5123 -3.6579,-8.1702 -8.1702 -8.1702c -4.5123,-0.0000 -8.1702,3.6579 -8.1702 8.1702c -0.0000,4.5123 3.6579,8.1702 8.1702 8.1702c 4.5123,0.0000 8.1702,-3.6579 8.1702 -8.1702Z"/></g><g stroke-linejoin="miter" stroke-opacity="1.0" fill-opacity="1.0" stroke="rgb(21,21,21)" stroke-width="3.072" fill="rgb(21,21,21)" stroke-linecap="butt" stroke-miterlimit="10.0"><path d="M 375.8298,32.6809 l -0.0000,-32.6809 h -32.6809 l -0.0000,32.6809 Z"/></g><g stroke-linejoin="miter" stroke-opacity="1.0" fill-opacity="1.0" stroke="rgb(245,245,245)" stroke-width="3.072" fill="rgb(245,245,245)" stroke-linecap="butt" stroke-miterlimit="10.0"><path d="M 367.6596,16.3404 c 0.0000,-4.5123 -3.6579,-8.1702 -8.1702 -8.1702c -4.5123,-0.0000 -8.1702,3.6579 -8.1702 8.1702c -0.0000,4.5123 3.6579,8.1702 8.1702 8.1702c 4.5123,0.0000 8.1702,-3.6579 8.1702 -8.1702Z"/></g><g stroke-linejoin="miter" stroke-opacity="1.0" fill-opacity="1.0" stroke="rgb(21,21,21)" stroke-width="3.072" fill="rgb(21,21,21)" stroke-linecap="butt" stroke-miterlimit="10.0"><path d="M 326.8085,32.6809 l -0.0000,-32.6809 h -32.6809 l -0.0000,32.6809 Z"/></g><g stroke-linejoin="miter" stroke-opacity="1.0" fill-opacity="1.0" stroke="rgb(209,209,209)" stroke-width="3.072" fill="rgb(209,209,209)" stroke-linecap="butt" stroke-miterlimit="10.0"><path d="M 318.6383,16.3404 c 0.0000,-4.5123 -3.6579,-8.1702 -8.1702 -8.1702c -4.5123,-0.0000 -8.1702,3.6579 -8.1702 8.1702c -0.0000,4.5123 3.6579,8.1702 8.1702 8.1702c 4.5123,0.0000 8.1702,-3.6579 8.1702 -8.1702Z"/></g><g stroke-linejoin="miter" stroke-opacity="1.0" fill-opacity="1.0" stroke="rgb(21,21,21)" stroke-width="3.072" fill="rgb(21,21,21)" stroke-linecap="butt" stroke-miterlimit="10.0"><path d="M 277.7872,32.6809 l -0.0000,-32.6809 h -32.6809 l -0.0000,32.6809 Z"/></g><g stroke-linejoin="miter" stroke-opacity="1.0" fill-opacity="1.0" stroke="rgb(173,173,173)" stroke-width="3.072" fill="rgb(173,173,173)" stroke-linecap="butt" stroke-miterlimit="10.0"><path d="M 269.6170,16.3404 c 0.0000,-4.5123 -3.6579,-8.1702 -8.1702 -8.1702c -4.5123,-0.0000 -8.1702,3.6579 -8.1702 8.1702c -0.0000,4.5123 3.6579,8.1702 8.1702 8.1702c 4.5123,0.0000 8.1702,-3.6579 8.1702 -8.1702Z"/></g><g stroke-linejoin="miter" stroke-opacity="1.0" fill-opacity="1.0" stroke="rgb(21,21,21)" stroke-width="3.072" fill="rgb(21,21,21)" stroke-linecap="butt" stroke-miterlimit="10.0"><path d="M 228.7660,32.6809 l -0.0000,-32.6809 h -32.6809 l -0.0000,32.6809 Z"/></g><g stroke-linejoin="miter" stroke-opacity="1.0" fill-opacity="1.0" stroke="rgb(140,140,140)" stroke-width="3.072" fill="rgb(140,140,140)" stroke-linecap="butt" stroke-miterlimit="10.0"><path d="M 220.5957,16.3404 c 0.0000,-4.5123 -3.6579,-8.1702 -8.1702 -8.1702c -4.5123,-0.0000 -8.1702,3.6579 -8.1702 8.1702c -0.0000,4.5123 3.6579,8.1702 8.1702 8.1702c 4.5123,0.0000 8.1702,-3.6579 8.1702 -8.1702Z"/></g><g stroke-linejoin="miter" stroke-opacity="1.0" fill-opacity="1.0" stroke="rgb(21,21,21)" stroke-width="3.072" fill="rgb(21,21,21)" stroke-linecap="butt" stroke-miterlimit="10.0"><path d="M 179.7447,32.6809 l -0.0000,-32.6809 h -32.6809 l -0.0000,32.6809 Z"/></g><g stroke-linejoin="miter" stroke-opacity="1.0" fill-opacity="1.0" stroke="rgb(107,107,107)" stroke-width="3.072" fill="rgb(107,107,107)" stroke-linecap="butt" stroke-miterlimit="10.0"><path d="M 171.5745,16.3404 c 0.0000,-4.5123 -3.6579,-8.1702 -8.1702 -8.1702c -4.5123,-0.0000 -8.1702,3.6579 -8.1702 8.1702c -0.0000,4.5123 3.6579,8.1702 8.1702 8.1702c 4.5123,0.0000 8.1702,-3.6579 8.1702 -8.1702Z"/></g><g stroke-linejoin="miter" stroke-opacity="1.0" fill-opacity="1.0" stroke="rgb(21,21,21)" stroke-width="3.072" fill="rgb(21,21,21)" stroke-linecap="butt" stroke-miterlimit="10.0"><path d="M 130.7234,32.6809 l -0.0000,-32.6809 h -32.6809 l -0.0000,32.6809 Z"/></g><g stroke-linejoin="miter" stroke-opacity="1.0" fill-opacity="1.0" stroke="rgb(76,76,76)" stroke-width="3.072" fill="rgb(76,76,76)" stroke-linecap="butt" stroke-miterlimit="10.0"><path d="M 122.5532,16.3404 c 0.0000,-4.5123 -3.6579,-8.1702 -8.1702 -8.1702c -4.5123,-0.0000 -8.1702,3.6579 -8.1702 8.1702c -0.0000,4.5123 3.6579,8.1702 8.1702 8.1702c 4.5123,0.0000 8.1702,-3.6579 8.1702 -8.1702Z"/></g><g stroke-linejoin="miter" stroke-opacity="1.0" fill-opacity="1.0" stroke="rgb(21,21,21)" stroke-width="3.072" fill="rgb(21,21,21)" stroke-linecap="butt" stroke-miterlimit="10.0"><path d="M 81.7021,32.6809 l -0.0000,-32.6809 h -32.6809 l -0.0000,32.6809 Z"/></g><g stroke-linejoin="miter" stroke-opacity="1.0" fill-opacity="1.0" stroke="rgb(47,47,47)" stroke-width="3.072" fill="rgb(47,47,47)" stroke-linecap="butt" stroke-miterlimit="10.0"><path d="M 73.5319,16.3404 c 0.0000,-4.5123 -3.6579,-8.1702 -8.1702 -8.1702c -4.5123,-0.0000 -8.1702,3.6579 -8.1702 8.1702c -0.0000,4.5123 3.6579,8.1702 8.1702 8.1702c 4.5123,0.0000 8.1702,-3.6579 8.1702 -8.1702Z"/></g><g stroke-linejoin="miter" stroke-opacity="1.0" fill-opacity="1.0" stroke="rgb(21,21,21)" stroke-width="3.072" fill="rgb(21,21,21)" stroke-linecap="butt" stroke-miterlimit="10.0"><path d="M 32.6809,32.6809 l -0.0000,-32.6809 h -32.6809 l -0.0000,32.6809 Z"/></g><g stroke-linejoin="miter" stroke-opacity="1.0" fill-opacity="1.0" stroke="rgb(21,21,21)" stroke-width="3.072" fill="rgb(21,21,21)" stroke-linecap="butt" stroke-miterlimit="10.0"><path d="M 24.5106,16.3404 c 0.0000,-4.5123 -3.6579,-8.1702 -8.1702 -8.1702c -4.5123,-0.0000 -8.1702,3.6579 -8.1702 8.1702c -0.0000,4.5123 3.6579,8.1702 8.1702 8.1702c 4.5123,0.0000 8.1702,-3.6579 8.1702 -8.1702Z"/></g></svg>