<?xml version="1.0" encoding="UTF-8"?>
<!DOCTYPE svg PUBLIC "-//W3C//DTD SVG 1.1//EN"
    "http://www.w3.org/Graphics/SVG/1.1/DTD/svg11.dtd"><svg xmlns="http://www.w3.org/2000/svg" height="512.0000" stroke-opacity="1" viewBox="0 0 512 512" font-size="1" width="512.0000" xmlns:xlink="http://www.w3.org/1999/xlink" stroke="rgb(0,0,0)" version="1.1"><defs></defs><g stroke-linejoin="miter" stroke-opacity="1.0" fill-opacity="1.0" stroke="rgb(0,0,0)" stroke-width="2.027858641962787" fill="rgb(138,217,306)" stroke-linecap="butt" stroke-miterlimit="10.0"><path d="M 284.2833,488.7273 c 0.0000,-12.8532 -10.4196,-23.2727 -23.2727 -23.2727c -12.8532,-0.0000 -23.2727,10.4196 -23.2727 23.2727c -0.0000,12.8532 10.4196,23.2727 23.2727 23.2727c 12.8532,0.0000 23.2727,-10.4196 23.2727 -23.2727Z"/></g><g stroke-linejoin="miter" stroke-opacity="1.0" fill-opacity="1.0" stroke="rgb(0,0,0)" stroke-width="2.027858641962787" fill="rgb(225,198,291)" stroke-linecap="butt" stroke-miterlimit="10.0"><path d="M 413.5797,449.5057 c 0.0000,-12.8532 -10.4196,-23.2727 -23.2727 -23.2727c -12.8532,-0.0000 -23.2727,10.4196 -23.2727 23.2727c -0.0000,12.8532 10.4196,23.2727 23.2727 23.2727c 12.8532,0.0000 23.2727,-10.4196 23.2727 -23.2727Z"/></g><g stroke-linejoin="miter" stroke-opacity="1.0" fill-opacity="1.0" stroke="rgb(0,0,0)" stroke-width="2.027858641962787" fill="rgb(281,180,249)" stroke-linecap="butt" stroke-miterlimit="10.0"><path d="M 499.2953,345.0609 c 0.0000,-12.8532 -10.4196,-23.2727 -23.2727 -23.2727c -12.8532,-0.0000 -23.2727,10.4196 -23.2727 23.2727c -0.0000,12.8532 10.4196,23.2727 23.2727 23.2727c 12.8532,0.0000 23.2727,-10.4196 23.2727 -23.2727Z"/></g><g stroke-linejoin="miter" stroke-opacity="1.0" fill-opacity="1.0" stroke="rgb(0,0,0)" stroke-width="2.027858641962787" fill="rgb(304,175,187)" stroke-linecap="butt" stroke-miterlimit="10.0"><path d="M 506.9894,188.4428 c 0.0000,-12.8532 -10.4196,-23.2727 -23.2727 -23.2727c -12.8532,-0.0000 -23.2727,10.4196 -23.2727 23.2727c -0.0000,12.8532 10.4196,23.2727 23.2727 23.2727c 12.8532,0.0000 23.2727,-10.4196 23.2727 -23.2727Z"/></g><g stroke-linejoin="miter" stroke-opacity="1.0" fill-opacity="1.0" stroke="rgb(0,0,0)" stroke-width="2.027858641962787" fill="rgb(283,191,135)" stroke-linecap="butt" stroke-miterlimit="10.0"><path d="M 411.7502,61.2844 c 0.0000,-12.8532 -10.4196,-23.2727 -23.2727 -23.2727c -12.8532,-0.0000 -23.2727,10.4196 -23.2727 23.2727c -0.0000,12.8532 10.4196,23.2727 23.2727 23.2727c 12.8532,0.0000 23.2727,-10.4196 23.2727 -23.2727Z"/></g><g stroke-linejoin="miter" stroke-opacity="1.0" fill-opacity="1.0" stroke="rgb(0,0,0)" stroke-width="2.027858641962787" fill="rgb(242,209,116)" stroke-linecap="butt" stroke-miterlimit="10.0"><path d="M 284.2833,23.2727 c 0.0000,-12.8532 -10.4196,-23.2727 -23.2727 -23.2727c -12.8532,-0.0000 -23.2727,10.4196 -23.2727 23.2727c -0.0000,12.8532 10.4196,23.2727 23.2727 23.2727c 12.8532,0.0000 23.2727,-10.4196 23.2727 -23.2727Z"/></g><g stroke-linejoin="miter" stroke-opacity="1.0" fill-opacity="1.0" stroke="rgb(0,0,0)" stroke-width="2.027858641962787" fill="rgb(166,229,144)" stroke-linecap="butt" stroke-miterlimit="10.0"><path d="M 119.7203,91.4370 c 0.0000,-12.8532 -10.4196,-23.2727 -23.2727 -23.2727c -12.8532,-0.0000 -23.2727,10.4196 -23.2727 23.2727c -0.0000,12.8532 10.4196,23.2727 23.2727 23.2727c 12.8532,0.0000 23.2727,-10.4196 23.2727 -23.2727Z"/></g><g stroke-linejoin="miter" stroke-opacity="1.0" fill-opacity="1.0" stroke="rgb(0,0,0)" stroke-width="2.027858641962787" fill="rgb(54,237,211)" stroke-linecap="butt" stroke-miterlimit="10.0"><path d="M 51.5560,256.0000 c 0.0000,-12.8532 -10.4196,-23.2727 -23.2727 -23.2727c -12.8532,-0.0000 -23.2727,10.4196 -23.2727 23.2727c -0.0000,12.8532 10.4196,23.2727 23.2727 23.2727c 12.8532,0.0000 23.2727,-10.4196 23.2727 -23.2727Z"/></g></svg>