<?xml version="1.0" encoding="UTF-8"?>
<!DOCTYPE svg PUBLIC "-//W3C//DTD SVG 1.1//EN"
    "http://www.w3.org/Graphics/SVG/1.1/DTD/svg11.dtd"><svg xmlns="http://www.w3.org/2000/svg" height="512.0000" stroke-opacity="1" viewBox="0 0 512 512" font-size="1" width="512.0000" xmlns:xlink="http://www.w3.org/1999/xlink" stroke="rgb(0,0,0)" version="1.1"><defs></defs><g stroke-linejoin="miter" stroke-opacity="1.0" fill-opacity="1.0" stroke="rgb(0,0,0)" stroke-width="2.009571190584364" fill="rgb(237,170,122)" stroke-linecap="butt" stroke-miterlimit="10.0"><path d="M 396.7795,63.6199 c 0.0000,-16.0455 -13.0075,-29.0530 -29.0530 -29.0530c -16.0455,-0.0000 -29.0530,13.0075 -29.0530 29.0530c -0.0000,16.0455 13.0075,29.0530 29.0530 29.0530c 16.0455,0.0000 29.0530,-13.0075 29.0530 -29.0530Z"/></g><g stroke-linejoin="miter" stroke-opacity="1.0" fill-opacity="1.0" stroke="rgb(0,0,0)" stroke-width="2.009571190584364" fill="rgb(220,166,231)" stroke-linecap="butt" stroke-miterlimit="10.0"><path d="M 463.3738,407.1922 c 0.0000,-16.0455 -13.0075,-29.0530 -29.0530 -29.0530c -16.0455,-0.0000 -29.0530,13.0075 -29.0530 29.0530c -0.0000,16.0455 13.0075,29.0530 29.0530 29.0530c 16.0455,0.0000 29.0530,-13.0075 29.0530 -29.0530Z"/></g><g stroke-linejoin="miter" stroke-opacity="1.0" fill-opacity="1.0" stroke="rgb(0,0,0)" stroke-width="2.009571190584364" fill="rgb(83,196,250)" stroke-linecap="butt" stroke-miterlimit="10.0"><path d="M 195.2360,473.4300 c 0.0000,-16.0455 -13.0075,-29.0530 -29.0530 -29.0530c -16.0455,-0.0000 -29.0530,13.0075 -29.0530 29.0530c -0.0000,16.0455 13.0075,29.0530 29.0530 29.0530c 16.0455,0.0000 29.0530,-13.0075 29.0530 -29.0530Z"/></g><g stroke-linejoin="miter" stroke-opacity="1.0" fill-opacity="1.0" stroke="rgb(0,0,0)" stroke-width="2.009571190584364" fill="rgb(70,205,191)" stroke-linecap="butt" stroke-miterlimit="10.0"><path d="M 58.1060,286.2042 c 0.0000,-16.0455 -13.0075,-29.0530 -29.0530 -29.0530c -16.0455,-0.0000 -29.0530,13.0075 -29.0530 29.0530c -0.0000,16.0455 13.0075,29.0530 29.0530 29.0530c 16.0455,0.0000 29.0530,-13.0075 29.0530 -29.0530Z"/></g><g stroke-linejoin="miter" stroke-opacity="1.0" fill-opacity="1.0" stroke="rgb(0,0,0)" stroke-width="2.009571190584364" fill="rgb(175,192,119)" stroke-linecap="butt" stroke-miterlimit="10.0"><path d="M 182.9423,59.1155 c 0.0000,-16.0455 -13.0075,-29.0530 -29.0530 -29.0530c -16.0455,-0.0000 -29.0530,13.0075 -29.0530 29.0530c -0.0000,16.0455 13.0075,29.0530 29.0530 29.0530c 16.0455,0.0000 29.0530,-13.0075 29.0530 -29.0530Z"/></g><g stroke-linejoin="miter" stroke-opacity="1.0" fill-opacity="1.0" stroke="rgb(0,0,0)" stroke-width="2.009571190584364" fill="rgb(220,178,113)" stroke-linecap="butt" stroke-miterlimit="10.0"><path d="M 327.1131,38.5700 c 0.0000,-16.0455 -13.0075,-29.0530 -29.0530 -29.0530c -16.0455,-0.0000 -29.0530,13.0075 -29.0530 29.0530c -0.0000,16.0455 13.0075,29.0530 29.0530 29.0530c 16.0455,0.0000 29.0530,-13.0075 29.0530 -29.0530Z"/></g><g stroke-linejoin="miter" stroke-opacity="1.0" fill-opacity="1.0" stroke="rgb(0,0,0)" stroke-width="2.009571190584364" fill="rgb(243,167,128)" stroke-linecap="butt" stroke-miterlimit="10.0"><path d="M 424.2228,81.5834 c 0.0000,-16.0455 -13.0075,-29.0530 -29.0530 -29.0530c -16.0455,-0.0000 -29.0530,13.0075 -29.0530 29.0530c -0.0000,16.0455 13.0075,29.0530 29.0530 29.0530c 16.0455,0.0000 29.0530,-13.0075 29.0530 -29.0530Z"/></g><g stroke-linejoin="miter" stroke-opacity="1.0" fill-opacity="1.0" stroke="rgb(0,0,0)" stroke-width="2.009571190584364" fill="rgb(255,157,176)" stroke-linecap="butt" stroke-miterlimit="10.0"><path d="M 512.0000,231.4606 c 0.0000,-16.0455 -13.0075,-29.0530 -29.0530 -29.0530c -16.0455,-0.0000 -29.0530,13.0075 -29.0530 29.0530c -0.0000,16.0455 13.0075,29.0530 29.0530 29.0530c 16.0455,0.0000 29.0530,-13.0075 29.0530 -29.0530Z"/></g></svg>