<?xml version="1.0" encoding="UTF-8"?>
<!DOCTYPE svg PUBLIC "-//W3C//DTD SVG 1.1//EN"
    "http://www.w3.org/Graphics/SVG/1.1/DTD/svg11.dtd"><svg xmlns="http://www.w3.org/2000/svg" height="512.0000" stroke-opacity="1" viewBox="0 0 512 512" font-size="1" width="512.0000" xmlns:xlink="http://www.w3.org/1999/xlink" stroke="rgb(0,0,0)" version="1.1"><defs></defs><g stroke-linejoin="miter" stroke-opacity="1.0" fill-opacity="1.0" stroke="rgb(0,0,0)" stroke-width="1.9536542713240943" fill="rgb(222,175,143)" stroke-linecap="butt" stroke-miterlimit="10.0"><path d="M 379.4734,163.7767 c 0.0000,-15.4868 -12.5545,-28.0414 -28.0414 -28.0414c -15.4868,-0.0000 -28.0414,12.5545 -28.0414 28.0414c -0.0000,15.4868 12.5545,28.0414 28.0414 28.0414c 15.4868,0.0000 28.0414,-12.5545 28.0414 -28.0414Z"/></g><g stroke-linejoin="miter" stroke-opacity="1.0" fill-opacity="1.0" stroke="rgb(0,0,0)" stroke-width="1.9536542713240943" fill="rgb(225,163,238)" stroke-linecap="butt" stroke-miterlimit="10.0"><path d="M 506.4082,453.1051 c 0.0000,-15.4868 -12.5545,-28.0414 -28.0414 -28.0414c -15.4868,-0.0000 -28.0414,12.5545 -28.0414 28.0414c -0.0000,15.4868 12.5545,28.0414 28.0414 28.0414c 15.4868,0.0000 28.0414,-12.5545 28.0414 -28.0414Z"/></g><g stroke-linejoin="miter" stroke-opacity="1.0" fill-opacity="1.0" stroke="rgb(0,0,0)" stroke-width="1.9536542713240943" fill="rgb(111,194,239)" stroke-linecap="butt" stroke-miterlimit="10.0"><path d="M 235.3772,460.9155 c 0.0000,-15.4868 -12.5545,-28.0414 -28.0414 -28.0414c -15.4868,-0.0000 -28.0414,12.5545 -28.0414 28.0414c -0.0000,15.4868 12.5545,28.0414 28.0414 28.0414c 15.4868,0.0000 28.0414,-12.5545 28.0414 -28.0414Z"/></g><g stroke-linejoin="miter" stroke-opacity="1.0" fill-opacity="1.0" stroke="rgb(0,0,0)" stroke-width="1.9536542713240943" fill="rgb(18,207,192)" stroke-linecap="butt" stroke-miterlimit="10.0"><path d="M 56.0827,317.7277 c 0.0000,-15.4868 -12.5545,-28.0414 -28.0414 -28.0414c -15.4868,-0.0000 -28.0414,12.5545 -28.0414 28.0414c -0.0000,15.4868 12.5545,28.0414 28.0414 28.0414c 15.4868,0.0000 28.0414,-12.5545 28.0414 -28.0414Z"/></g><g stroke-linejoin="miter" stroke-opacity="1.0" fill-opacity="1.0" stroke="rgb(0,0,0)" stroke-width="1.9536542713240943" fill="rgb(172,194,103)" stroke-linecap="butt" stroke-miterlimit="10.0"><path d="M 186.5251,51.0845 c 0.0000,-15.4868 -12.5545,-28.0414 -28.0414 -28.0414c -15.4868,-0.0000 -28.0414,12.5545 -28.0414 28.0414c -0.0000,15.4868 12.5545,28.0414 28.0414 28.0414c 15.4868,0.0000 28.0414,-12.5545 28.0414 -28.0414Z"/></g><g stroke-linejoin="miter" stroke-opacity="1.0" fill-opacity="1.0" stroke="rgb(0,0,0)" stroke-width="1.9536542713240943" fill="rgb(221,178,111)" stroke-linecap="butt" stroke-miterlimit="10.0"><path d="M 349.2233,68.3564 c 0.0000,-15.4868 -12.5545,-28.0414 -28.0414 -28.0414c -15.4868,-0.0000 -28.0414,12.5545 -28.0414 28.0414c -0.0000,15.4868 12.5545,28.0414 28.0414 28.0414c 15.4868,0.0000 28.0414,-12.5545 28.0414 -28.0414Z"/></g><g stroke-linejoin="miter" stroke-opacity="1.0" fill-opacity="1.0" stroke="rgb(0,0,0)" stroke-width="1.9536542713240943" fill="rgb(237,169,135)" stroke-linecap="butt" stroke-miterlimit="10.0"><path d="M 425.3525,138.3643 c 0.0000,-15.4868 -12.5545,-28.0414 -28.0414 -28.0414c -15.4868,-0.0000 -28.0414,12.5545 -28.0414 28.0414c -0.0000,15.4868 12.5545,28.0414 28.0414 28.0414c 15.4868,0.0000 28.0414,-12.5545 28.0414 -28.0414Z"/></g><g stroke-linejoin="miter" stroke-opacity="1.0" fill-opacity="1.0" stroke="rgb(0,0,0)" stroke-width="1.9536542713240943" fill="rgb(251,159,177)" stroke-linecap="butt" stroke-miterlimit="10.0"><path d="M 512.0000,263.6914 c 0.0000,-15.4868 -12.5545,-28.0414 -28.0414 -28.0414c -15.4868,-0.0000 -28.0414,12.5545 -28.0414 28.0414c -0.0000,15.4868 12.5545,28.0414 28.0414 28.0414c 15.4868,0.0000 28.0414,-12.5545 28.0414 -28.0414Z"/></g><g stroke-linejoin="miter" stroke-opacity="1.0" fill-opacity="1.0" stroke="rgb(0,0,0)" stroke-width="1.9536542713240943" fill="rgb(245,245,245)" stroke-linecap="butt" stroke-miterlimit="10.0"><path d="M 307.8433,292.5014 c 0.0000,-15.4868 -12.5545,-28.0414 -28.0414 -28.0414c -15.4868,-0.0000 -28.0414,12.5545 -28.0414 28.0414c -0.0000,15.4868 12.5545,28.0414 28.0414 28.0414c 15.4868,0.0000 28.0414,-12.5545 28.0414 -28.0414Z"/></g><g stroke-linejoin="miter" stroke-opacity="1.0" fill-opacity="1.0" stroke="rgb(0,0,0)" stroke-width="1.9536542713240943" fill="rgb(224,224,224)" stroke-linecap="butt" stroke-miterlimit="10.0"><path d="M 307.8433,292.5014 c 0.0000,-15.4868 -12.5545,-28.0414 -28.0414 -28.0414c -15.4868,-0.0000 -28.0414,12.5545 -28.0414 28.0414c -0.0000,15.4868 12.5545,28.0414 28.0414 28.0414c 15.4868,0.0000 28.0414,-12.5545 28.0414 -28.0414Z"/></g><g stroke-linejoin="miter" stroke-opacity="1.0" fill-opacity="1.0" stroke="rgb(0,0,0)" stroke-width="1.9536542713240943" fill="rgb(208,208,208)" stroke-linecap="butt" stroke-miterlimit="10.0"><path d="M 307.8433,292.5014 c 0.0000,-15.4868 -12.5545,-28.0414 -28.0414 -28.0414c -15.4868,-0.0000 -28.0414,12.5545 -28.0414 28.0414c -0.0000,15.4868 12.5545,28.0414 28.0414 28.0414c 15.4868,0.0000 28.0414,-12.5545 28.0414 -28.0414Z"/></g><g stroke-linejoin="miter" stroke-opacity="1.0" fill-opacity="1.0" stroke="rgb(0,0,0)" stroke-width="1.9536542713240943" fill="rgb(176,176,176)" stroke-linecap="butt" stroke-miterlimit="10.0"><path d="M 307.8433,292.5014 c 0.0000,-15.4868 -12.5545,-28.0414 -28.0414 -28.0414c -15.4868,-0.0000 -28.0414,12.5545 -28.0414 28.0414c -0.0000,15.4868 12.5545,28.0414 28.0414 28.0414c 15.4868,0.0000 28.0414,-12.5545 28.0414 -28.0414Z"/></g><g stroke-linejoin="miter" stroke-opacity="1.0" fill-opacity="1.0" stroke="rgb(0,0,0)" stroke-width="1.9536542713240943" fill="rgb(80,80,80)" stroke-linecap="butt" stroke-miterlimit="10.0"><path d="M 307.8433,292.5014 c 0.0000,-15.4868 -12.5545,-28.0414 -28.0414 -28.0414c -15.4868,-0.0000 -28.0414,12.5545 -28.0414 28.0414c -0.0000,15.4868 12.5545,28.0414 28.0414 28.0414c 15.4868,0.0000 28.0414,-12.5545 28.0414 -28.0414Z"/></g><g stroke-linejoin="miter" stroke-opacity="1.0" fill-opacity="1.0" stroke="rgb(0,0,0)" stroke-width="1.9536542713240943" fill="rgb(48,48,48)" stroke-linecap="butt" stroke-miterlimit="10.0"><path d="M 307.8433,292.5014 c 0.0000,-15.4868 -12.5545,-28.0414 -28.0414 -28.0414c -15.4868,-0.0000 -28.0414,12.5545 -28.0414 28.0414c -0.0000,15.4868 12.5545,28.0414 28.0414 28.0414c 15.4868,0.0000 28.0414,-12.5545 28.0414 -28.0414Z"/></g><g stroke-linejoin="miter" stroke-opacity="1.0" fill-opacity="1.0" stroke="rgb(0,0,0)" stroke-width="1.9536542713240943" fill="rgb(32,32,32)" stroke-linecap="butt" stroke-miterlimit="10.0"><path d="M 307.8433,292.5014 c 0.0000,-15.4868 -12.5545,-28.0414 -28.0414 -28.0414c -15.4868,-0.0000 -28.0414,12.5545 -28.0414 28.0414c -0.0000,15.4868 12.5545,28.0414 28.0414 28.0414c 15.4868,0.0000 28.0414,-12.5545 28.0414 -28.0414Z"/></g><g stroke-linejoin="miter" stroke-opacity="1.0" fill-opacity="1.0" stroke="rgb(0,0,0)" stroke-width="1.9536542713240943" fill="rgb(21,21,21)" stroke-linecap="butt" stroke-miterlimit="10.0"><path d="M 307.8433,292.5014 c 0.0000,-15.4868 -12.5545,-28.0414 -28.0414 -28.0414c -15.4868,-0.0000 -28.0414,12.5545 -28.0414 28.0414c -0.0000,15.4868 12.5545,28.0414 28.0414 28.0414c 15.4868,0.0000 28.0414,-12.5545 28.0414 -28.0414Z"/></g></svg>