<?xml version="1.0" encoding="UTF-8"?>
<!DOCTYPE svg PUBLIC "-//W3C//DTD SVG 1.1//EN"
    "http://www.w3.org/Graphics/SVG/1.1/DTD/svg11.dtd"><svg xmlns="http://www.w3.org/2000/svg" height="512.0000" stroke-opacity="1" viewBox="0 0 512 512" font-size="1" width="512.0000" xmlns:xlink="http://www.w3.org/1999/xlink" stroke="rgb(0,0,0)" version="1.1"><defs></defs><g stroke-linejoin="miter" stroke-opacity="1.0" fill-opacity="1.0" stroke="rgb(0,0,0)" stroke-width="2.047999999999999" fill="rgb(116,202,156)" stroke-linecap="butt" stroke-miterlimit="10.0"><path d="M 61.9056,162.7824 c 0.0000,-17.0948 -13.8580,-30.9528 -30.9528 -30.9528c -17.0948,-0.0000 -30.9528,13.8580 -30.9528 30.9528c -0.0000,17.0948 13.8580,30.9528 30.9528 30.9528c 17.0948,0.0000 30.9528,-13.8580 30.9528 -30.9528Z"/></g><g stroke-linejoin="miter" stroke-opacity="1.0" fill-opacity="1.0" stroke="rgb(0,0,0)" stroke-width="2.047999999999999" fill="rgb(181,191,116)" stroke-linecap="butt" stroke-miterlimit="10.0"><path d="M 193.7352,30.9528 c 0.0000,-17.0948 -13.8580,-30.9528 -30.9528 -30.9528c -17.0948,-0.0000 -30.9528,13.8580 -30.9528 30.9528c -0.0000,17.0948 13.8580,30.9528 30.9528 30.9528c 17.0948,0.0000 30.9528,-13.8580 30.9528 -30.9528Z"/></g><g stroke-linejoin="miter" stroke-opacity="1.0" fill-opacity="1.0" stroke="rgb(0,0,0)" stroke-width="2.047999999999999" fill="rgb(232,173,118)" stroke-linecap="butt" stroke-miterlimit="10.0"><path d="M 380.1704,30.9528 c 0.0000,-17.0948 -13.8580,-30.9528 -30.9528 -30.9528c -17.0948,-0.0000 -30.9528,13.8580 -30.9528 30.9528c -0.0000,17.0948 13.8580,30.9528 30.9528 30.9528c 17.0948,0.0000 30.9528,-13.8580 30.9528 -30.9528Z"/></g><g stroke-linejoin="miter" stroke-opacity="1.0" fill-opacity="1.0" stroke="rgb(0,0,0)" stroke-width="2.047999999999999" fill="rgb(255,158,159)" stroke-linecap="butt" stroke-miterlimit="10.0"><path d="M 512.0000,162.7824 c 0.0000,-17.0948 -13.8580,-30.9528 -30.9528 -30.9528c -17.0948,-0.0000 -30.9528,13.8580 -30.9528 30.9528c -0.0000,17.0948 13.8580,30.9528 30.9528 30.9528c 17.0948,0.0000 30.9528,-13.8580 30.9528 -30.9528Z"/></g><g stroke-linejoin="miter" stroke-opacity="1.0" fill-opacity="1.0" stroke="rgb(0,0,0)" stroke-width="2.047999999999999" fill="rgb(238,161,213)" stroke-linecap="butt" stroke-miterlimit="10.0"><path d="M 512.0000,349.2176 c 0.0000,-17.0948 -13.8580,-30.9528 -30.9528 -30.9528c -17.0948,-0.0000 -30.9528,13.8580 -30.9528 30.9528c -0.0000,17.0948 13.8580,30.9528 30.9528 30.9528c 17.0948,0.0000 30.9528,-13.8580 30.9528 -30.9528Z"/></g><g stroke-linejoin="miter" stroke-opacity="1.0" fill-opacity="1.0" stroke="rgb(0,0,0)" stroke-width="2.047999999999999" fill="rgb(176,179,251)" stroke-linecap="butt" stroke-miterlimit="10.0"><path d="M 380.1704,481.0472 c 0.0000,-17.0948 -13.8580,-30.9528 -30.9528 -30.9528c -17.0948,-0.0000 -30.9528,13.8580 -30.9528 30.9528c -0.0000,17.0948 13.8580,30.9528 30.9528 30.9528c 17.0948,0.0000 30.9528,-13.8580 30.9528 -30.9528Z"/></g><g stroke-linejoin="miter" stroke-opacity="1.0" fill-opacity="1.0" stroke="rgb(0,0,0)" stroke-width="2.047999999999999" fill="rgb(85,196,251)" stroke-linecap="butt" stroke-miterlimit="10.0"><path d="M 193.7352,481.0472 c 0.0000,-17.0948 -13.8580,-30.9528 -30.9528 -30.9528c -17.0948,-0.0000 -30.9528,13.8580 -30.9528 30.9528c -0.0000,17.0948 13.8580,30.9528 30.9528 30.9528c 17.0948,0.0000 30.9528,-13.8580 30.9528 -30.9528Z"/></g><g stroke-linejoin="miter" stroke-opacity="1.0" fill-opacity="1.0" stroke="rgb(0,0,0)" stroke-width="2.047999999999999" fill="rgb(42,204,211)" stroke-linecap="butt" stroke-miterlimit="10.0"><path d="M 61.9056,349.2176 c 0.0000,-17.0948 -13.8580,-30.9528 -30.9528 -30.9528c -17.0948,-0.0000 -30.9528,13.8580 -30.9528 30.9528c -0.0000,17.0948 13.8580,30.9528 30.9528 30.9528c 17.0948,0.0000 30.9528,-13.8580 30.9528 -30.9528Z"/></g></svg>